<svg width="186" height="75" viewBox="0 0 186 75" fill="none" xmlns="http://www.w3.org/2000/svg">
<path d="M143.342 45.2199H143.428L150.652 27.0881H155.729L140.121 63.4397H135.304L141.107 50.7238L130.866 27.0881H135.943L143.342 45.2199ZM118.912 26.2639C122.364 26.2639 125.092 27.2056 127.094 29.0598C129.095 30.9141 130.082 33.5046 130.082 36.7717V52.343H125.614V48.84H125.411C123.467 51.7247 120.914 53.1672 117.693 53.1672C114.966 53.1671 112.645 52.3428 110.817 50.6945C109.019 49.164 108.003 46.8978 108.061 44.5139C108.061 41.8942 109.048 39.8337 110.992 38.2736C112.936 36.7137 115.546 35.9475 118.796 35.9475C121.581 35.9475 123.845 36.4779 125.643 37.4787V36.3898C125.643 34.7709 124.947 33.2395 123.728 32.1799C122.481 31.0615 120.885 30.4436 119.231 30.4436C116.62 30.4436 114.56 31.5621 113.052 33.799L108.931 31.1799C111.136 27.9127 114.473 26.2639 118.912 26.2639ZM96.7751 15.4318C99.7635 15.373 102.665 16.5215 104.783 18.6408C109.019 22.644 109.279 29.3843 105.304 33.7111L104.783 34.2414C102.607 36.3312 99.9375 37.3908 96.7751 37.3908H89.0574V52.343H84.3865V15.4318H96.7751ZM119.523 39.7746C117.637 39.7746 116.04 40.2449 114.763 41.1574C113.516 42.0699 112.878 43.2184 112.878 44.6018C112.878 45.838 113.458 46.9862 114.416 47.6926C115.46 48.5166 116.737 48.9583 118.043 48.9289C120.016 48.9289 121.902 48.1337 123.295 46.7209C124.833 45.2492 125.617 43.5125 125.617 41.5109C124.166 40.3336 122.135 39.7452 119.523 39.7746ZM89.0583 32.8576H96.8923C98.6334 32.9165 100.317 32.2093 101.507 30.9436C103.944 28.3827 103.886 24.2627 101.361 21.7902C100.171 20.6128 98.5754 19.965 96.8923 19.965H89.0583V32.8576Z" fill="#3C4043"/>
<path d="M72.9313 34.153C72.9313 32.7107 72.8153 31.2683 72.5832 29.8555H52.8833V38.0089H64.1694C63.7052 40.6286 62.1965 42.9834 59.9915 44.4552V49.7535H66.7225C70.6683 46.0741 72.9313 40.6286 72.9313 34.153Z" fill="#4285F4"/>
<path d="M52.8842 54.8748C58.5127 54.8748 63.2709 52.9909 66.7234 49.7531L59.9924 44.4548C58.1065 45.7499 55.6984 46.4858 52.8842 46.4858C47.4297 46.4858 42.8166 42.7476 41.1629 37.7437H34.2288V43.2185C37.7684 50.3712 44.9926 54.8748 52.8842 54.8748Z" fill="#34A853"/>
<path d="M41.1637 37.7438C40.2931 35.1241 40.2931 32.2689 41.1637 29.6198V24.1743H34.2284C31.2396 30.1496 31.2396 37.214 34.2284 43.1893L41.1637 37.7438Z" fill="#FBBC04"/>
<path d="M52.8842 20.8775C55.8725 20.8187 58.7448 21.9666 60.8918 24.0565L66.8685 17.9929C63.0678 14.4019 58.0775 12.4297 52.8842 12.4886C44.9926 12.4886 37.7684 17.0216 34.2288 24.1742L41.1629 29.6491C42.8166 24.6158 47.4297 20.8775 52.8842 20.8775Z" fill="#EA4335"/>
</svg>
