<svg width="186" height="75" viewBox="0 0 186 75" fill="none" xmlns="http://www.w3.org/2000/svg">
<path d="M74.4629 7.9541C90.6471 7.95423 103.768 21.2265 103.768 37.5986C103.768 53.9708 90.6472 67.243 74.4629 67.2432C58.2785 67.2432 45.1582 53.9709 45.1582 37.5986C45.1583 21.2264 58.2785 7.9541 74.4629 7.9541Z" fill="#ED0006"/>
<path d="M112.479 7.9541C128.664 7.95423 141.784 21.2265 141.784 37.5986C141.784 53.9708 128.664 67.243 112.479 67.2432C96.2951 67.2432 83.1748 53.9709 83.1748 37.5986C83.1749 21.2264 96.2951 7.9541 112.479 7.9541Z" fill="#0099DF"/>
<path d="M93.4709 15.0381C99.7711 20.4754 103.767 28.5645 103.767 37.5986C103.767 46.6328 99.771 54.7218 93.4709 60.1592C87.171 54.7218 83.175 46.6327 83.175 37.5986C83.1751 28.5646 87.1709 20.4754 93.4709 15.0381Z" fill="#6C6BBD"/>
</svg>
