<svg width="186" height="75" viewBox="0 0 186 75" fill="none" xmlns="http://www.w3.org/2000/svg">
<path d="M180.911 30.0829C180.343 25.6571 178.754 21.6264 175.974 18.6758C173.023 15.8958 168.993 14.3069 164.567 13.7383C160.312 13.1698 157.415 13.3404 157.415 13.3404C157.415 13.3404 154.521 13.2267 150.263 13.7383C145.837 14.3069 141.807 15.8958 138.856 18.6758C136.076 21.6264 134.487 25.6571 133.919 30.0829C133.35 34.3382 133.464 37.2347 133.464 37.2347C133.464 37.2347 133.35 40.1284 133.862 44.3865C134.43 48.8124 136.019 52.8431 138.799 55.7936C141.75 58.5736 145.781 60.1626 150.206 60.7311C154.462 61.2996 157.358 61.1291 157.358 61.1291C157.358 61.1291 160.252 61.2428 164.51 60.7311C168.936 60.1626 172.967 58.5736 175.917 55.7936C178.697 52.8431 180.286 48.8124 180.855 44.3865C181.423 40.1313 181.253 37.2347 181.253 37.2347C181.253 37.2347 181.48 34.341 180.911 30.0829Z" fill="#1E4BC6"/>
<path d="M142.261 30.2533H146.574C147.256 30.2533 147.821 30.367 148.39 30.5944C148.958 30.8218 149.41 31.1629 149.808 31.5581C150.206 31.9532 150.547 32.408 150.772 32.9765C150.999 33.545 151.113 34.1106 151.113 34.736C151.113 35.3614 150.999 35.927 150.772 36.4955C150.545 37.064 150.203 37.5188 149.808 37.914C149.413 38.3091 148.902 38.653 148.39 38.8776C147.878 39.105 147.256 39.2187 146.574 39.2187H144.643V42.7946H142.315V30.2505H142.259L142.261 30.2533ZM144.589 32.4108V37.0072H146.406C146.747 37.0072 147.088 36.9503 147.369 36.8366C147.651 36.7229 147.881 36.5524 148.108 36.325C148.336 36.0976 148.45 35.8702 148.563 35.5859C148.677 35.3017 148.734 35.0174 148.734 34.6792C148.734 34.3409 148.677 34.0538 148.563 33.7724C148.45 33.4881 148.279 33.2607 148.108 33.0333C147.881 32.8059 147.654 32.6354 147.369 32.5217C147.085 32.408 146.744 32.3511 146.406 32.3511H144.589V32.408V32.4108ZM156.508 42.7974C155.883 42.7974 155.317 42.6837 154.692 42.4563C154.123 42.2289 153.558 41.8878 153.103 41.4927C152.648 41.0379 152.253 40.5262 151.969 39.9037C151.684 39.2812 151.514 38.5422 151.514 37.7462C151.514 36.9503 151.628 36.2141 151.912 35.5888C152.196 34.9634 152.594 34.4546 153.046 33.9998C153.498 33.545 154.066 33.2607 154.635 33.0362C155.26 32.8088 155.826 32.6951 156.508 32.6951C157.19 32.6951 157.813 32.8088 158.325 33.0362C158.893 33.2636 159.345 33.6047 159.743 33.9998V32.6951H162.071V42.7974H159.743V41.379C159.402 41.8338 158.893 42.1749 158.325 42.4563C157.756 42.6837 157.19 42.7974 156.508 42.7974ZM156.906 40.6968C157.361 40.6968 157.756 40.6399 158.097 40.4694C158.438 40.2988 158.779 40.1283 159.061 39.844C159.342 39.5598 159.516 39.2755 159.686 38.9373C159.857 38.5962 159.914 38.1982 159.914 37.8031C159.914 37.408 159.857 37.0072 159.686 36.6689C159.516 36.3278 159.345 35.9867 159.061 35.7622C158.777 35.4779 158.492 35.3074 158.097 35.1368C157.699 34.9094 157.301 34.8525 156.906 34.8525C156.511 34.8525 156.11 34.9094 155.715 35.08C155.317 35.2505 155.033 35.4211 154.751 35.7053C154.47 35.9896 154.24 36.2738 154.126 36.6121C153.956 36.9532 153.899 37.3511 153.899 37.7462C153.899 38.1414 153.956 38.5393 154.126 38.8804C154.297 39.2215 154.524 39.5626 154.751 39.8469C155.036 40.1311 155.377 40.3017 155.715 40.4722C156.056 40.5859 156.454 40.6996 156.906 40.6996M165.306 32.7548L168.143 39.6223L170.752 32.7548H173.194L167.236 47.3966H164.851L166.952 42.3455L162.864 32.7548H165.306Z" fill="white"/>
<path d="M108.055 28.6646V45.6345H101.926L97.7277 31.672H97.614L97.8414 45.6345H93.6401V28.6646H99.996L103.97 42.1154H104.027L103.799 28.6646H108.055Z" fill="#1E4BC6"/>
<path d="M19.8591 45.805L23.0371 28.6646H30.6437L33.8217 45.805H29.2224L26.8972 30.1967H26.8404L24.4555 45.805H19.8591Z" fill="#1E4BC6"/>
<path d="M55.9534 28.6646L56.3514 45.805H52.0392L51.9255 30.3672H51.8118L48.975 45.805H44.6032L41.7663 30.3672H41.6526L41.5389 45.805H37.2268L37.6219 28.6646H44.66L46.7607 41.7743H46.8175L48.975 28.6646H55.9534Z" fill="#1E4BC6"/>
<path d="M82.8011 43.1957C83.9921 43.1957 84.3901 42.3998 84.4469 41.9478C84.5038 41.7772 84.5038 41.493 84.5038 41.2684V28.6675H88.8727V40.9842C88.8727 41.3253 88.8159 41.9478 88.8159 42.1183C88.5316 45.2963 85.979 46.3736 82.7982 46.3736C79.6174 46.3736 77.1217 45.3503 76.8403 42.1183C76.8403 41.9478 76.7834 41.3224 76.7834 40.9842V28.6675H81.1524V41.3793C81.1524 41.6067 81.1524 41.8341 81.2093 42.0615C81.2661 42.4026 81.6072 43.1957 82.7982 43.1957" fill="#1E4BC6"/>
<path d="M12.5936 40.9244C12.7641 41.3223 12.7073 41.888 12.6504 42.1722C12.4799 42.7407 12.1388 43.3064 10.9477 43.3064C9.87041 43.3064 9.24506 42.681 9.24506 41.7743V40.1284H4.64868V41.4332C4.64868 45.2933 7.65608 46.4275 10.8909 46.4275C14.1257 46.4275 16.5674 45.3502 16.9625 42.5105C17.1899 41.0352 17.0194 40.0716 16.9625 39.6736C16.2235 36.0977 9.69702 35.0204 9.24506 32.9766C9.18821 32.6355 9.18821 32.2944 9.24506 32.0699C9.35876 31.5014 9.75671 30.9357 10.834 30.9357C11.8545 30.9357 12.423 31.561 12.423 32.4678V33.5451H16.6783V32.3541C16.6783 28.6077 13.3298 28.042 10.888 28.042C7.82379 28.042 5.3252 29.0625 4.87324 31.8453C4.75954 32.5844 4.75954 33.2637 4.93009 34.1733C5.6123 37.7464 11.7408 38.7129 12.5907 40.9272" fill="#1E4BC6"/>
<path d="M68.3839 40.924C68.5545 41.322 68.4976 41.8308 68.4408 42.1719C68.3271 42.7404 67.9291 43.306 66.7949 43.306C65.6608 43.306 65.0923 42.6807 65.0923 41.7739V40.1281H60.5527V41.4328C60.5527 45.2361 63.5601 46.3703 66.7381 46.3703C69.916 46.3703 72.3578 45.347 72.7529 42.5101C72.9803 41.0349 72.8097 40.0712 72.7529 39.7301C72.0138 36.1542 65.6011 35.1338 65.1491 33.1468C65.0354 32.8057 65.0923 32.4646 65.1491 32.2401C65.2628 31.6716 65.6608 31.1059 66.6812 31.1059C67.7017 31.1059 68.2702 31.7312 68.2702 32.638V33.7153H72.5255V32.5243C72.5255 28.8347 69.177 28.269 66.7921 28.269C63.7847 28.269 61.2861 29.2327 60.8341 32.0155C60.7204 32.7546 60.6636 33.4339 60.891 34.2867C61.5135 37.7489 67.5312 38.7125 68.3811 40.9268" fill="#1E4BC6"/>
<path d="M118.611 43.0221C119.859 43.0221 120.257 42.2262 120.371 41.7743C120.428 41.6037 120.428 41.3194 120.428 41.1489V38.6531H118.668V36.1546H124.74V40.7509C124.74 41.092 124.74 41.3194 124.683 41.8851C124.399 45.0062 121.676 46.1404 118.611 46.1404C115.547 46.1404 112.878 45.0062 112.594 41.8851C112.537 41.3166 112.537 41.0892 112.537 40.7509V33.5423C112.537 33.258 112.594 32.6924 112.594 32.4081C112.992 29.1733 115.544 28.1528 118.611 28.1528C121.678 28.1528 124.345 29.1733 124.626 32.4081C124.683 32.9198 124.683 33.5423 124.683 33.5423V34.1108H120.371V33.1472C120.371 33.1472 120.371 32.7492 120.314 32.465C120.257 32.067 119.916 31.2171 118.611 31.2171C117.307 31.2171 117.022 32.067 116.909 32.465C116.852 32.6924 116.852 32.9766 116.852 33.2609V41.092C116.852 41.3194 116.852 41.5468 116.909 41.7174C116.909 42.2859 117.363 43.0221 118.611 43.0221Z" fill="#1E4BC6"/>
</svg>
