<svg width="186" height="75" viewBox="0 0 186 75" fill="none" xmlns="http://www.w3.org/2000/svg">
<path fill-rule="evenodd" clip-rule="evenodd" d="M89.84 28.8014C91.5448 26.6885 94.1968 24.9399 97.3442 24.9399C104.441 24.9399 110.021 30.8122 110.021 38.0542C110.021 45.6022 104.411 51.183 97.6794 51.183C94.0948 51.183 91.3554 49.347 90.35 47.8171H90.248V58.9059C90.248 58.9059 90.2188 59.037 90.1751 59.0808C90.1314 59.1245 90.0585 59.1536 90.0002 59.1536H83.6908C83.6908 59.1536 83.5597 59.1245 83.516 59.0808C83.4723 59.037 83.4431 58.9642 83.4431 58.9059V25.2022C83.4431 25.2022 83.4723 25.0711 83.516 25.0274C83.5597 24.9837 83.6325 24.9545 83.6908 24.9545H89.5923C89.5923 24.9545 89.7234 24.9837 89.7671 25.0274C89.8108 25.0711 89.84 25.1439 89.84 25.2022V28.8159V28.8014ZM96.8051 44.7571C96.2805 44.7716 95.756 44.7279 95.2314 44.6259C93.9345 44.3491 92.7397 43.7079 91.8071 42.7462C90.8745 41.7991 90.248 40.5896 90.0148 39.2782C89.942 38.8994 89.9128 38.5205 89.8982 38.1416C89.8982 37.7191 89.9274 37.2965 90.0002 36.8739C90.2334 35.5625 90.86 34.3531 91.7925 33.4059C92.7251 32.4588 93.9054 31.8031 95.2168 31.5262C95.7414 31.4096 96.266 31.3659 96.7905 31.3805C97.6502 31.3805 98.4954 31.5699 99.2822 31.9051C100.084 32.2402 100.798 32.7356 101.41 33.3622C102.022 33.9888 102.488 34.7174 102.809 35.5188C103.129 36.3202 103.289 37.1799 103.275 38.0542C103.275 38.9285 103.129 39.7882 102.809 40.5896C102.488 41.3911 102.007 42.1342 101.41 42.7608C100.798 43.3873 100.084 43.8828 99.2822 44.2179C98.4954 44.5531 97.6502 44.7425 96.8051 44.7571Z" fill="#5A31F4"/>
<path d="M48.8649 29.9963C47.4078 26.9363 44.6392 24.9691 40.4718 24.9691C39.1895 24.9983 37.9363 25.3043 36.7998 25.8871C35.6632 26.47 34.6723 27.3151 33.9146 28.3351L33.7689 28.5246V16.5323C33.7689 16.5323 33.7398 16.4012 33.6961 16.3429C33.6523 16.2992 33.5795 16.27 33.5066 16.27H27.6198C27.6198 16.27 27.4886 16.2992 27.4449 16.3429C27.4012 16.3866 27.3721 16.4594 27.3721 16.5323V50.9208C27.3721 50.9208 27.4012 51.052 27.4449 51.0957C27.4886 51.1394 27.5615 51.1685 27.6198 51.1685H33.9292C33.9292 51.1685 34.0603 51.1394 34.1186 51.0957C34.1623 51.052 34.1915 50.9791 34.1915 50.9208V36.262C34.1915 33.406 36.0858 31.3951 39.1312 31.3951C42.4535 31.3951 43.2986 34.1346 43.2986 36.9177V50.9208C43.2986 50.9208 43.3278 51.052 43.3715 51.0957C43.4152 51.1394 43.488 51.1685 43.5463 51.1685H49.8412C49.8412 51.1685 49.9723 51.1394 50.0306 51.0957C50.0743 51.052 50.1035 50.9791 50.1035 50.9208V36.0726C50.1035 35.5626 50.1035 35.0671 50.0306 34.5863C49.9286 32.998 49.5206 31.4389 48.8649 29.9963Z" fill="#5A31F4"/>
<path d="M17.3765 35.0964C17.3765 35.0964 14.1708 34.3387 12.9905 34.0327C11.8102 33.7267 9.74107 33.0855 9.74107 31.5264C9.74107 29.9672 11.4022 29.4718 13.0925 29.4718C14.7828 29.4718 16.6625 29.8798 16.8082 31.7595C16.8082 31.8324 16.8519 31.8907 16.8956 31.9344C16.9393 31.9781 17.0122 32.0072 17.0851 32.0072L23.307 31.9781C23.307 31.9781 23.3799 31.9781 23.409 31.949C23.4382 31.9344 23.4673 31.9198 23.4965 31.8907C23.5256 31.8615 23.5402 31.8324 23.5548 31.8032C23.5548 31.7741 23.5693 31.7304 23.5548 31.7012C23.1759 25.6978 17.9011 23.5558 13.0488 23.5558C7.29307 23.5267 3.08193 27.3298 3.08193 31.5264C3.08193 34.5864 3.94165 37.457 10.7465 39.4532C11.9413 39.8029 13.5588 40.2547 14.9722 40.6481C16.6771 41.1289 17.5951 41.8429 17.5951 42.9649C17.5951 44.2764 15.7008 45.1944 13.8356 45.1944C11.1399 45.1944 9.21649 44.1889 9.05621 42.3967C9.05621 42.3238 9.01249 42.2655 8.96878 42.2218C8.92507 42.1781 8.85221 42.1489 8.79392 42.1489L2.5865 42.1781C2.5865 42.1781 2.51365 42.1781 2.4845 42.1927C2.45536 42.1927 2.42622 42.2218 2.39708 42.2509C2.36793 42.2801 2.35336 42.3092 2.33879 42.3384C2.33879 42.3675 2.32422 42.4112 2.32422 42.4404C2.61565 48.1087 8.07992 51.1541 13.1799 51.1541C20.7716 51.1541 24.2105 46.8847 24.2105 42.8775C24.2105 40.9978 23.7879 36.7138 17.4056 35.0818L17.3765 35.0964Z" fill="#5A31F4"/>
<path d="M64.7627 23.4683C58.8759 23.4683 55.947 25.4645 53.5865 27.0674L53.5136 27.1111C53.397 27.1985 53.3096 27.3151 53.2805 27.4608C53.2513 27.6065 53.2805 27.7523 53.3388 27.8834L55.6702 31.8905C55.7139 31.9634 55.7722 32.0362 55.845 32.08C55.9179 32.1237 56.0053 32.1674 56.0782 32.182C56.1656 32.1965 56.253 32.182 56.3259 32.182C56.4133 32.1528 56.4862 32.1237 56.5445 32.0654L56.7339 31.9197C57.9433 30.8997 59.8813 29.5445 64.5879 29.1803C67.2107 28.9763 69.4693 29.6611 71.1305 31.2057C72.9665 32.896 74.0593 35.6208 74.0593 38.506C74.0593 43.8099 70.941 47.1468 65.9139 47.2051C61.7756 47.1759 58.9925 45.0194 58.9925 41.8428C58.9925 40.1525 59.7502 39.0451 61.251 37.9522C61.3676 37.8648 61.4405 37.7482 61.4842 37.6171C61.5133 37.486 61.4842 37.3402 61.4259 37.2091L59.3422 33.2602C59.3422 33.2602 59.2548 33.1291 59.1819 33.0708C59.1236 33.0271 59.0508 32.9834 58.9633 32.9542C58.8905 32.9251 58.803 32.9251 58.7156 32.9397C58.6282 32.9397 58.5553 32.9834 58.4825 33.0271C56.1365 34.4114 53.2513 36.9614 53.4116 41.8574C53.601 48.0794 58.7739 52.8442 65.5059 53.0336H66.3073C74.307 52.7714 80.0773 46.8408 80.0773 38.7828C80.0773 31.3951 74.6859 23.4828 64.7336 23.4828L64.7627 23.4683Z" fill="#5A31F4"/>
<path fill-rule="evenodd" clip-rule="evenodd" d="M123.034 16.3579H176.89C180.605 16.3579 183.622 19.3742 183.622 23.0899V52.5679C183.622 56.2836 180.605 59.2999 176.89 59.2999H123.034C119.318 59.2999 116.302 56.2836 116.302 52.5679V23.0899C116.302 19.3742 119.318 16.3579 123.034 16.3579ZM135.113 39.7159C139.601 39.7159 142.822 36.4373 142.822 31.8473C142.822 27.2573 139.601 23.9788 135.113 23.9788H127.187C127.099 23.9788 126.997 24.0225 126.939 24.0808C126.866 24.1536 126.837 24.241 126.837 24.3285V46.0982C126.837 46.1856 126.881 46.2876 126.939 46.3459C127.012 46.4187 127.099 46.4479 127.187 46.4479H130.174C130.261 46.4479 130.363 46.4042 130.421 46.3459C130.494 46.273 130.523 46.1856 130.523 46.0982V40.0656C130.523 39.9782 130.567 39.8762 130.625 39.8179C130.698 39.745 130.786 39.7159 130.873 39.7159H135.113ZM134.88 27.2865C137.328 27.2865 139.121 29.2099 139.121 31.8473C139.121 34.4847 137.314 36.4082 134.88 36.4082H130.873C130.786 36.4082 130.684 36.3645 130.625 36.3062C130.553 36.2333 130.523 36.1459 130.523 36.0585V27.6508C130.523 27.5633 130.567 27.4613 130.625 27.403C130.698 27.3302 130.786 27.301 130.873 27.301H134.88V27.2865ZM143.696 42.2804C143.667 41.581 143.813 40.8816 144.119 40.2404C144.425 39.5993 144.891 39.0602 145.459 38.6522C146.625 37.7779 148.417 37.3262 151.084 37.2242L153.911 37.1222V36.2916C153.911 34.6305 152.789 33.9165 150.996 33.9165C149.204 33.9165 148.067 34.5576 147.791 35.5922C147.776 35.665 147.718 35.7233 147.659 35.7816C147.601 35.8253 147.528 35.8545 147.441 35.8399H144.658C144.658 35.8399 144.556 35.8399 144.512 35.8107C144.468 35.7962 144.425 35.7525 144.395 35.7233C144.366 35.6796 144.337 35.6359 144.323 35.5922C144.323 35.5485 144.308 35.4902 144.323 35.4465C144.745 32.9839 146.785 31.1042 151.142 31.1042C155.761 31.1042 157.437 33.2607 157.437 37.3699V46.0982C157.437 46.0982 157.437 46.1856 157.408 46.2293C157.393 46.273 157.364 46.3167 157.335 46.3459C157.306 46.375 157.262 46.4042 157.218 46.4187C157.175 46.4333 157.131 46.4479 157.087 46.4479H154.275C154.275 46.4479 154.187 46.4479 154.144 46.4187C154.1 46.4042 154.056 46.375 154.027 46.3459C153.998 46.3167 153.969 46.273 153.954 46.2293C153.94 46.1856 153.925 46.1419 153.925 46.0982V45.4424C153.925 45.4424 153.925 45.3259 153.881 45.2822C153.852 45.2384 153.809 45.1947 153.75 45.1802C153.692 45.1656 153.634 45.151 153.59 45.1802C153.546 45.2093 153.488 45.2239 153.444 45.2676C152.599 46.1856 151.229 46.8559 149.058 46.8559C145.867 46.8559 143.74 45.1947 143.74 42.3096L143.696 42.2804ZM153.911 40.3862V39.7159L150.253 39.9053C148.33 40.0073 147.193 40.8087 147.193 42.1493C147.193 43.3733 148.228 44.0436 150.02 44.0436C152.468 44.0436 153.911 42.7176 153.911 40.3862ZM160.235 50.5133V53.0487C160.235 53.1361 160.249 53.209 160.307 53.2819C160.351 53.3547 160.424 53.3984 160.497 53.4276C160.992 53.5587 161.502 53.6316 162.027 53.617C164.752 53.617 167.243 52.6261 168.671 48.7356L174.937 32.0076C174.937 32.0076 174.966 31.891 174.937 31.8473C174.937 31.789 174.908 31.7307 174.879 31.687C174.85 31.6433 174.806 31.5996 174.748 31.5705C174.689 31.5413 174.646 31.5267 174.587 31.5267H171.673C171.6 31.5267 171.527 31.5559 171.469 31.5996C171.411 31.6433 171.367 31.7016 171.338 31.7745L167.885 42.3679C167.885 42.3679 167.812 42.499 167.753 42.5427C167.695 42.5864 167.622 42.601 167.549 42.601C167.477 42.601 167.404 42.5719 167.345 42.5427C167.287 42.499 167.243 42.4407 167.214 42.3679L163.236 31.7453C163.236 31.7453 163.163 31.6142 163.105 31.5705C163.047 31.5267 162.974 31.5122 162.901 31.5122H160.045C160.045 31.5122 159.929 31.5267 159.885 31.5559C159.841 31.585 159.797 31.6142 159.754 31.6725C159.725 31.7162 159.695 31.7745 159.695 31.8327C159.695 31.891 159.695 31.9493 159.71 31.993L165.568 47.0453C165.597 47.1182 165.597 47.2056 165.568 47.293L165.378 47.8759C165.16 48.6044 164.708 49.231 164.096 49.6681C163.484 50.1053 162.726 50.3239 161.983 50.2801C161.546 50.2801 161.109 50.2364 160.672 50.1636C160.613 50.1636 160.57 50.1636 160.511 50.1636C160.453 50.1636 160.409 50.2073 160.366 50.2364C160.322 50.2656 160.293 50.3093 160.264 50.3676C160.235 50.4113 160.235 50.4696 160.235 50.5279V50.5133Z" fill="#5A31F4"/>
</svg>
