<svg width="316" height="52" viewBox="0 0 316 52" fill="none" xmlns="http://www.w3.org/2000/svg">
<path d="M9.778 23.5C8.578 23.5 7.474 23.38 6.466 23.092C5.458 22.828 4.594 22.42 3.874 21.844C3.154 21.292 2.578 20.596 2.17 19.732C1.762 18.892 1.57 17.908 1.57 16.756C1.57 15.796 1.738 14.884 2.122 14.068C2.482 13.252 3.01 12.532 3.73 11.932C4.426 11.332 5.29 10.852 6.298 10.516C7.306 10.18 8.482 9.988 9.778 9.988H10.258V8.788H13.618V23.5H9.778ZM10.258 20.14V13.348H8.962C8.458 13.348 7.978 13.444 7.498 13.588C7.018 13.732 6.586 13.948 6.202 14.236C5.818 14.524 5.506 14.884 5.266 15.316C5.026 15.748 4.93 16.228 4.93 16.756C4.93 17.332 5.026 17.812 5.242 18.22C5.458 18.652 5.746 18.988 6.106 19.276C6.466 19.564 6.874 19.78 7.354 19.924C7.81 20.068 8.29 20.14 8.794 20.14H10.258ZM11.602 7.012C11.074 7.012 10.642 6.868 10.282 6.58C9.898 6.292 9.73 5.86 9.73 5.284C9.73 4.78 9.898 4.372 10.258 4.06C10.618 3.748 11.074 3.58 11.602 3.58C12.13 3.58 12.586 3.748 12.946 4.06C13.282 4.372 13.474 4.78 13.474 5.284C13.474 5.86 13.282 6.292 12.922 6.58C12.538 6.868 12.106 7.012 11.602 7.012ZM6.394 7.012C5.866 7.012 5.434 6.868 5.074 6.58C4.69 6.292 4.522 5.86 4.522 5.284C4.522 4.78 4.69 4.372 5.05 4.06C5.41 3.748 5.866 3.58 6.394 3.58C6.922 3.58 7.354 3.748 7.714 4.06C8.074 4.372 8.266 4.78 8.266 5.284C8.266 5.86 8.074 6.292 7.714 6.58C7.33 6.868 6.898 7.012 6.394 7.012ZM15.8088 20.14H24.1848V16.468C24.1848 15.988 24.1128 15.58 24.0168 15.22C23.9208 14.86 23.7528 14.548 23.5368 14.26C23.3208 13.996 23.0328 13.78 22.6728 13.612C22.3128 13.444 21.9288 13.348 21.4968 13.348H20.0568V9.988H21.1608C22.2408 9.988 23.2008 10.132 24.0168 10.42C24.8328 10.708 25.5288 11.164 26.1528 11.788C26.6568 12.34 27.0168 13.036 27.2328 13.876C27.4248 14.716 27.5448 15.628 27.5448 16.612V23.5H15.8088V20.14ZM42.0934 22.588C42.0934 23.5 41.9734 24.34 41.7814 25.108C41.5894 25.876 41.2534 26.524 40.7734 27.052C40.2934 27.604 39.6694 28.036 38.8774 28.324C38.0854 28.636 37.1014 28.78 35.9254 28.78C35.5894 28.78 35.3014 28.78 35.0374 28.756C34.7494 28.732 34.4854 28.684 34.2214 28.636C33.9574 28.588 33.6934 28.54 33.4054 28.468L32.4214 28.204L32.1814 24.82C32.8294 25.036 33.4294 25.18 34.0054 25.276C34.5574 25.372 35.1094 25.42 35.6854 25.42C36.1414 25.42 36.5494 25.42 36.9094 25.372C37.2454 25.324 37.5574 25.252 37.7974 25.108C38.0374 24.964 38.2534 24.772 38.3974 24.508C38.5414 24.268 38.6614 23.932 38.7094 23.5H38.3254C37.1734 23.5 36.0934 23.38 35.0854 23.116C34.0774 22.876 33.2134 22.468 32.4694 21.916C31.7254 21.388 31.1494 20.692 30.7174 19.828C30.2854 18.964 30.0934 17.932 30.0934 16.732C30.0934 15.676 30.2854 14.74 30.6934 13.9C31.1014 13.084 31.6774 12.364 32.3974 11.788C33.1174 11.212 34.0054 10.78 35.0134 10.468C36.0214 10.156 37.1254 9.988 38.3254 9.988H42.1174L42.0934 22.588ZM33.4534 16.732C33.4534 17.308 33.5494 17.788 33.7414 18.22C33.9334 18.652 34.2214 18.988 34.5814 19.276C34.9174 19.564 35.3254 19.78 35.8054 19.924C36.2854 20.068 36.7894 20.14 37.3414 20.14H38.7574V13.348H37.3414C36.8374 13.348 36.3574 13.444 35.8774 13.588C35.3974 13.756 34.9894 13.996 34.6294 14.284C34.2694 14.572 33.9814 14.932 33.7654 15.34C33.5494 15.772 33.4534 16.228 33.4534 16.732ZM44.4025 20.14H52.7785V16.468C52.7785 15.988 52.7065 15.58 52.6105 15.22C52.5145 14.86 52.3465 14.548 52.1305 14.26C51.9145 13.996 51.6265 13.78 51.2665 13.612C50.9065 13.444 50.5225 13.348 50.0905 13.348H48.6505V9.988H49.7545C50.8345 9.988 51.7945 10.132 52.6105 10.42C53.4265 10.708 54.1225 11.164 54.7465 11.788C55.2505 12.34 55.6105 13.036 55.8265 13.876C56.0185 14.716 56.1385 15.628 56.1385 16.612V20.14H58.7305V23.5H44.4025V20.14ZM58.2812 20.14H68.2413C68.3613 19.612 68.4573 19.036 68.5293 18.412C68.6013 17.788 68.6493 17.236 68.6493 16.708C68.6493 16.228 68.5533 15.7 68.3613 15.172C68.1693 14.644 67.8813 14.188 67.4733 13.804C66.7773 13.204 65.8413 12.892 64.6413 12.892C63.9933 12.892 63.4173 12.988 62.8893 13.132C62.3613 13.276 61.7853 13.564 61.1613 13.948L59.7693 11.02C60.5373 10.588 61.3773 10.228 62.2413 9.94C63.1053 9.676 64.0413 9.532 65.0493 9.532C66.0333 9.532 66.9213 9.7 67.7373 10.012C68.5533 10.348 69.2493 10.804 69.8253 11.38C70.4493 12.028 70.9773 12.82 71.3853 13.756C71.7693 14.692 71.9853 15.772 71.9853 16.972C71.9853 17.524 71.9373 18.052 71.8893 18.58C71.8412 19.108 71.7693 19.636 71.6733 20.14H74.2653V23.5H58.2812V20.14ZM73.8203 20.14H76.1483C76.0763 19.9 76.0283 19.66 76.0043 19.396C75.9803 19.156 75.9803 18.892 75.9803 18.604C75.9803 17.596 76.1483 16.636 76.5323 15.748C76.9163 14.86 77.4203 14.092 78.0683 13.42C78.7163 12.748 79.4843 12.22 80.3483 11.836C81.2123 11.452 82.1483 11.26 83.1563 11.26C84.1643 11.26 85.1003 11.452 85.9883 11.836C86.8763 12.22 87.6443 12.724 88.3163 13.372C88.9883 14.044 89.4923 14.812 89.8763 15.7C90.2603 16.612 90.4523 17.572 90.4523 18.604C90.4523 18.892 90.4283 19.156 90.4043 19.396C90.3563 19.66 90.3323 19.9 90.2843 20.14H92.9723V23.5H88.4843C87.8123 24.22 86.9963 24.796 86.0843 25.18C85.1723 25.588 84.1883 25.78 83.1563 25.78C82.1243 25.78 81.1643 25.588 80.2763 25.18C79.3643 24.772 78.5963 24.22 77.9243 23.5H73.8203V20.14ZM83.1563 22.42C83.6843 22.42 84.2123 22.324 84.6923 22.132C85.1723 21.94 85.5803 21.676 85.9403 21.34C86.3003 21.004 86.5883 20.596 86.7803 20.116C86.9723 19.636 87.0923 19.132 87.0923 18.556C87.0923 18.004 86.9963 17.476 86.8043 16.996C86.6123 16.516 86.3243 16.108 85.9883 15.748C85.6283 15.412 85.2203 15.124 84.7403 14.932C84.2603 14.74 83.7323 14.62 83.1563 14.62C82.5803 14.62 82.0763 14.74 81.6203 14.932C81.1403 15.148 80.7563 15.436 80.4203 15.772C80.0843 16.132 79.8203 16.54 79.6283 17.02C79.4363 17.5 79.3403 18.028 79.3403 18.556C79.3403 19.108 79.4363 19.612 79.6283 20.092C79.8203 20.572 80.0843 20.98 80.4203 21.316C80.7563 21.652 81.1643 21.94 81.6443 22.132C82.1003 22.324 82.6043 22.42 83.1563 22.42ZM92.5 20.14H94.852V4.036H99.772V7.396H98.212V23.5H92.5V20.14ZM103.847 4.036H107.207V23.5H103.847V4.036ZM117.035 20.14H125.411V16.468C125.411 15.988 125.339 15.58 125.243 15.22C125.147 14.86 124.979 14.548 124.763 14.26C124.547 13.996 124.259 13.78 123.899 13.612C123.539 13.444 123.155 13.348 122.723 13.348H121.283V9.988H122.387C123.467 9.988 124.427 10.132 125.243 10.42C126.059 10.708 126.755 11.164 127.379 11.788C127.883 12.34 128.243 13.036 128.459 13.876C128.651 14.716 128.771 15.628 128.771 16.612V20.14H131.363V23.5H117.035V20.14ZM132.882 6.388C132.882 5.308 133.146 4.54 133.674 4.084C134.202 3.652 134.946 3.412 135.906 3.412H137.346V4.492H136.098C135.618 4.492 135.282 4.612 135.09 4.804C134.898 5.02 134.802 5.308 134.802 5.692V6.34H138.114V8.14H132.882V6.388ZM130.914 20.14H133.89V9.988H137.25V23.5H130.914V20.14ZM141.815 4.036H145.175V23.5H141.815V4.036ZM147.809 20.14H156.185V16.468C156.185 15.988 156.113 15.58 156.017 15.22C155.921 14.86 155.753 14.548 155.537 14.26C155.321 13.996 155.033 13.78 154.673 13.612C154.313 13.444 153.929 13.348 153.497 13.348H152.057V9.988H153.161C154.241 9.988 155.201 10.132 156.017 10.42C156.833 10.708 157.529 11.164 158.153 11.788C158.657 12.34 159.017 13.036 159.233 13.876C159.425 14.716 159.545 15.628 159.545 16.612V20.14H162.137V23.5H147.809V20.14ZM161.688 20.14H164.304C164.016 19.588 163.776 18.964 163.584 18.292C163.392 17.62 163.296 16.9 163.296 16.132C163.296 14.98 163.512 13.972 163.968 13.108C164.4 12.244 164.976 11.524 165.696 10.948C166.248 10.492 166.896 10.132 167.64 9.892C168.384 9.652 169.2 9.532 170.064 9.532C170.952 9.532 171.792 9.652 172.608 9.892C173.424 10.132 174.24 10.444 175.056 10.852L173.928 13.9C173.4 13.612 172.848 13.372 172.224 13.18C171.6 12.988 171.024 12.868 170.472 12.868C169.368 12.868 168.48 13.156 167.855 13.684C167.424 14.068 167.112 14.476 166.944 14.932C166.752 15.388 166.68 15.868 166.68 16.396C166.68 17.164 166.776 17.86 167.016 18.484C167.232 19.108 167.544 19.66 167.952 20.14H175.56V23.5H161.688V20.14ZM199.248 20.14V23.5H193.2C192 23.5 190.896 23.38 189.888 23.092C188.88 22.828 188.016 22.42 187.296 21.844C186.576 21.292 186 20.596 185.592 19.732C185.184 18.892 184.992 17.908 184.992 16.756C184.992 15.796 185.16 14.884 185.544 14.068C185.904 13.252 186.432 12.532 187.152 11.932C187.848 11.332 188.712 10.852 189.72 10.516C190.728 10.18 191.904 9.988 193.2 9.988H193.68V8.788H197.04V20.14H199.248ZM193.68 20.14V13.348H192.384C191.88 13.348 191.4 13.444 190.92 13.588C190.44 13.732 190.008 13.948 189.624 14.236C189.24 14.524 188.928 14.884 188.688 15.316C188.448 15.748 188.352 16.228 188.352 16.756C188.352 17.332 188.448 17.812 188.664 18.22C188.88 18.652 189.168 18.988 189.528 19.276C189.888 19.564 190.296 19.78 190.776 19.924C191.232 20.068 191.712 20.14 192.216 20.14H193.68ZM195.024 7.012C194.496 7.012 194.064 6.868 193.704 6.58C193.32 6.292 193.152 5.86 193.152 5.284C193.152 4.78 193.32 4.372 193.68 4.06C194.04 3.748 194.496 3.58 195.024 3.58C195.552 3.58 196.008 3.748 196.368 4.06C196.704 4.372 196.896 4.78 196.896 5.284C196.896 5.86 196.704 6.292 196.344 6.58C195.96 6.868 195.528 7.012 195.024 7.012ZM189.816 7.012C189.288 7.012 188.856 6.868 188.496 6.58C188.112 6.292 187.944 5.86 187.944 5.284C187.944 4.78 188.112 4.372 188.472 4.06C188.832 3.748 189.288 3.58 189.816 3.58C190.344 3.58 190.776 3.748 191.136 4.06C191.496 4.372 191.688 4.78 191.688 5.284C191.688 5.86 191.496 6.292 191.136 6.58C190.752 6.868 190.32 7.012 189.816 7.012ZM198.789 20.14H213.741V17.572C213.741 17.092 213.669 16.684 213.573 16.324C213.477 15.964 213.309 15.652 213.093 15.364C212.877 15.1 212.589 14.884 212.229 14.692C211.869 14.524 211.485 14.428 211.053 14.428H201.021C200.709 14.044 200.445 13.564 200.229 13.012C200.013 12.46 199.893 11.812 199.869 11.092L203.757 4.036H207.357L203.637 11.092H210.717C211.797 11.092 212.757 11.236 213.573 11.524C214.389 11.812 215.085 12.268 215.709 12.892C216.213 13.444 216.573 14.14 216.789 14.98C216.981 15.82 217.101 16.732 217.101 17.716V23.5H198.789V20.14ZM221.047 28.78C220.711 28.78 220.399 28.78 220.111 28.732C219.799 28.684 219.535 28.636 219.343 28.564L219.103 25.204C219.415 25.3 219.703 25.348 219.943 25.372C220.183 25.42 220.423 25.42 220.687 25.42C221.359 25.42 221.815 25.252 222.079 24.868C222.343 24.508 222.487 23.908 222.487 23.068V9.988H225.847V20.14H228.439V23.5H225.823C225.727 25.372 225.295 26.716 224.551 27.532C223.783 28.372 222.631 28.78 221.047 28.78ZM227.969 20.14H233.201V11.188H236.561V20.14H239.009C239.345 20.14 239.705 20.116 240.089 20.02C240.473 19.924 240.809 19.78 241.121 19.54C241.433 19.3 241.697 18.988 241.889 18.604C242.081 18.22 242.177 17.74 242.177 17.14V11.188H245.537V16.996C245.537 18.148 245.801 19.012 246.353 19.564C246.905 20.116 247.649 20.38 248.561 20.38C249.521 20.38 250.241 20.116 250.721 19.564C251.201 19.036 251.441 18.292 251.441 17.356V8.308H254.777V16.924C254.777 19.252 254.249 20.98 253.241 22.084C252.209 23.188 250.649 23.74 248.561 23.74C248.081 23.74 247.625 23.716 247.193 23.644C246.737 23.572 246.305 23.452 245.897 23.26C245.465 23.092 245.081 22.852 244.721 22.564C244.361 22.276 244.049 21.892 243.785 21.436C243.161 22.084 242.441 22.588 241.625 22.948C240.785 23.332 239.921 23.5 239.009 23.5H227.969V20.14ZM246.401 7.804C245.921 7.804 245.489 7.684 245.129 7.396C244.769 7.108 244.601 6.7 244.601 6.124C244.601 5.644 244.769 5.236 245.105 4.924C245.441 4.636 245.873 4.468 246.401 4.468C246.929 4.468 247.361 4.636 247.697 4.924C248.033 5.236 248.225 5.644 248.225 6.124C248.225 6.7 248.033 7.108 247.673 7.396C247.313 7.684 246.881 7.804 246.401 7.804ZM241.313 7.804C240.833 7.804 240.401 7.684 240.041 7.396C239.681 7.108 239.513 6.7 239.513 6.124C239.513 5.644 239.681 5.236 240.017 4.924C240.353 4.636 240.785 4.468 241.313 4.468C241.817 4.468 242.249 4.636 242.609 4.924C242.945 5.236 243.137 5.644 243.137 6.124C243.137 6.7 242.945 7.108 242.585 7.396C242.201 7.684 241.793 7.804 241.313 7.804ZM243.857 3.988C243.425 3.988 243.065 3.868 242.729 3.628C242.393 3.388 242.249 3.004 242.249 2.524C242.249 2.092 242.393 1.756 242.705 1.468C242.993 1.204 243.377 1.06 243.857 1.06C244.313 1.06 244.697 1.204 245.009 1.468C245.297 1.756 245.465 2.092 245.465 2.524C245.465 3.004 245.297 3.388 244.985 3.628C244.649 3.868 244.289 3.988 243.857 3.988Z" fill="white"/>
<path d="M127.617 47.5H126.325L130.063 37.3182H131.336L135.075 47.5H133.782L130.74 38.929H130.66L127.617 47.5ZM128.095 43.5227H133.305V44.6165H128.095V43.5227ZM139.385 47.6591C138.749 47.6591 138.187 47.4983 137.7 47.1768C137.213 46.852 136.831 46.3946 136.556 45.8047C136.281 45.2114 136.144 44.5104 136.144 43.7017C136.144 42.8996 136.281 42.2036 136.556 41.6136C136.831 41.0237 137.214 40.5679 137.705 40.2464C138.195 39.925 138.762 39.7642 139.405 39.7642C139.902 39.7642 140.295 39.8471 140.583 40.0128C140.875 40.1752 141.097 40.3608 141.249 40.5696C141.405 40.7751 141.526 40.9441 141.612 41.0767H141.712V37.3182H142.885V47.5H141.752V46.3267H141.612C141.526 46.4659 141.404 46.6416 141.244 46.8537C141.085 47.0625 140.858 47.2498 140.563 47.4155C140.268 47.5779 139.876 47.6591 139.385 47.6591ZM139.544 46.6051C140.015 46.6051 140.413 46.4825 140.737 46.2372C141.062 45.9886 141.309 45.6456 141.478 45.2081C141.647 44.7673 141.732 44.2585 141.732 43.6818C141.732 43.1117 141.649 42.6129 141.483 42.1854C141.317 41.7545 141.072 41.4197 140.747 41.1811C140.423 40.9392 140.021 40.8182 139.544 40.8182C139.047 40.8182 138.633 40.9458 138.301 41.201C137.973 41.4529 137.726 41.7959 137.561 42.2301C137.398 42.661 137.317 43.1449 137.317 43.6818C137.317 44.2254 137.4 44.7192 137.566 45.1634C137.735 45.6042 137.983 45.9555 138.311 46.2173C138.643 46.4759 139.054 46.6051 139.544 46.6051ZM147.444 47.679C146.96 47.679 146.521 47.5878 146.127 47.4055C145.732 47.2199 145.419 46.9531 145.187 46.6051C144.955 46.2538 144.839 45.8295 144.839 45.3324C144.839 44.8949 144.925 44.5402 145.097 44.2685C145.27 43.9934 145.5 43.7779 145.789 43.6222C146.077 43.4664 146.395 43.3504 146.743 43.2741C147.094 43.1946 147.447 43.1316 147.802 43.0852C148.266 43.0256 148.642 42.9808 148.931 42.951C149.222 42.9179 149.434 42.8632 149.567 42.7869C149.703 42.7107 149.771 42.5781 149.771 42.3892V42.3494C149.771 41.8589 149.637 41.4777 149.368 41.206C149.103 40.9342 148.7 40.7983 148.16 40.7983C147.6 40.7983 147.161 40.9209 146.843 41.1662C146.524 41.4115 146.301 41.6733 146.171 41.9517L145.058 41.554C145.257 41.09 145.522 40.7287 145.853 40.4702C146.188 40.2083 146.552 40.026 146.947 39.9233C147.345 39.8172 147.736 39.7642 148.12 39.7642C148.365 39.7642 148.647 39.794 148.965 39.8537C149.287 39.91 149.597 40.0277 149.895 40.2067C150.197 40.3857 150.447 40.6558 150.646 41.017C150.845 41.3783 150.944 41.8622 150.944 42.4688V47.5H149.771V46.4659H149.711C149.632 46.6316 149.499 46.8089 149.313 46.9979C149.128 47.1868 148.881 47.3475 148.573 47.4801C148.264 47.6127 147.888 47.679 147.444 47.679ZM147.623 46.625C148.087 46.625 148.478 46.5339 148.796 46.3516C149.118 46.1693 149.36 45.9339 149.522 45.6456C149.688 45.3572 149.771 45.054 149.771 44.7358V43.6619C149.721 43.7216 149.612 43.7763 149.443 43.826C149.277 43.8724 149.085 43.9138 148.866 43.9503C148.651 43.9834 148.44 44.0133 148.235 44.0398C148.032 44.063 147.868 44.0829 147.742 44.0994C147.437 44.1392 147.152 44.2038 146.887 44.2933C146.625 44.3795 146.413 44.5104 146.251 44.6861C146.092 44.8584 146.012 45.0937 146.012 45.392C146.012 45.7997 146.163 46.108 146.465 46.3168C146.77 46.5223 147.156 46.625 147.623 46.625ZM153.086 47.5V39.8636H154.259V47.5H153.086ZM153.682 38.5909C153.453 38.5909 153.256 38.513 153.091 38.3572C152.928 38.2015 152.847 38.0142 152.847 37.7955C152.847 37.5767 152.928 37.3894 153.091 37.2337C153.256 37.0779 153.453 37 153.682 37C153.911 37 154.106 37.0779 154.269 37.2337C154.435 37.3894 154.517 37.5767 154.517 37.7955C154.517 38.0142 154.435 38.2015 154.269 38.3572C154.106 38.513 153.911 38.5909 153.682 38.5909ZM159.291 47.6591C158.655 47.6591 158.093 47.4983 157.606 47.1768C157.119 46.852 156.738 46.3946 156.463 45.8047C156.187 45.2114 156.05 44.5104 156.05 43.7017C156.05 42.8996 156.187 42.2036 156.463 41.6136C156.738 41.0237 157.12 40.5679 157.611 40.2464C158.102 39.925 158.668 39.7642 159.311 39.7642C159.808 39.7642 160.201 39.8471 160.49 40.0128C160.781 40.1752 161.003 40.3608 161.156 40.5696C161.311 40.7751 161.432 40.9441 161.519 41.0767H161.618V37.3182H162.791V47.5H161.658V46.3267H161.519C161.432 46.4659 161.31 46.6416 161.151 46.8537C160.992 47.0625 160.765 47.2498 160.47 47.4155C160.175 47.5779 159.782 47.6591 159.291 47.6591ZM159.45 46.6051C159.921 46.6051 160.319 46.4825 160.644 46.2372C160.968 45.9886 161.215 45.6456 161.384 45.2081C161.553 44.7673 161.638 44.2585 161.638 43.6818C161.638 43.1117 161.555 42.6129 161.389 42.1854C161.224 41.7545 160.978 41.4197 160.654 41.1811C160.329 40.9392 159.928 40.8182 159.45 40.8182C158.953 40.8182 158.539 40.9458 158.208 41.201C157.879 41.4529 157.633 41.7959 157.467 42.2301C157.304 42.661 157.223 43.1449 157.223 43.6818C157.223 44.2254 157.306 44.7192 157.472 45.1634C157.641 45.6042 157.889 45.9555 158.218 46.2173C158.549 46.4759 158.96 46.6051 159.45 46.6051ZM177.393 40.5H176.16C176.087 40.1454 175.959 39.8338 175.777 39.5653C175.598 39.2969 175.379 39.0715 175.121 38.8892C174.866 38.7036 174.582 38.5644 174.271 38.4716C173.959 38.3788 173.634 38.3324 173.296 38.3324C172.68 38.3324 172.121 38.4882 171.621 38.7997C171.124 39.1113 170.728 39.5703 170.433 40.1768C170.141 40.7834 169.995 41.5275 169.995 42.4091C169.995 43.2907 170.141 44.0348 170.433 44.6413C170.728 45.2479 171.124 45.7069 171.621 46.0185C172.121 46.33 172.68 46.4858 173.296 46.4858C173.634 46.4858 173.959 46.4394 174.271 46.3466C174.582 46.2538 174.866 46.1162 175.121 45.9339C175.379 45.7483 175.598 45.5213 175.777 45.2528C175.959 44.9811 176.087 44.6695 176.16 44.3182H177.393C177.3 44.8385 177.131 45.3042 176.886 45.7152C176.641 46.1262 176.336 46.4759 175.971 46.7642C175.606 47.0492 175.197 47.2663 174.743 47.4155C174.292 47.5646 173.81 47.6392 173.296 47.6392C172.428 47.6392 171.656 47.4271 170.98 47.0028C170.303 46.5786 169.771 45.9754 169.384 45.1932C168.996 44.411 168.802 43.483 168.802 42.4091C168.802 41.3352 168.996 40.4072 169.384 39.625C169.771 38.8428 170.303 38.2396 170.98 37.8153C171.656 37.3911 172.428 37.179 173.296 37.179C173.81 37.179 174.292 37.2536 174.743 37.4027C175.197 37.5518 175.606 37.7706 175.971 38.0589C176.336 38.344 176.641 38.692 176.886 39.103C177.131 39.5107 177.3 39.9763 177.393 40.5ZM182.328 47.6591C181.639 47.6591 181.034 47.495 180.514 47.1669C179.997 46.8388 179.592 46.3797 179.301 45.7898C179.012 45.1998 178.868 44.5104 178.868 43.7216C178.868 42.9261 179.012 42.2318 179.301 41.6385C179.592 41.0452 179.997 40.5845 180.514 40.2564C181.034 39.9283 181.639 39.7642 182.328 39.7642C183.018 39.7642 183.621 39.9283 184.138 40.2564C184.658 40.5845 185.063 41.0452 185.351 41.6385C185.643 42.2318 185.789 42.9261 185.789 43.7216C185.789 44.5104 185.643 45.1998 185.351 45.7898C185.063 46.3797 184.658 46.8388 184.138 47.1669C183.621 47.495 183.018 47.6591 182.328 47.6591ZM182.328 46.6051C182.852 46.6051 183.283 46.4709 183.621 46.2024C183.959 45.9339 184.209 45.581 184.372 45.1435C184.534 44.706 184.615 44.232 184.615 43.7216C184.615 43.2112 184.534 42.7356 184.372 42.2947C184.209 41.8539 183.959 41.4976 183.621 41.2259C183.283 40.9541 182.852 40.8182 182.328 40.8182C181.805 40.8182 181.374 40.9541 181.036 41.2259C180.698 41.4976 180.448 41.8539 180.285 42.2947C180.123 42.7356 180.042 43.2112 180.042 43.7216C180.042 44.232 180.123 44.706 180.285 45.1435C180.448 45.581 180.698 45.9339 181.036 46.2024C181.374 46.4709 181.805 46.6051 182.328 46.6051ZM187.58 47.5V39.8636H188.713V41.0568H188.813C188.972 40.6491 189.229 40.3326 189.583 40.1072C189.938 39.8786 190.364 39.7642 190.861 39.7642C191.365 39.7642 191.784 39.8786 192.119 40.1072C192.457 40.3326 192.72 40.6491 192.909 41.0568H192.989C193.184 40.6624 193.478 40.3492 193.869 40.1172C194.26 39.8819 194.729 39.7642 195.276 39.7642C195.959 39.7642 196.517 39.978 196.951 40.4055C197.385 40.8298 197.602 41.491 197.602 42.3892V47.5H196.429V42.3892C196.429 41.8258 196.275 41.4231 195.967 41.1811C195.659 40.9392 195.296 40.8182 194.878 40.8182C194.341 40.8182 193.925 40.9806 193.63 41.3054C193.335 41.6269 193.188 42.0346 193.188 42.5284V47.5H191.994V42.2699C191.994 41.8357 191.854 41.486 191.572 41.2209C191.29 40.9524 190.927 40.8182 190.483 40.8182C190.178 40.8182 189.893 40.8994 189.628 41.0618C189.366 41.2242 189.154 41.4496 188.992 41.7379C188.833 42.023 188.753 42.3527 188.753 42.7273V47.5H187.58ZM199.748 50.3636V39.8636H200.881V41.0767H201.02C201.107 40.9441 201.226 40.7751 201.378 40.5696C201.534 40.3608 201.756 40.1752 202.045 40.0128C202.336 39.8471 202.731 39.7642 203.228 39.7642C203.871 39.7642 204.438 39.925 204.928 40.2464C205.419 40.5679 205.801 41.0237 206.077 41.6136C206.352 42.2036 206.489 42.8996 206.489 43.7017C206.489 44.5104 206.352 45.2114 206.077 45.8047C205.801 46.3946 205.42 46.852 204.933 47.1768C204.446 47.4983 203.884 47.6591 203.248 47.6591C202.757 47.6591 202.364 47.5779 202.069 47.4155C201.774 47.2498 201.547 47.0625 201.388 46.8537C201.229 46.6416 201.107 46.4659 201.02 46.3267H200.921V50.3636H199.748ZM200.901 43.6818C200.901 44.2585 200.986 44.7673 201.155 45.2081C201.324 45.6456 201.571 45.9886 201.895 46.2372C202.22 46.4825 202.618 46.6051 203.089 46.6051C203.579 46.6051 203.988 46.4759 204.317 46.2173C204.648 45.9555 204.897 45.6042 205.062 45.1634C205.231 44.7192 205.316 44.2254 205.316 43.6818C205.316 43.1449 205.233 42.661 205.067 42.2301C204.905 41.7959 204.658 41.4529 204.327 41.201C203.998 40.9458 203.586 40.8182 203.089 40.8182C202.611 40.8182 202.21 40.9392 201.885 41.1811C201.561 41.4197 201.315 41.7545 201.15 42.1854C200.984 42.6129 200.901 43.1117 200.901 43.6818ZM210.526 47.679C210.042 47.679 209.603 47.5878 209.209 47.4055C208.814 47.2199 208.501 46.9531 208.269 46.6051C208.037 46.2538 207.921 45.8295 207.921 45.3324C207.921 44.8949 208.007 44.5402 208.18 44.2685C208.352 43.9934 208.582 43.7779 208.871 43.6222C209.159 43.4664 209.477 43.3504 209.825 43.2741C210.176 43.1946 210.529 43.1316 210.884 43.0852C211.348 43.0256 211.724 42.9808 212.013 42.951C212.304 42.9179 212.516 42.8632 212.649 42.7869C212.785 42.7107 212.853 42.5781 212.853 42.3892V42.3494C212.853 41.8589 212.719 41.4777 212.45 41.206C212.185 40.9342 211.782 40.7983 211.242 40.7983C210.682 40.7983 210.243 40.9209 209.925 41.1662C209.606 41.4115 209.383 41.6733 209.253 41.9517L208.14 41.554C208.339 41.09 208.604 40.7287 208.935 40.4702C209.27 40.2083 209.635 40.026 210.029 39.9233C210.427 39.8172 210.818 39.7642 211.202 39.7642C211.448 39.7642 211.729 39.794 212.047 39.8537C212.369 39.91 212.679 40.0277 212.977 40.2067C213.279 40.3857 213.529 40.6558 213.728 41.017C213.927 41.3783 214.026 41.8622 214.026 42.4688V47.5H212.853V46.4659H212.793C212.714 46.6316 212.581 46.8089 212.395 46.9979C212.21 47.1868 211.963 47.3475 211.655 47.4801C211.346 47.6127 210.97 47.679 210.526 47.679ZM210.705 46.625C211.169 46.625 211.56 46.5339 211.878 46.3516C212.2 46.1693 212.442 45.9339 212.604 45.6456C212.77 45.3572 212.853 45.054 212.853 44.7358V43.6619C212.803 43.7216 212.694 43.7763 212.525 43.826C212.359 43.8724 212.167 43.9138 211.948 43.9503C211.733 43.9834 211.522 44.0133 211.317 44.0398C211.114 44.063 210.95 44.0829 210.824 44.0994C210.519 44.1392 210.234 44.2038 209.969 44.2933C209.707 44.3795 209.495 44.5104 209.333 44.6861C209.174 44.8584 209.094 45.0937 209.094 45.392C209.094 45.7997 209.245 46.108 209.547 46.3168C209.852 46.5223 210.238 46.625 210.705 46.625ZM217.341 42.9062V47.5H216.168V39.8636H217.301V41.0568H217.401C217.58 40.669 217.851 40.3575 218.216 40.1222C218.58 39.8835 219.051 39.7642 219.628 39.7642C220.145 39.7642 220.597 39.8703 220.985 40.0824C221.373 40.2912 221.674 40.6094 221.89 41.0369C222.105 41.4612 222.213 41.9981 222.213 42.6477V47.5H221.04V42.7273C221.04 42.1274 220.884 41.66 220.572 41.3253C220.261 40.9872 219.833 40.8182 219.29 40.8182C218.915 40.8182 218.58 40.8994 218.286 41.0618C217.994 41.2242 217.763 41.4612 217.594 41.7727C217.425 42.0843 217.341 42.4621 217.341 42.9062ZM224.839 50.3636C224.64 50.3636 224.463 50.3471 224.307 50.3139C224.152 50.2841 224.044 50.2543 223.984 50.2244L224.282 49.1903C224.568 49.2633 224.819 49.2898 225.038 49.2699C225.257 49.25 225.451 49.1522 225.62 48.9766C225.792 48.8042 225.95 48.5241 226.092 48.1364L226.311 47.5398L223.487 39.8636H224.76L226.868 45.9489H226.947L229.055 39.8636H230.328L227.086 48.6136C226.941 49.008 226.76 49.3345 226.545 49.593C226.329 49.8549 226.079 50.0488 225.794 50.1747C225.512 50.3007 225.194 50.3636 224.839 50.3636ZM235.973 47.5V37.3182H237.206V46.4062H241.939V47.5H235.973ZM246.696 39.8636V40.858H242.738V39.8636H246.696ZM243.892 38.0341H245.065V45.3125C245.065 45.6439 245.113 45.8925 245.209 46.0582C245.309 46.2206 245.435 46.33 245.587 46.3864C245.743 46.4394 245.907 46.4659 246.079 46.4659C246.208 46.4659 246.315 46.4593 246.397 46.446C246.48 46.4295 246.547 46.4162 246.596 46.4062L246.835 47.4602C246.755 47.4901 246.644 47.5199 246.502 47.5497C246.359 47.5829 246.179 47.5994 245.96 47.5994C245.628 47.5994 245.304 47.5282 244.985 47.3857C244.671 47.2431 244.409 47.026 244.2 46.7344C243.994 46.4427 243.892 46.0748 243.892 45.6307V38.0341ZM251.262 47.6591C250.626 47.6591 250.064 47.4983 249.577 47.1768C249.089 46.852 248.708 46.3946 248.433 45.8047C248.158 45.2114 248.021 44.5104 248.021 43.7017C248.021 42.8996 248.158 42.2036 248.433 41.6136C248.708 41.0237 249.091 40.5679 249.582 40.2464C250.072 39.925 250.639 39.7642 251.282 39.7642C251.779 39.7642 252.172 39.8471 252.46 40.0128C252.752 40.1752 252.974 40.3608 253.126 40.5696C253.282 40.7751 253.403 40.9441 253.489 41.0767H253.589V37.3182H254.762V47.5H253.629V46.3267H253.489C253.403 46.4659 253.281 46.6416 253.121 46.8537C252.962 47.0625 252.735 47.2498 252.44 47.4155C252.145 47.5779 251.753 47.6591 251.262 47.6591ZM251.421 46.6051C251.892 46.6051 252.29 46.4825 252.614 46.2372C252.939 45.9886 253.186 45.6456 253.355 45.2081C253.524 44.7673 253.609 44.2585 253.609 43.6818C253.609 43.1117 253.526 42.6129 253.36 42.1854C253.194 41.7545 252.949 41.4197 252.624 41.1811C252.299 40.9392 251.898 40.8182 251.421 40.8182C250.924 40.8182 250.51 40.9458 250.178 41.201C249.85 41.4529 249.603 41.7959 249.438 42.2301C249.275 42.661 249.194 43.1449 249.194 43.6818C249.194 44.2254 249.277 44.7192 249.442 45.1634C249.612 45.6042 249.86 45.9555 250.188 46.2173C250.52 46.4759 250.931 46.6051 251.421 46.6051Z" fill="white" fill-opacity="0.7"/>
<path d="M268 12C268 6.47715 272.477 2 278 2H306C311.523 2 316 6.47715 316 12V40C316 45.5229 311.523 50 306 50H278C272.477 50 268 45.5228 268 40V12Z" fill="white" fill-opacity="0.1"/>
<path d="M285 37.6663V16.6663C285 16.0475 285.246 15.454 285.683 15.0164C286.121 14.5788 286.714 14.333 287.333 14.333H296.667C297.286 14.333 297.879 14.5788 298.317 15.0164C298.754 15.454 299 16.0475 299 16.6663V37.6663H285Z" stroke="white" stroke-width="2.33333" stroke-linecap="round" stroke-linejoin="round"/>
<path d="M285 26H282.667C282.048 26 281.454 26.2458 281.017 26.6834C280.579 27.121 280.333 27.7145 280.333 28.3333V35.3333C280.333 35.9522 280.579 36.5457 281.017 36.9832C281.454 37.4208 282.048 37.6667 282.667 37.6667H285" stroke="white" stroke-width="2.33333" stroke-linecap="round" stroke-linejoin="round"/>
<path d="M299 22.5H301.333C301.952 22.5 302.546 22.7458 302.983 23.1834C303.421 23.621 303.667 24.2145 303.667 24.8333V35.3333C303.667 35.9522 303.421 36.5457 302.983 36.9832C302.546 37.4208 301.952 37.6667 301.333 37.6667H299" stroke="white" stroke-width="2.33333" stroke-linecap="round" stroke-linejoin="round"/>
<path d="M289.667 19H294.333" stroke="white" stroke-width="2.33333" stroke-linecap="round" stroke-linejoin="round"/>
<path d="M289.667 23.667H294.333" stroke="white" stroke-width="2.33333" stroke-linecap="round" stroke-linejoin="round"/>
<path d="M289.667 28.333H294.333" stroke="white" stroke-width="2.33333" stroke-linecap="round" stroke-linejoin="round"/>
<path d="M289.667 33H294.333" stroke="white" stroke-width="2.33333" stroke-linecap="round" stroke-linejoin="round"/>
</svg>
