<svg width="316" height="52" viewBox="0 0 316 52" fill="none" xmlns="http://www.w3.org/2000/svg">
<path d="M9.778 22.5C8.578 22.5 7.474 22.38 6.466 22.092C5.458 21.828 4.594 21.42 3.874 20.844C3.154 20.292 2.578 19.596 2.17 18.732C1.762 17.892 1.57 16.908 1.57 15.756C1.57 14.796 1.738 13.884 2.122 13.068C2.482 12.252 3.01 11.532 3.73 10.932C4.426 10.332 5.29 9.852 6.298 9.516C7.306 9.18 8.482 8.988 9.778 8.988H10.258V7.788H13.618V22.5H9.778ZM10.258 19.14V12.348H8.962C8.458 12.348 7.978 12.444 7.498 12.588C7.018 12.732 6.586 12.948 6.202 13.236C5.818 13.524 5.506 13.884 5.266 14.316C5.026 14.748 4.93 15.228 4.93 15.756C4.93 16.332 5.026 16.812 5.242 17.22C5.458 17.652 5.746 17.988 6.106 18.276C6.466 18.564 6.874 18.78 7.354 18.924C7.81 19.068 8.29 19.14 8.794 19.14H10.258ZM11.602 6.012C11.074 6.012 10.642 5.868 10.282 5.58C9.898 5.292 9.73 4.86 9.73 4.284C9.73 3.78 9.898 3.372 10.258 3.06C10.618 2.748 11.074 2.58 11.602 2.58C12.13 2.58 12.586 2.748 12.946 3.06C13.282 3.372 13.474 3.78 13.474 4.284C13.474 4.86 13.282 5.292 12.922 5.58C12.538 5.868 12.106 6.012 11.602 6.012ZM6.394 6.012C5.866 6.012 5.434 5.868 5.074 5.58C4.69 5.292 4.522 4.86 4.522 4.284C4.522 3.78 4.69 3.372 5.05 3.06C5.41 2.748 5.866 2.58 6.394 2.58C6.922 2.58 7.354 2.748 7.714 3.06C8.074 3.372 8.266 3.78 8.266 4.284C8.266 4.86 8.074 5.292 7.714 5.58C7.33 5.868 6.898 6.012 6.394 6.012ZM15.8088 19.14H24.1848V15.468C24.1848 14.988 24.1128 14.58 24.0168 14.22C23.9208 13.86 23.7528 13.548 23.5368 13.26C23.3208 12.996 23.0328 12.78 22.6728 12.612C22.3128 12.444 21.9288 12.348 21.4968 12.348H20.0568V8.988H21.1608C22.2408 8.988 23.2008 9.132 24.0168 9.42C24.8328 9.708 25.5288 10.164 26.1528 10.788C26.6568 11.34 27.0168 12.036 27.2328 12.876C27.4248 13.716 27.5448 14.628 27.5448 15.612V22.5H15.8088V19.14ZM42.0934 21.588C42.0934 22.5 41.9734 23.34 41.7814 24.108C41.5894 24.876 41.2534 25.524 40.7734 26.052C40.2934 26.604 39.6694 27.036 38.8774 27.324C38.0854 27.636 37.1014 27.78 35.9254 27.78C35.5894 27.78 35.3014 27.78 35.0374 27.756C34.7494 27.732 34.4854 27.684 34.2214 27.636C33.9574 27.588 33.6934 27.54 33.4054 27.468L32.4214 27.204L32.1814 23.82C32.8294 24.036 33.4294 24.18 34.0054 24.276C34.5574 24.372 35.1094 24.42 35.6854 24.42C36.1414 24.42 36.5494 24.42 36.9094 24.372C37.2454 24.324 37.5574 24.252 37.7974 24.108C38.0374 23.964 38.2534 23.772 38.3974 23.508C38.5414 23.268 38.6614 22.932 38.7094 22.5H38.3254C37.1734 22.5 36.0934 22.38 35.0854 22.116C34.0774 21.876 33.2134 21.468 32.4694 20.916C31.7254 20.388 31.1494 19.692 30.7174 18.828C30.2854 17.964 30.0934 16.932 30.0934 15.732C30.0934 14.676 30.2854 13.74 30.6934 12.9C31.1014 12.084 31.6774 11.364 32.3974 10.788C33.1174 10.212 34.0054 9.78 35.0134 9.468C36.0214 9.156 37.1254 8.988 38.3254 8.988H42.1174L42.0934 21.588ZM33.4534 15.732C33.4534 16.308 33.5494 16.788 33.7414 17.22C33.9334 17.652 34.2214 17.988 34.5814 18.276C34.9174 18.564 35.3254 18.78 35.8054 18.924C36.2854 19.068 36.7894 19.14 37.3414 19.14H38.7574V12.348H37.3414C36.8374 12.348 36.3574 12.444 35.8774 12.588C35.3974 12.756 34.9894 12.996 34.6294 13.284C34.2694 13.572 33.9814 13.932 33.7654 14.34C33.5494 14.772 33.4534 15.228 33.4534 15.732ZM44.4025 19.14H52.7785V15.468C52.7785 14.988 52.7065 14.58 52.6105 14.22C52.5145 13.86 52.3465 13.548 52.1305 13.26C51.9145 12.996 51.6265 12.78 51.2665 12.612C50.9065 12.444 50.5225 12.348 50.0905 12.348H48.6505V8.988H49.7545C50.8345 8.988 51.7945 9.132 52.6105 9.42C53.4265 9.708 54.1225 10.164 54.7465 10.788C55.2505 11.34 55.6105 12.036 55.8265 12.876C56.0185 13.716 56.1385 14.628 56.1385 15.612V19.14H58.7305V22.5H44.4025V19.14ZM58.2812 19.14H68.2413C68.3613 18.612 68.4573 18.036 68.5293 17.412C68.6013 16.788 68.6493 16.236 68.6493 15.708C68.6493 15.228 68.5533 14.7 68.3613 14.172C68.1693 13.644 67.8813 13.188 67.4733 12.804C66.7773 12.204 65.8413 11.892 64.6413 11.892C63.9933 11.892 63.4173 11.988 62.8893 12.132C62.3613 12.276 61.7853 12.564 61.1613 12.948L59.7693 10.02C60.5373 9.588 61.3773 9.228 62.2413 8.94C63.1053 8.676 64.0413 8.532 65.0493 8.532C66.0333 8.532 66.9213 8.7 67.7373 9.012C68.5533 9.348 69.2493 9.804 69.8253 10.38C70.4493 11.028 70.9773 11.82 71.3853 12.756C71.7693 13.692 71.9853 14.772 71.9853 15.972C71.9853 16.524 71.9373 17.052 71.8893 17.58C71.8412 18.108 71.7693 18.636 71.6733 19.14H74.2653V22.5H58.2812V19.14ZM73.8203 19.14H76.1483C76.0763 18.9 76.0283 18.66 76.0043 18.396C75.9803 18.156 75.9803 17.892 75.9803 17.604C75.9803 16.596 76.1483 15.636 76.5323 14.748C76.9163 13.86 77.4203 13.092 78.0683 12.42C78.7163 11.748 79.4843 11.22 80.3483 10.836C81.2123 10.452 82.1483 10.26 83.1563 10.26C84.1643 10.26 85.1003 10.452 85.9883 10.836C86.8763 11.22 87.6443 11.724 88.3163 12.372C88.9883 13.044 89.4923 13.812 89.8763 14.7C90.2603 15.612 90.4523 16.572 90.4523 17.604C90.4523 17.892 90.4283 18.156 90.4043 18.396C90.3563 18.66 90.3323 18.9 90.2843 19.14H92.9723V22.5H88.4843C87.8123 23.22 86.9963 23.796 86.0843 24.18C85.1723 24.588 84.1883 24.78 83.1563 24.78C82.1243 24.78 81.1643 24.588 80.2763 24.18C79.3643 23.772 78.5963 23.22 77.9243 22.5H73.8203V19.14ZM83.1563 21.42C83.6843 21.42 84.2123 21.324 84.6923 21.132C85.1723 20.94 85.5803 20.676 85.9403 20.34C86.3003 20.004 86.5883 19.596 86.7803 19.116C86.9723 18.636 87.0923 18.132 87.0923 17.556C87.0923 17.004 86.9963 16.476 86.8043 15.996C86.6123 15.516 86.3243 15.108 85.9883 14.748C85.6283 14.412 85.2203 14.124 84.7403 13.932C84.2603 13.74 83.7323 13.62 83.1563 13.62C82.5803 13.62 82.0763 13.74 81.6203 13.932C81.1403 14.148 80.7563 14.436 80.4203 14.772C80.0843 15.132 79.8203 15.54 79.6283 16.02C79.4363 16.5 79.3403 17.028 79.3403 17.556C79.3403 18.108 79.4363 18.612 79.6283 19.092C79.8203 19.572 80.0843 19.98 80.4203 20.316C80.7563 20.652 81.1643 20.94 81.6443 21.132C82.1003 21.324 82.6043 21.42 83.1563 21.42ZM92.5 19.14H94.852V3.036H99.772V6.396H98.212V22.5H92.5V19.14ZM103.847 3.036H107.207V22.5H103.847V3.036ZM117.035 19.14H125.411V15.468C125.411 14.988 125.339 14.58 125.243 14.22C125.147 13.86 124.979 13.548 124.763 13.26C124.547 12.996 124.259 12.78 123.899 12.612C123.539 12.444 123.155 12.348 122.723 12.348H121.283V8.988H122.387C123.467 8.988 124.427 9.132 125.243 9.42C126.059 9.708 126.755 10.164 127.379 10.788C127.883 11.34 128.243 12.036 128.459 12.876C128.651 13.716 128.771 14.628 128.771 15.612V19.14H131.363V22.5H117.035V19.14ZM132.882 5.388C132.882 4.308 133.146 3.54 133.674 3.084C134.202 2.652 134.946 2.412 135.906 2.412H137.346V3.492H136.098C135.618 3.492 135.282 3.612 135.09 3.804C134.898 4.02 134.802 4.308 134.802 4.692V5.34H138.114V7.14H132.882V5.388ZM130.914 19.14H133.89V8.988H137.25V22.5H130.914V19.14ZM141.815 3.036H145.175V22.5H141.815V3.036ZM147.809 19.14H156.185V15.468C156.185 14.988 156.113 14.58 156.017 14.22C155.921 13.86 155.753 13.548 155.537 13.26C155.321 12.996 155.033 12.78 154.673 12.612C154.313 12.444 153.929 12.348 153.497 12.348H152.057V8.988H153.161C154.241 8.988 155.201 9.132 156.017 9.42C156.833 9.708 157.529 10.164 158.153 10.788C158.657 11.34 159.017 12.036 159.233 12.876C159.425 13.716 159.545 14.628 159.545 15.612V19.14H162.137V22.5H147.809V19.14ZM161.688 19.14H164.304C164.016 18.588 163.776 17.964 163.584 17.292C163.392 16.62 163.296 15.9 163.296 15.132C163.296 13.98 163.512 12.972 163.968 12.108C164.4 11.244 164.976 10.524 165.696 9.948C166.248 9.492 166.896 9.132 167.64 8.892C168.384 8.652 169.2 8.532 170.064 8.532C170.952 8.532 171.792 8.652 172.608 8.892C173.424 9.132 174.24 9.444 175.056 9.852L173.928 12.9C173.4 12.612 172.848 12.372 172.224 12.18C171.6 11.988 171.024 11.868 170.472 11.868C169.368 11.868 168.48 12.156 167.855 12.684C167.424 13.068 167.112 13.476 166.944 13.932C166.752 14.388 166.68 14.868 166.68 15.396C166.68 16.164 166.776 16.86 167.016 17.484C167.232 18.108 167.544 18.66 167.952 19.14H175.56V22.5H161.688V19.14ZM199.248 19.14V22.5H193.2C192 22.5 190.896 22.38 189.888 22.092C188.88 21.828 188.016 21.42 187.296 20.844C186.576 20.292 186 19.596 185.592 18.732C185.184 17.892 184.992 16.908 184.992 15.756C184.992 14.796 185.16 13.884 185.544 13.068C185.904 12.252 186.432 11.532 187.152 10.932C187.848 10.332 188.712 9.852 189.72 9.516C190.728 9.18 191.904 8.988 193.2 8.988H193.68V7.788H197.04V19.14H199.248ZM193.68 19.14V12.348H192.384C191.88 12.348 191.4 12.444 190.92 12.588C190.44 12.732 190.008 12.948 189.624 13.236C189.24 13.524 188.928 13.884 188.688 14.316C188.448 14.748 188.352 15.228 188.352 15.756C188.352 16.332 188.448 16.812 188.664 17.22C188.88 17.652 189.168 17.988 189.528 18.276C189.888 18.564 190.296 18.78 190.776 18.924C191.232 19.068 191.712 19.14 192.216 19.14H193.68ZM195.024 6.012C194.496 6.012 194.064 5.868 193.704 5.58C193.32 5.292 193.152 4.86 193.152 4.284C193.152 3.78 193.32 3.372 193.68 3.06C194.04 2.748 194.496 2.58 195.024 2.58C195.552 2.58 196.008 2.748 196.368 3.06C196.704 3.372 196.896 3.78 196.896 4.284C196.896 4.86 196.704 5.292 196.344 5.58C195.96 5.868 195.528 6.012 195.024 6.012ZM189.816 6.012C189.288 6.012 188.856 5.868 188.496 5.58C188.112 5.292 187.944 4.86 187.944 4.284C187.944 3.78 188.112 3.372 188.472 3.06C188.832 2.748 189.288 2.58 189.816 2.58C190.344 2.58 190.776 2.748 191.136 3.06C191.496 3.372 191.688 3.78 191.688 4.284C191.688 4.86 191.496 5.292 191.136 5.58C190.752 5.868 190.32 6.012 189.816 6.012ZM198.789 19.14H213.741V16.572C213.741 16.092 213.669 15.684 213.573 15.324C213.477 14.964 213.309 14.652 213.093 14.364C212.877 14.1 212.589 13.884 212.229 13.692C211.869 13.524 211.485 13.428 211.053 13.428H201.021C200.709 13.044 200.445 12.564 200.229 12.012C200.013 11.46 199.893 10.812 199.869 10.092L203.757 3.036H207.357L203.637 10.092H210.717C211.797 10.092 212.757 10.236 213.573 10.524C214.389 10.812 215.085 11.268 215.709 11.892C216.213 12.444 216.573 13.14 216.789 13.98C216.981 14.82 217.101 15.732 217.101 16.716V22.5H198.789V19.14ZM221.047 27.78C220.711 27.78 220.399 27.78 220.111 27.732C219.799 27.684 219.535 27.636 219.343 27.564L219.103 24.204C219.415 24.3 219.703 24.348 219.943 24.372C220.183 24.42 220.423 24.42 220.687 24.42C221.359 24.42 221.815 24.252 222.079 23.868C222.343 23.508 222.487 22.908 222.487 22.068V8.988H225.847V19.14H228.439V22.5H225.823C225.727 24.372 225.295 25.716 224.551 26.532C223.783 27.372 222.631 27.78 221.047 27.78ZM227.969 19.14H233.201V10.188H236.561V19.14H239.009C239.345 19.14 239.705 19.116 240.089 19.02C240.473 18.924 240.809 18.78 241.121 18.54C241.433 18.3 241.697 17.988 241.889 17.604C242.081 17.22 242.177 16.74 242.177 16.14V10.188H245.537V15.996C245.537 17.148 245.801 18.012 246.353 18.564C246.905 19.116 247.649 19.38 248.561 19.38C249.521 19.38 250.241 19.116 250.721 18.564C251.201 18.036 251.441 17.292 251.441 16.356V7.308H254.777V15.924C254.777 18.252 254.249 19.98 253.241 21.084C252.209 22.188 250.649 22.74 248.561 22.74C248.081 22.74 247.625 22.716 247.193 22.644C246.737 22.572 246.305 22.452 245.897 22.26C245.465 22.092 245.081 21.852 244.721 21.564C244.361 21.276 244.049 20.892 243.785 20.436C243.161 21.084 242.441 21.588 241.625 21.948C240.785 22.332 239.921 22.5 239.009 22.5H227.969V19.14ZM246.401 6.804C245.921 6.804 245.489 6.684 245.129 6.396C244.769 6.108 244.601 5.7 244.601 5.124C244.601 4.644 244.769 4.236 245.105 3.924C245.441 3.636 245.873 3.468 246.401 3.468C246.929 3.468 247.361 3.636 247.697 3.924C248.033 4.236 248.225 4.644 248.225 5.124C248.225 5.7 248.033 6.108 247.673 6.396C247.313 6.684 246.881 6.804 246.401 6.804ZM241.313 6.804C240.833 6.804 240.401 6.684 240.041 6.396C239.681 6.108 239.513 5.7 239.513 5.124C239.513 4.644 239.681 4.236 240.017 3.924C240.353 3.636 240.785 3.468 241.313 3.468C241.817 3.468 242.249 3.636 242.609 3.924C242.945 4.236 243.137 4.644 243.137 5.124C243.137 5.7 242.945 6.108 242.585 6.396C242.201 6.684 241.793 6.804 241.313 6.804ZM243.857 2.988C243.425 2.988 243.065 2.868 242.729 2.628C242.393 2.388 242.249 2.004 242.249 1.524C242.249 1.092 242.393 0.756 242.705 0.467999C242.993 0.204 243.377 0.0599985 243.857 0.0599985C244.313 0.0599985 244.697 0.204 245.009 0.467999C245.297 0.756 245.465 1.092 245.465 1.524C245.465 2.004 245.297 2.388 244.985 2.628C244.649 2.868 244.289 2.988 243.857 2.988Z" fill="white"/>
<path d="M119.323 48.682H118.203L116.719 44.986H111.567L110.083 48.682H108.963L113.667 36.964H114.619L119.323 48.682ZM111.973 43.964H116.313L114.143 38.588L111.973 43.964ZM120.985 44.818C120.985 45.77 121.251 46.512 121.811 47.044C122.357 47.576 123.211 47.842 124.373 47.842C124.625 47.842 124.891 47.828 125.171 47.786C125.451 47.744 125.717 47.702 125.955 47.646V41.92C125.661 41.85 125.381 41.794 125.101 41.766C124.821 41.738 124.569 41.724 124.373 41.724C123.785 41.724 123.281 41.808 122.861 41.948C122.441 42.088 122.091 42.298 121.811 42.564C121.531 42.844 121.321 43.166 121.181 43.544C121.041 43.922 120.985 44.342 120.985 44.818ZM125.955 36.964H126.949V48.43C126.487 48.57 126.039 48.668 125.591 48.724C125.143 48.794 124.751 48.822 124.401 48.822C123.645 48.822 122.987 48.724 122.427 48.514C121.867 48.304 121.391 48.024 121.027 47.66C120.649 47.296 120.369 46.876 120.187 46.386C120.005 45.896 119.921 45.378 119.921 44.818C119.921 44.272 120.005 43.754 120.187 43.25C120.369 42.76 120.649 42.326 121.027 41.948C121.391 41.584 121.867 41.29 122.427 41.066C122.987 40.856 123.645 40.744 124.401 40.744C124.821 40.744 125.339 40.8 125.955 40.898V36.964ZM132.505 48.822C132.057 48.822 131.623 48.78 131.203 48.696C130.783 48.612 130.419 48.486 130.097 48.29C129.775 48.108 129.509 47.856 129.313 47.534C129.117 47.226 129.019 46.834 129.019 46.372C129.019 45.448 129.369 44.79 130.097 44.384C130.811 43.992 131.763 43.782 132.953 43.782C133.177 43.782 133.429 43.796 133.737 43.824C134.045 43.852 134.297 43.88 134.521 43.908V43.824C134.521 43.068 134.339 42.536 133.989 42.214C133.625 41.892 133.079 41.724 132.351 41.724C132.141 41.724 131.931 41.752 131.707 41.78C131.483 41.822 131.273 41.864 131.049 41.92C130.825 41.976 130.629 42.046 130.433 42.13C130.237 42.214 129.957 42.354 129.607 42.55L129.649 41.43C130.139 41.178 130.629 41.01 131.105 40.898C131.581 40.8 132.015 40.744 132.421 40.744C133.457 40.744 134.227 40.982 134.745 41.458C135.249 41.934 135.515 42.676 135.515 43.698V48.248C135.039 48.444 134.549 48.598 134.045 48.682C133.541 48.78 133.023 48.822 132.505 48.822ZM134.521 44.916C134.381 44.888 134.143 44.86 133.793 44.818C133.443 44.79 133.121 44.762 132.813 44.762C132.449 44.762 132.113 44.79 131.777 44.832C131.441 44.888 131.147 44.958 130.895 45.07C130.643 45.182 130.433 45.35 130.293 45.546C130.153 45.742 130.083 46.008 130.083 46.344C130.083 46.652 130.139 46.89 130.265 47.072C130.377 47.268 130.545 47.422 130.755 47.534C130.951 47.646 131.203 47.73 131.497 47.772C131.791 47.828 132.099 47.842 132.435 47.842C132.813 47.842 133.191 47.814 133.583 47.744C133.961 47.688 134.269 47.604 134.521 47.506V44.916ZM141.123 47.842C141.711 47.842 142.215 47.786 142.635 47.646C143.055 47.52 143.489 47.324 143.909 47.072L144.385 47.982C143.895 48.262 143.405 48.472 142.915 48.612C142.425 48.752 141.823 48.822 141.123 48.822C140.549 48.822 140.031 48.724 139.555 48.514C139.079 48.318 138.659 48.038 138.309 47.674C137.945 47.31 137.665 46.89 137.469 46.4C137.273 45.91 137.175 45.378 137.175 44.79C137.175 44.202 137.273 43.656 137.483 43.166C137.679 42.676 137.959 42.256 138.323 41.892C138.687 41.528 139.107 41.248 139.583 41.052C140.059 40.856 140.563 40.744 141.123 40.744C141.683 40.744 142.187 40.842 142.649 41.038C143.097 41.234 143.489 41.5 143.825 41.864C144.161 42.228 144.413 42.662 144.609 43.166C144.791 43.67 144.889 44.3 144.903 45.042H138.239C138.239 45.35 138.323 45.7 138.463 46.064C138.603 46.428 138.799 46.75 139.051 47.002C139.303 47.268 139.611 47.478 139.961 47.618C140.311 47.772 140.703 47.842 141.123 47.842ZM141.123 41.724C140.703 41.724 140.339 41.794 140.003 41.92C139.667 42.06 139.387 42.242 139.163 42.466C138.925 42.69 138.729 42.97 138.589 43.278C138.435 43.586 138.337 43.852 138.309 44.076H143.769C143.741 43.824 143.643 43.53 143.503 43.222C143.363 42.914 143.167 42.634 142.943 42.41C142.719 42.186 142.453 42.018 142.145 41.906C141.837 41.794 141.487 41.724 141.123 41.724ZM147.112 44.818C147.112 45.77 147.378 46.512 147.938 47.044C148.484 47.576 149.338 47.842 150.5 47.842C150.752 47.842 151.018 47.828 151.298 47.786C151.578 47.744 151.844 47.702 152.082 47.646V41.92C151.788 41.85 151.508 41.794 151.228 41.766C150.948 41.738 150.696 41.724 150.5 41.724C149.912 41.724 149.408 41.808 148.988 41.948C148.568 42.088 148.218 42.298 147.938 42.564C147.658 42.844 147.448 43.166 147.308 43.544C147.168 43.922 147.112 44.342 147.112 44.818ZM152.082 36.964H153.076V48.43C152.614 48.57 152.166 48.668 151.718 48.724C151.27 48.794 150.878 48.822 150.528 48.822C149.772 48.822 149.114 48.724 148.554 48.514C147.994 48.304 147.518 48.024 147.154 47.66C146.776 47.296 146.496 46.876 146.314 46.386C146.132 45.896 146.048 45.378 146.048 44.818C146.048 44.272 146.132 43.754 146.314 43.25C146.496 42.76 146.776 42.326 147.154 41.948C147.518 41.584 147.994 41.29 148.554 41.066C149.114 40.856 149.772 40.744 150.528 40.744C150.948 40.744 151.466 40.8 152.082 40.898V36.964ZM165.633 37.79C164.975 37.79 164.359 37.902 163.771 38.126C163.183 38.35 162.679 38.686 162.231 39.106C161.783 39.54 161.433 40.072 161.181 40.688C160.915 41.304 160.789 42.018 160.789 42.816C160.789 43.628 160.915 44.342 161.181 44.958C161.433 45.574 161.783 46.106 162.231 46.526C162.679 46.96 163.183 47.282 163.771 47.506C164.359 47.73 164.975 47.842 165.633 47.842C166.277 47.842 166.865 47.772 167.425 47.618C167.971 47.464 168.517 47.226 169.049 46.904L169.511 47.786C168.909 48.15 168.293 48.416 167.663 48.584C167.019 48.752 166.347 48.822 165.633 48.822C164.709 48.822 163.883 48.668 163.155 48.36C162.427 48.052 161.797 47.618 161.293 47.072C160.789 46.54 160.397 45.896 160.117 45.168C159.837 44.44 159.711 43.656 159.711 42.816C159.711 41.99 159.837 41.206 160.117 40.478C160.397 39.75 160.789 39.106 161.293 38.56C161.797 38.028 162.427 37.594 163.155 37.286C163.883 36.978 164.709 36.81 165.633 36.81C166.347 36.81 167.019 36.894 167.663 37.062C168.293 37.23 168.909 37.482 169.511 37.846L169.049 38.728C168.517 38.42 167.971 38.182 167.425 38.028C166.865 37.874 166.277 37.79 165.633 37.79ZM174.167 48.822C173.607 48.822 173.075 48.724 172.599 48.514C172.123 48.304 171.703 48.01 171.353 47.646C170.989 47.282 170.709 46.848 170.513 46.358C170.317 45.882 170.219 45.35 170.219 44.79C170.219 44.23 170.317 43.712 170.513 43.222C170.709 42.746 170.989 42.312 171.353 41.948C171.703 41.584 172.123 41.29 172.599 41.066C173.075 40.856 173.607 40.744 174.167 40.744C174.727 40.744 175.245 40.856 175.721 41.066C176.197 41.29 176.617 41.584 176.981 41.948C177.331 42.312 177.611 42.746 177.807 43.222C178.003 43.712 178.115 44.23 178.115 44.79C178.115 45.35 178.003 45.882 177.807 46.358C177.611 46.848 177.331 47.282 176.981 47.646C176.617 48.01 176.197 48.304 175.721 48.514C175.245 48.724 174.727 48.822 174.167 48.822ZM174.167 47.842C174.587 47.842 174.979 47.772 175.343 47.604C175.693 47.436 176.001 47.226 176.253 46.946C176.505 46.666 176.701 46.344 176.841 45.98C176.981 45.616 177.051 45.21 177.051 44.79C177.051 44.37 176.981 43.978 176.841 43.6C176.701 43.236 176.505 42.914 176.253 42.634C176.001 42.354 175.693 42.144 175.343 41.976C174.979 41.808 174.587 41.724 174.167 41.724C173.733 41.724 173.341 41.808 172.991 41.976C172.627 42.144 172.333 42.354 172.081 42.634C171.829 42.914 171.633 43.236 171.493 43.6C171.353 43.978 171.283 44.37 171.283 44.79C171.283 45.21 171.353 45.616 171.493 45.98C171.633 46.344 171.829 46.666 172.081 46.946C172.333 47.226 172.627 47.436 172.991 47.604C173.341 47.772 173.733 47.842 174.167 47.842ZM189.861 44.412C189.861 43.852 189.805 43.39 189.721 43.04C189.623 42.69 189.483 42.424 189.315 42.228C189.147 42.046 188.923 41.92 188.643 41.836C188.363 41.766 188.027 41.724 187.649 41.724C187.495 41.724 187.327 41.738 187.145 41.766C186.949 41.794 186.767 41.822 186.571 41.864C186.375 41.92 186.193 41.976 185.997 42.046C185.801 42.116 185.675 42.158 185.619 42.186C185.675 42.34 185.745 42.578 185.815 42.9C185.885 43.222 185.927 43.6 185.927 44.02V48.682H184.933V44.412C184.933 43.852 184.877 43.39 184.793 43.04C184.695 42.704 184.555 42.438 184.373 42.242C184.191 42.046 183.967 41.92 183.687 41.836C183.407 41.766 183.071 41.724 182.678 41.724C182.343 41.724 182.035 41.752 181.755 41.794C181.475 41.85 181.195 41.906 180.915 41.962V48.682H179.921V41.15L181.517 40.856C181.923 40.786 182.329 40.744 182.749 40.744C183.225 40.744 183.659 40.8 184.051 40.884C184.443 40.982 184.751 41.136 184.975 41.346C185.339 41.178 185.773 41.038 186.291 40.926C186.794 40.814 187.271 40.744 187.705 40.744C188.181 40.744 188.615 40.8 189.007 40.884C189.399 40.982 189.721 41.164 190.001 41.416C190.281 41.668 190.491 42.004 190.631 42.424C190.771 42.844 190.855 43.376 190.855 44.02V48.682H189.861V44.412ZM194.422 47.646C194.702 47.73 194.996 47.772 195.276 47.8C195.556 47.828 195.794 47.842 196.004 47.842C196.578 47.842 197.082 47.772 197.502 47.632C197.922 47.492 198.286 47.282 198.566 47.002C198.846 46.736 199.042 46.414 199.182 46.036C199.322 45.658 199.392 45.224 199.392 44.748C199.392 43.81 199.112 43.068 198.566 42.536C198.006 42.004 197.152 41.724 196.004 41.724C195.752 41.724 195.472 41.752 195.192 41.794C194.912 41.836 194.646 41.878 194.422 41.92V47.646ZM194.422 51.762H193.428V41.136C193.876 41.01 194.324 40.912 194.772 40.842C195.22 40.786 195.612 40.744 195.976 40.744C196.718 40.744 197.376 40.856 197.936 41.066C198.496 41.276 198.972 41.556 199.35 41.92C199.714 42.284 199.994 42.704 200.176 43.194C200.358 43.684 200.456 44.202 200.456 44.748C200.456 45.308 200.358 45.826 200.176 46.316C199.994 46.82 199.714 47.254 199.35 47.618C198.972 47.996 198.496 48.29 197.936 48.5C197.376 48.724 196.718 48.822 195.976 48.822C195.542 48.822 195.024 48.78 194.422 48.668V51.762ZM205.376 48.822C204.928 48.822 204.494 48.78 204.074 48.696C203.654 48.612 203.29 48.486 202.968 48.29C202.646 48.108 202.38 47.856 202.184 47.534C201.988 47.226 201.89 46.834 201.89 46.372C201.89 45.448 202.24 44.79 202.968 44.384C203.682 43.992 204.634 43.782 205.824 43.782C206.048 43.782 206.3 43.796 206.608 43.824C206.916 43.852 207.168 43.88 207.392 43.908V43.824C207.392 43.068 207.21 42.536 206.86 42.214C206.496 41.892 205.95 41.724 205.222 41.724C205.012 41.724 204.802 41.752 204.578 41.78C204.354 41.822 204.144 41.864 203.92 41.92C203.696 41.976 203.5 42.046 203.304 42.13C203.108 42.214 202.828 42.354 202.478 42.55L202.52 41.43C203.01 41.178 203.5 41.01 203.976 40.898C204.452 40.8 204.886 40.744 205.292 40.744C206.328 40.744 207.098 40.982 207.616 41.458C208.12 41.934 208.386 42.676 208.386 43.698V48.248C207.91 48.444 207.42 48.598 206.916 48.682C206.412 48.78 205.894 48.822 205.376 48.822ZM207.392 44.916C207.252 44.888 207.014 44.86 206.664 44.818C206.314 44.79 205.992 44.762 205.684 44.762C205.32 44.762 204.984 44.79 204.648 44.832C204.312 44.888 204.018 44.958 203.766 45.07C203.514 45.182 203.304 45.35 203.164 45.546C203.024 45.742 202.954 46.008 202.954 46.344C202.954 46.652 203.01 46.89 203.136 47.072C203.248 47.268 203.416 47.422 203.626 47.534C203.822 47.646 204.074 47.73 204.368 47.772C204.662 47.828 204.97 47.842 205.306 47.842C205.684 47.842 206.062 47.814 206.454 47.744C206.832 47.688 207.14 47.604 207.392 47.506V44.916ZM210.956 41.108C211.586 40.996 212.16 40.898 212.692 40.842C213.21 40.786 213.7 40.744 214.162 40.744C214.638 40.744 215.072 40.8 215.478 40.884C215.884 40.982 216.234 41.15 216.528 41.402C216.822 41.654 217.046 42.004 217.2 42.424C217.354 42.844 217.438 43.376 217.438 44.02V48.682H216.444V44.44C216.444 43.88 216.388 43.418 216.276 43.068C216.164 42.718 216.024 42.452 215.828 42.256C215.632 42.06 215.394 41.934 215.114 41.85C214.82 41.766 214.484 41.724 214.106 41.724C213.434 41.724 212.706 41.808 211.95 41.948V48.682H210.956V41.108ZM225.158 48.57C224.878 48.64 224.556 48.696 224.164 48.752C223.772 48.808 223.394 48.822 223.016 48.822C222.526 48.822 222.092 48.78 221.7 48.682C221.308 48.598 220.986 48.416 220.706 48.164C220.426 47.912 220.23 47.576 220.09 47.156C219.95 46.736 219.88 46.19 219.88 45.546V40.898H220.874V45.126C220.874 45.7 220.916 46.162 221.014 46.512C221.098 46.876 221.238 47.142 221.406 47.324C221.574 47.52 221.798 47.646 222.078 47.73C222.358 47.814 222.68 47.842 223.072 47.842C223.38 47.842 223.716 47.828 224.08 47.772C224.444 47.73 224.794 47.66 225.158 47.548V40.898H226.152V48.892C226.152 49.928 225.844 50.67 225.242 51.146C224.626 51.622 223.814 51.846 222.806 51.846C222.582 51.846 222.358 51.846 222.134 51.818C221.91 51.79 221.672 51.762 221.448 51.706C221.224 51.664 221 51.608 220.776 51.538C220.552 51.468 220.328 51.37 220.104 51.258L219.922 50.026C220.3 50.236 220.594 50.376 220.79 50.46C220.986 50.544 221.21 50.614 221.434 50.67C221.658 50.726 221.868 50.782 222.092 50.81C222.316 50.852 222.526 50.866 222.736 50.866C223.478 50.866 224.066 50.712 224.5 50.376C224.934 50.054 225.158 49.522 225.158 48.766V48.57ZM234.817 47.688H240.613V48.682H233.767V36.964H234.817V47.688ZM240.816 40.898H242.468V38.084H243.462V40.898H246.682V41.864H243.462V45.658C243.462 46.078 243.49 46.414 243.546 46.666C243.602 46.932 243.7 47.142 243.84 47.282C243.966 47.436 244.148 47.548 244.372 47.618C244.596 47.688 244.876 47.716 245.212 47.716H246.78V48.682H245.31C244.89 48.682 244.512 48.64 244.176 48.556C243.84 48.472 243.532 48.318 243.28 48.108C243.014 47.912 242.818 47.632 242.678 47.296C242.538 46.96 242.468 46.554 242.468 46.05V41.864H240.816V40.898ZM248.68 44.818C248.68 45.77 248.946 46.512 249.506 47.044C250.052 47.576 250.906 47.842 252.068 47.842C252.32 47.842 252.586 47.828 252.866 47.786C253.146 47.744 253.412 47.702 253.65 47.646V41.92C253.356 41.85 253.076 41.794 252.796 41.766C252.516 41.738 252.264 41.724 252.068 41.724C251.48 41.724 250.976 41.808 250.556 41.948C250.136 42.088 249.786 42.298 249.506 42.564C249.226 42.844 249.016 43.166 248.876 43.544C248.736 43.922 248.68 44.342 248.68 44.818ZM253.65 36.964H254.644V48.43C254.182 48.57 253.734 48.668 253.286 48.724C252.838 48.794 252.446 48.822 252.096 48.822C251.34 48.822 250.682 48.724 250.122 48.514C249.562 48.304 249.086 48.024 248.722 47.66C248.344 47.296 248.064 46.876 247.882 46.386C247.7 45.896 247.616 45.378 247.616 44.818C247.616 44.272 247.7 43.754 247.882 43.25C248.064 42.76 248.344 42.326 248.722 41.948C249.086 41.584 249.562 41.29 250.122 41.066C250.682 40.856 251.34 40.744 252.096 40.744C252.516 40.744 253.034 40.8 253.65 40.898V36.964Z" fill="white" fill-opacity="0.7"/>
<path d="M268 12C268 6.47715 272.477 2 278 2H306C311.523 2 316 6.47715 316 12V40C316 45.5228 311.523 50 306 50H278C272.477 50 268 45.5228 268 40V12Z" fill="white" fill-opacity="0.1"/>
<path d="M285 37.6663V16.6663C285 16.0475 285.246 15.454 285.683 15.0164C286.121 14.5788 286.714 14.333 287.333 14.333H296.667C297.286 14.333 297.879 14.5788 298.317 15.0164C298.754 15.454 299 16.0475 299 16.6663V37.6663H285Z" stroke="white" stroke-width="2.33333" stroke-linecap="round" stroke-linejoin="round"/>
<path d="M285 26H282.667C282.048 26 281.454 26.2458 281.017 26.6834C280.579 27.121 280.333 27.7145 280.333 28.3333V35.3333C280.333 35.9522 280.579 36.5457 281.017 36.9832C281.454 37.4208 282.048 37.6667 282.667 37.6667H285" stroke="white" stroke-width="2.33333" stroke-linecap="round" stroke-linejoin="round"/>
<path d="M299 22.5H301.333C301.952 22.5 302.546 22.7458 302.983 23.1834C303.421 23.621 303.667 24.2145 303.667 24.8333V35.3333C303.667 35.9522 303.421 36.5457 302.983 36.9832C302.546 37.4208 301.952 37.6667 301.333 37.6667H299" stroke="white" stroke-width="2.33333" stroke-linecap="round" stroke-linejoin="round"/>
<path d="M289.667 19H294.333" stroke="white" stroke-width="2.33333" stroke-linecap="round" stroke-linejoin="round"/>
<path d="M289.667 23.667H294.333" stroke="white" stroke-width="2.33333" stroke-linecap="round" stroke-linejoin="round"/>
<path d="M289.667 28.333H294.333" stroke="white" stroke-width="2.33333" stroke-linecap="round" stroke-linejoin="round"/>
<path d="M289.667 33H294.333" stroke="white" stroke-width="2.33333" stroke-linecap="round" stroke-linejoin="round"/>
</svg>
