<svg width="313" height="49" viewBox="0 0 313 49" fill="none" xmlns="http://www.w3.org/2000/svg">
<path d="M9.528 24C8.328 24 7.224 23.88 6.216 23.592C5.208 23.328 4.344 22.92 3.624 22.344C2.904 21.792 2.328 21.096 1.92 20.232C1.512 19.392 1.32 18.408 1.32 17.256C1.32 16.296 1.488 15.384 1.872 14.568C2.232 13.752 2.76 13.032 3.48 12.432C4.176 11.832 5.04 11.352 6.048 11.016C7.056 10.68 8.232 10.488 9.528 10.488H10.008V9.288H13.368V24H9.528ZM10.008 20.64V13.848H8.712C8.208 13.848 7.728 13.944 7.248 14.088C6.768 14.232 6.336 14.448 5.952 14.736C5.568 15.024 5.256 15.384 5.016 15.816C4.776 16.248 4.68 16.728 4.68 17.256C4.68 17.832 4.776 18.312 4.992 18.72C5.208 19.152 5.496 19.488 5.856 19.776C6.216 20.064 6.624 20.28 7.104 20.424C7.56 20.568 8.04 20.64 8.544 20.64H10.008ZM11.352 7.512C10.824 7.512 10.392 7.368 10.032 7.08C9.648 6.792 9.48 6.36 9.48 5.784C9.48 5.28 9.648 4.872 10.008 4.56C10.368 4.248 10.824 4.08 11.352 4.08C11.88 4.08 12.336 4.248 12.696 4.56C13.032 4.872 13.224 5.28 13.224 5.784C13.224 6.36 13.032 6.792 12.672 7.08C12.288 7.368 11.856 7.512 11.352 7.512ZM6.144 7.512C5.616 7.512 5.184 7.368 4.824 7.08C4.44 6.792 4.272 6.36 4.272 5.784C4.272 5.28 4.44 4.872 4.8 4.56C5.16 4.248 5.616 4.08 6.144 4.08C6.672 4.08 7.104 4.248 7.464 4.56C7.824 4.872 8.016 5.28 8.016 5.784C8.016 6.36 7.824 6.792 7.464 7.08C7.08 7.368 6.648 7.512 6.144 7.512ZM15.5588 20.64H23.9348V16.968C23.9348 16.488 23.8628 16.08 23.7668 15.72C23.6708 15.36 23.5028 15.048 23.2868 14.76C23.0708 14.496 22.7828 14.28 22.4228 14.112C22.0628 13.944 21.6788 13.848 21.2468 13.848H19.8068V10.488H20.9108C21.9908 10.488 22.9508 10.632 23.7668 10.92C24.5828 11.208 25.2788 11.664 25.9028 12.288C26.4068 12.84 26.7668 13.536 26.9828 14.376C27.1748 15.216 27.2948 16.128 27.2948 17.112V24H15.5588V20.64ZM41.8434 23.088C41.8434 24 41.7234 24.84 41.5314 25.608C41.3394 26.376 41.0034 27.024 40.5234 27.552C40.0434 28.104 39.4194 28.536 38.6274 28.824C37.8354 29.136 36.8514 29.28 35.6754 29.28C35.3394 29.28 35.0514 29.28 34.7874 29.256C34.4994 29.232 34.2354 29.184 33.9714 29.136C33.7074 29.088 33.4434 29.04 33.1554 28.968L32.1714 28.704L31.9314 25.32C32.5794 25.536 33.1794 25.68 33.7554 25.776C34.3074 25.872 34.8594 25.92 35.4354 25.92C35.8914 25.92 36.2994 25.92 36.6594 25.872C36.9954 25.824 37.3074 25.752 37.5474 25.608C37.7874 25.464 38.0034 25.272 38.1474 25.008C38.2914 24.768 38.4114 24.432 38.4594 24H38.0754C36.9234 24 35.8434 23.88 34.8354 23.616C33.8274 23.376 32.9634 22.968 32.2194 22.416C31.4754 21.888 30.8994 21.192 30.4674 20.328C30.0354 19.464 29.8434 18.432 29.8434 17.232C29.8434 16.176 30.0354 15.24 30.4434 14.4C30.8514 13.584 31.4274 12.864 32.1474 12.288C32.8674 11.712 33.7554 11.28 34.7634 10.968C35.7714 10.656 36.8754 10.488 38.0754 10.488H41.8674L41.8434 23.088ZM33.2034 17.232C33.2034 17.808 33.2994 18.288 33.4914 18.72C33.6834 19.152 33.9714 19.488 34.3314 19.776C34.6674 20.064 35.0754 20.28 35.5554 20.424C36.0354 20.568 36.5394 20.64 37.0914 20.64H38.5074V13.848H37.0914C36.5874 13.848 36.1074 13.944 35.6274 14.088C35.1474 14.256 34.7394 14.496 34.3794 14.784C34.0194 15.072 33.7314 15.432 33.5154 15.84C33.2994 16.272 33.2034 16.728 33.2034 17.232ZM44.1525 20.64H52.5285V16.968C52.5285 16.488 52.4565 16.08 52.3605 15.72C52.2645 15.36 52.0965 15.048 51.8805 14.76C51.6645 14.496 51.3765 14.28 51.0165 14.112C50.6565 13.944 50.2725 13.848 49.8405 13.848H48.4005V10.488H49.5045C50.5845 10.488 51.5445 10.632 52.3605 10.92C53.1765 11.208 53.8725 11.664 54.4965 12.288C55.0005 12.84 55.3605 13.536 55.5765 14.376C55.7685 15.216 55.8885 16.128 55.8885 17.112V20.64H58.4805V24H44.1525V20.64ZM58.0312 20.64H67.9913C68.1113 20.112 68.2073 19.536 68.2793 18.912C68.3513 18.288 68.3993 17.736 68.3993 17.208C68.3993 16.728 68.3033 16.2 68.1113 15.672C67.9193 15.144 67.6313 14.688 67.2233 14.304C66.5273 13.704 65.5913 13.392 64.3913 13.392C63.7433 13.392 63.1673 13.488 62.6393 13.632C62.1113 13.776 61.5353 14.064 60.9113 14.448L59.5193 11.52C60.2873 11.088 61.1273 10.728 61.9913 10.44C62.8553 10.176 63.7913 10.032 64.7993 10.032C65.7833 10.032 66.6713 10.2 67.4873 10.512C68.3033 10.848 68.9993 11.304 69.5753 11.88C70.1993 12.528 70.7273 13.32 71.1353 14.256C71.5193 15.192 71.7353 16.272 71.7353 17.472C71.7353 18.024 71.6873 18.552 71.6393 19.08C71.5912 19.608 71.5193 20.136 71.4233 20.64H74.0153V24H58.0312V20.64ZM73.5703 20.64H75.8983C75.8263 20.4 75.7783 20.16 75.7543 19.896C75.7303 19.656 75.7303 19.392 75.7303 19.104C75.7303 18.096 75.8983 17.136 76.2823 16.248C76.6663 15.36 77.1703 14.592 77.8183 13.92C78.4663 13.248 79.2343 12.72 80.0983 12.336C80.9623 11.952 81.8983 11.76 82.9063 11.76C83.9143 11.76 84.8503 11.952 85.7383 12.336C86.6263 12.72 87.3943 13.224 88.0663 13.872C88.7383 14.544 89.2423 15.312 89.6263 16.2C90.0103 17.112 90.2023 18.072 90.2023 19.104C90.2023 19.392 90.1783 19.656 90.1543 19.896C90.1063 20.16 90.0823 20.4 90.0343 20.64H92.7223V24H88.2343C87.5623 24.72 86.7463 25.296 85.8343 25.68C84.9223 26.088 83.9383 26.28 82.9063 26.28C81.8743 26.28 80.9143 26.088 80.0263 25.68C79.1143 25.272 78.3463 24.72 77.6743 24H73.5703V20.64ZM82.9063 22.92C83.4343 22.92 83.9623 22.824 84.4423 22.632C84.9223 22.44 85.3303 22.176 85.6903 21.84C86.0503 21.504 86.3383 21.096 86.5303 20.616C86.7223 20.136 86.8423 19.632 86.8423 19.056C86.8423 18.504 86.7463 17.976 86.5543 17.496C86.3623 17.016 86.0743 16.608 85.7383 16.248C85.3783 15.912 84.9703 15.624 84.4903 15.432C84.0103 15.24 83.4823 15.12 82.9063 15.12C82.3303 15.12 81.8263 15.24 81.3703 15.432C80.8903 15.648 80.5063 15.936 80.1703 16.272C79.8343 16.632 79.5703 17.04 79.3783 17.52C79.1863 18 79.0903 18.528 79.0903 19.056C79.0903 19.608 79.1863 20.112 79.3783 20.592C79.5703 21.072 79.8343 21.48 80.1703 21.816C80.5063 22.152 80.9143 22.44 81.3943 22.632C81.8503 22.824 82.3543 22.92 82.9063 22.92ZM92.25 20.64H94.602V4.536H99.522V7.896H97.962V24H92.25V20.64ZM103.597 4.536H106.957V24H103.597V4.536ZM116.785 20.64H125.161V16.968C125.161 16.488 125.089 16.08 124.993 15.72C124.897 15.36 124.729 15.048 124.513 14.76C124.297 14.496 124.009 14.28 123.649 14.112C123.289 13.944 122.905 13.848 122.473 13.848H121.033V10.488H122.137C123.217 10.488 124.177 10.632 124.993 10.92C125.809 11.208 126.505 11.664 127.129 12.288C127.633 12.84 127.993 13.536 128.209 14.376C128.401 15.216 128.521 16.128 128.521 17.112V20.64H131.113V24H116.785V20.64ZM132.632 6.888C132.632 5.808 132.896 5.04 133.424 4.584C133.952 4.152 134.696 3.912 135.656 3.912H137.096V4.992H135.848C135.368 4.992 135.032 5.112 134.84 5.304C134.648 5.52 134.552 5.808 134.552 6.192V6.84H137.864V8.64H132.632V6.888ZM130.664 20.64H133.64V10.488H137V24H130.664V20.64ZM141.565 4.536H144.925V24H141.565V4.536ZM147.559 20.64H155.935V16.968C155.935 16.488 155.863 16.08 155.767 15.72C155.671 15.36 155.503 15.048 155.287 14.76C155.071 14.496 154.783 14.28 154.423 14.112C154.063 13.944 153.679 13.848 153.247 13.848H151.807V10.488H152.911C153.991 10.488 154.951 10.632 155.767 10.92C156.583 11.208 157.279 11.664 157.903 12.288C158.407 12.84 158.767 13.536 158.983 14.376C159.175 15.216 159.295 16.128 159.295 17.112V20.64H161.887V24H147.559V20.64ZM161.438 20.64H164.054C163.766 20.088 163.526 19.464 163.334 18.792C163.142 18.12 163.046 17.4 163.046 16.632C163.046 15.48 163.262 14.472 163.718 13.608C164.15 12.744 164.726 12.024 165.446 11.448C165.998 10.992 166.646 10.632 167.39 10.392C168.134 10.152 168.95 10.032 169.814 10.032C170.702 10.032 171.542 10.152 172.358 10.392C173.174 10.632 173.99 10.944 174.806 11.352L173.678 14.4C173.15 14.112 172.598 13.872 171.974 13.68C171.35 13.488 170.774 13.368 170.222 13.368C169.118 13.368 168.23 13.656 167.605 14.184C167.174 14.568 166.862 14.976 166.694 15.432C166.502 15.888 166.43 16.368 166.43 16.896C166.43 17.664 166.526 18.36 166.766 18.984C166.982 19.608 167.294 20.16 167.702 20.64H175.31V24H161.438V20.64ZM198.998 20.64V24H192.95C191.75 24 190.646 23.88 189.638 23.592C188.63 23.328 187.766 22.92 187.046 22.344C186.326 21.792 185.75 21.096 185.342 20.232C184.934 19.392 184.742 18.408 184.742 17.256C184.742 16.296 184.91 15.384 185.294 14.568C185.654 13.752 186.182 13.032 186.902 12.432C187.598 11.832 188.462 11.352 189.47 11.016C190.478 10.68 191.654 10.488 192.95 10.488H193.43V9.288H196.79V20.64H198.998ZM193.43 20.64V13.848H192.134C191.63 13.848 191.15 13.944 190.67 14.088C190.19 14.232 189.758 14.448 189.374 14.736C188.99 15.024 188.678 15.384 188.438 15.816C188.198 16.248 188.102 16.728 188.102 17.256C188.102 17.832 188.198 18.312 188.414 18.72C188.63 19.152 188.918 19.488 189.278 19.776C189.638 20.064 190.046 20.28 190.526 20.424C190.982 20.568 191.462 20.64 191.966 20.64H193.43ZM194.774 7.512C194.246 7.512 193.814 7.368 193.454 7.08C193.07 6.792 192.902 6.36 192.902 5.784C192.902 5.28 193.07 4.872 193.43 4.56C193.79 4.248 194.246 4.08 194.774 4.08C195.302 4.08 195.758 4.248 196.118 4.56C196.454 4.872 196.646 5.28 196.646 5.784C196.646 6.36 196.454 6.792 196.094 7.08C195.71 7.368 195.278 7.512 194.774 7.512ZM189.566 7.512C189.038 7.512 188.606 7.368 188.246 7.08C187.862 6.792 187.694 6.36 187.694 5.784C187.694 5.28 187.862 4.872 188.222 4.56C188.582 4.248 189.038 4.08 189.566 4.08C190.094 4.08 190.526 4.248 190.886 4.56C191.246 4.872 191.438 5.28 191.438 5.784C191.438 6.36 191.246 6.792 190.886 7.08C190.502 7.368 190.07 7.512 189.566 7.512ZM198.539 20.64H213.491V18.072C213.491 17.592 213.419 17.184 213.323 16.824C213.227 16.464 213.059 16.152 212.843 15.864C212.627 15.6 212.339 15.384 211.979 15.192C211.619 15.024 211.235 14.928 210.803 14.928H200.771C200.459 14.544 200.195 14.064 199.979 13.512C199.763 12.96 199.643 12.312 199.619 11.592L203.507 4.536H207.107L203.387 11.592H210.467C211.547 11.592 212.507 11.736 213.323 12.024C214.139 12.312 214.835 12.768 215.459 13.392C215.963 13.944 216.323 14.64 216.539 15.48C216.731 16.32 216.851 17.232 216.851 18.216V24H198.539V20.64ZM220.797 29.28C220.461 29.28 220.149 29.28 219.861 29.232C219.549 29.184 219.285 29.136 219.093 29.064L218.853 25.704C219.165 25.8 219.453 25.848 219.693 25.872C219.933 25.92 220.173 25.92 220.437 25.92C221.109 25.92 221.565 25.752 221.829 25.368C222.093 25.008 222.237 24.408 222.237 23.568V10.488H225.597V20.64H228.189V24H225.573C225.477 25.872 225.045 27.216 224.301 28.032C223.533 28.872 222.381 29.28 220.797 29.28ZM227.719 20.64H232.951V11.688H236.311V20.64H238.759C239.095 20.64 239.455 20.616 239.839 20.52C240.223 20.424 240.559 20.28 240.871 20.04C241.183 19.8 241.447 19.488 241.639 19.104C241.831 18.72 241.927 18.24 241.927 17.64V11.688H245.287V17.496C245.287 18.648 245.551 19.512 246.103 20.064C246.655 20.616 247.399 20.88 248.311 20.88C249.271 20.88 249.991 20.616 250.471 20.064C250.951 19.536 251.191 18.792 251.191 17.856V8.808H254.527V17.424C254.527 19.752 253.999 21.48 252.991 22.584C251.959 23.688 250.399 24.24 248.311 24.24C247.831 24.24 247.375 24.216 246.943 24.144C246.487 24.072 246.055 23.952 245.647 23.76C245.215 23.592 244.831 23.352 244.471 23.064C244.111 22.776 243.799 22.392 243.535 21.936C242.911 22.584 242.191 23.088 241.375 23.448C240.535 23.832 239.671 24 238.759 24H227.719V20.64ZM246.151 8.304C245.671 8.304 245.239 8.184 244.879 7.896C244.519 7.608 244.351 7.2 244.351 6.624C244.351 6.144 244.519 5.736 244.855 5.424C245.191 5.136 245.623 4.968 246.151 4.968C246.679 4.968 247.111 5.136 247.447 5.424C247.783 5.736 247.975 6.144 247.975 6.624C247.975 7.2 247.783 7.608 247.423 7.896C247.063 8.184 246.631 8.304 246.151 8.304ZM241.063 8.304C240.583 8.304 240.151 8.184 239.791 7.896C239.431 7.608 239.263 7.2 239.263 6.624C239.263 6.144 239.431 5.736 239.767 5.424C240.103 5.136 240.535 4.968 241.063 4.968C241.567 4.968 241.999 5.136 242.359 5.424C242.695 5.736 242.887 6.144 242.887 6.624C242.887 7.2 242.695 7.608 242.335 7.896C241.951 8.184 241.543 8.304 241.063 8.304ZM243.607 4.488C243.175 4.488 242.815 4.368 242.479 4.128C242.143 3.888 241.999 3.504 241.999 3.024C241.999 2.592 242.143 2.256 242.455 1.968C242.743 1.704 243.127 1.56 243.607 1.56C244.063 1.56 244.447 1.704 244.759 1.968C245.047 2.256 245.215 2.592 245.215 3.024C245.215 3.504 245.047 3.888 244.735 4.128C244.399 4.368 244.039 4.488 243.607 4.488Z" fill="white"/>
<path d="M88.43 43.156H87.47L86.198 39.988H81.782L80.51 43.156H79.55L83.582 33.112H84.398L88.43 43.156ZM82.13 39.112H85.85L83.99 34.504L82.13 39.112ZM92.8546 39.844C92.8546 40.66 93.0826 41.296 93.5626 41.752C94.0306 42.208 94.7626 42.436 95.7586 42.436C95.9746 42.436 96.2026 42.424 96.4426 42.388C96.6826 42.352 96.9106 42.316 97.1146 42.268V37.36C96.8626 37.3 96.6226 37.252 96.3826 37.228C96.1426 37.204 95.9266 37.192 95.7586 37.192C95.2546 37.192 94.8226 37.264 94.4626 37.384C94.1026 37.504 93.8026 37.684 93.5626 37.912C93.3226 38.152 93.1426 38.428 93.0226 38.752C92.9026 39.076 92.8546 39.436 92.8546 39.844ZM97.1146 33.112H97.9666V42.94C97.5706 43.06 97.1866 43.144 96.8026 43.192C96.4186 43.252 96.0826 43.276 95.7826 43.276C95.1346 43.276 94.5706 43.192 94.0906 43.012C93.6106 42.832 93.2026 42.592 92.8906 42.28C92.5666 41.968 92.3266 41.608 92.1706 41.188C92.0146 40.768 91.9426 40.324 91.9426 39.844C91.9426 39.376 92.0146 38.932 92.1706 38.5C92.3266 38.08 92.5666 37.708 92.8906 37.384C93.2026 37.072 93.6106 36.82 94.0906 36.628C94.5706 36.448 95.1346 36.352 95.7826 36.352C96.1426 36.352 96.5866 36.4 97.1146 36.484V33.112ZM105.729 43.276C105.345 43.276 104.973 43.24 104.613 43.168C104.253 43.096 103.941 42.988 103.665 42.82C103.389 42.664 103.161 42.448 102.993 42.172C102.825 41.908 102.741 41.572 102.741 41.176C102.741 40.384 103.041 39.82 103.665 39.472C104.277 39.136 105.093 38.956 106.113 38.956C106.305 38.956 106.521 38.968 106.785 38.992C107.049 39.016 107.265 39.04 107.457 39.064V38.992C107.457 38.344 107.301 37.888 107.001 37.612C106.689 37.336 106.221 37.192 105.597 37.192C105.417 37.192 105.237 37.216 105.045 37.24C104.853 37.276 104.673 37.312 104.481 37.36C104.289 37.408 104.121 37.468 103.953 37.54C103.785 37.612 103.545 37.732 103.245 37.9L103.281 36.94C103.701 36.724 104.121 36.58 104.529 36.484C104.937 36.4 105.309 36.352 105.657 36.352C106.545 36.352 107.205 36.556 107.649 36.964C108.081 37.372 108.309 38.008 108.309 38.884V42.784C107.901 42.952 107.481 43.084 107.049 43.156C106.617 43.24 106.173 43.276 105.729 43.276ZM107.457 39.928C107.337 39.904 107.133 39.88 106.833 39.844C106.533 39.82 106.257 39.796 105.993 39.796C105.681 39.796 105.393 39.82 105.105 39.856C104.817 39.904 104.565 39.964 104.349 40.06C104.133 40.156 103.953 40.3 103.833 40.468C103.713 40.636 103.653 40.864 103.653 41.152C103.653 41.416 103.701 41.62 103.809 41.776C103.905 41.944 104.049 42.076 104.229 42.172C104.397 42.268 104.613 42.34 104.865 42.376C105.117 42.424 105.381 42.436 105.669 42.436C105.993 42.436 106.317 42.412 106.653 42.352C106.977 42.304 107.241 42.232 107.457 42.148V39.928ZM116.116 42.436C116.62 42.436 117.052 42.388 117.412 42.268C117.772 42.16 118.144 41.992 118.504 41.776L118.912 42.556C118.492 42.796 118.072 42.976 117.652 43.096C117.232 43.216 116.716 43.276 116.116 43.276C115.624 43.276 115.18 43.192 114.772 43.012C114.364 42.844 114.004 42.604 113.704 42.292C113.392 41.98 113.152 41.62 112.984 41.2C112.816 40.78 112.732 40.324 112.732 39.82C112.732 39.316 112.816 38.848 112.996 38.428C113.164 38.008 113.404 37.648 113.716 37.336C114.028 37.024 114.388 36.784 114.796 36.616C115.204 36.448 115.636 36.352 116.116 36.352C116.596 36.352 117.028 36.436 117.424 36.604C117.808 36.772 118.144 37 118.432 37.312C118.72 37.624 118.936 37.996 119.104 38.428C119.26 38.86 119.344 39.4 119.356 40.036H113.644C113.644 40.3 113.716 40.6 113.836 40.912C113.956 41.224 114.124 41.5 114.34 41.716C114.556 41.944 114.82 42.124 115.12 42.244C115.42 42.376 115.756 42.436 116.116 42.436ZM116.116 37.192C115.756 37.192 115.444 37.252 115.156 37.36C114.868 37.48 114.628 37.636 114.436 37.828C114.232 38.02 114.064 38.26 113.944 38.524C113.812 38.788 113.728 39.016 113.704 39.208H118.384C118.36 38.992 118.276 38.74 118.156 38.476C118.036 38.212 117.868 37.972 117.676 37.78C117.484 37.588 117.256 37.444 116.992 37.348C116.728 37.252 116.428 37.192 116.116 37.192ZM124.249 39.844C124.249 40.66 124.477 41.296 124.957 41.752C125.425 42.208 126.157 42.436 127.153 42.436C127.369 42.436 127.597 42.424 127.837 42.388C128.077 42.352 128.305 42.316 128.509 42.268V37.36C128.257 37.3 128.017 37.252 127.777 37.228C127.537 37.204 127.321 37.192 127.153 37.192C126.649 37.192 126.217 37.264 125.857 37.384C125.497 37.504 125.197 37.684 124.957 37.912C124.717 38.152 124.537 38.428 124.417 38.752C124.297 39.076 124.249 39.436 124.249 39.844ZM128.509 33.112H129.361V42.94C128.965 43.06 128.581 43.144 128.197 43.192C127.813 43.252 127.477 43.276 127.177 43.276C126.529 43.276 125.965 43.192 125.485 43.012C125.005 42.832 124.597 42.592 124.285 42.28C123.961 41.968 123.721 41.608 123.565 41.188C123.409 40.768 123.337 40.324 123.337 39.844C123.337 39.376 123.409 38.932 123.565 38.5C123.721 38.08 123.961 37.708 124.285 37.384C124.597 37.072 125.005 36.82 125.485 36.628C125.965 36.448 126.529 36.352 127.177 36.352C127.537 36.352 127.981 36.4 128.509 36.484V33.112ZM146.124 33.82C145.56 33.82 145.032 33.916 144.528 34.108C144.024 34.3 143.592 34.588 143.208 34.948C142.824 35.32 142.524 35.776 142.308 36.304C142.08 36.832 141.972 37.444 141.972 38.128C141.972 38.824 142.08 39.436 142.308 39.964C142.524 40.492 142.824 40.948 143.208 41.308C143.592 41.68 144.024 41.956 144.528 42.148C145.032 42.34 145.56 42.436 146.124 42.436C146.676 42.436 147.18 42.376 147.66 42.244C148.128 42.112 148.596 41.908 149.052 41.632L149.448 42.388C148.932 42.7 148.404 42.928 147.864 43.072C147.312 43.216 146.736 43.276 146.124 43.276C145.332 43.276 144.624 43.144 144 42.88C143.376 42.616 142.836 42.244 142.404 41.776C141.972 41.32 141.636 40.768 141.396 40.144C141.156 39.52 141.048 38.848 141.048 38.128C141.048 37.42 141.156 36.748 141.396 36.124C141.636 35.5 141.972 34.948 142.404 34.48C142.836 34.024 143.376 33.652 144 33.388C144.624 33.124 145.332 32.98 146.124 32.98C146.736 32.98 147.312 33.052 147.864 33.196C148.404 33.34 148.932 33.556 149.448 33.868L149.052 34.624C148.596 34.36 148.128 34.156 147.66 34.024C147.18 33.892 146.676 33.82 146.124 33.82ZM156.44 43.276C155.96 43.276 155.504 43.192 155.096 43.012C154.688 42.832 154.328 42.58 154.028 42.268C153.716 41.956 153.476 41.584 153.308 41.164C153.14 40.756 153.056 40.3 153.056 39.82C153.056 39.34 153.14 38.896 153.308 38.476C153.476 38.068 153.716 37.696 154.028 37.384C154.328 37.072 154.688 36.82 155.096 36.628C155.504 36.448 155.96 36.352 156.44 36.352C156.92 36.352 157.364 36.448 157.772 36.628C158.18 36.82 158.54 37.072 158.852 37.384C159.152 37.696 159.392 38.068 159.56 38.476C159.728 38.896 159.824 39.34 159.824 39.82C159.824 40.3 159.728 40.756 159.56 41.164C159.392 41.584 159.152 41.956 158.852 42.268C158.54 42.58 158.18 42.832 157.772 43.012C157.364 43.192 156.92 43.276 156.44 43.276ZM156.44 42.436C156.8 42.436 157.136 42.376 157.448 42.232C157.748 42.088 158.012 41.908 158.228 41.668C158.444 41.428 158.612 41.152 158.732 40.84C158.852 40.528 158.912 40.18 158.912 39.82C158.912 39.46 158.852 39.124 158.732 38.8C158.612 38.488 158.444 38.212 158.228 37.972C158.012 37.732 157.748 37.552 157.448 37.408C157.136 37.264 156.8 37.192 156.44 37.192C156.068 37.192 155.732 37.264 155.432 37.408C155.12 37.552 154.868 37.732 154.652 37.972C154.436 38.212 154.268 38.488 154.148 38.8C154.028 39.124 153.968 39.46 153.968 39.82C153.968 40.18 154.028 40.528 154.148 40.84C154.268 41.152 154.436 41.428 154.652 41.668C154.868 41.908 155.12 42.088 155.432 42.232C155.732 42.376 156.068 42.436 156.44 42.436ZM172.891 39.496C172.891 39.016 172.843 38.62 172.771 38.32C172.687 38.02 172.567 37.792 172.423 37.624C172.279 37.468 172.087 37.36 171.847 37.288C171.607 37.228 171.319 37.192 170.995 37.192C170.863 37.192 170.719 37.204 170.563 37.228C170.395 37.252 170.239 37.276 170.071 37.312C169.903 37.36 169.747 37.408 169.579 37.468C169.411 37.528 169.303 37.564 169.255 37.588C169.303 37.72 169.363 37.924 169.423 38.2C169.483 38.476 169.519 38.8 169.519 39.16V43.156H168.667V39.496C168.667 39.016 168.619 38.62 168.547 38.32C168.463 38.032 168.343 37.804 168.187 37.636C168.031 37.468 167.839 37.36 167.599 37.288C167.359 37.228 167.071 37.192 166.735 37.192C166.447 37.192 166.183 37.216 165.943 37.252C165.703 37.3 165.463 37.348 165.223 37.396V43.156H164.371V36.7L165.739 36.448C166.087 36.388 166.435 36.352 166.795 36.352C167.203 36.352 167.575 36.4 167.911 36.472C168.247 36.556 168.511 36.688 168.703 36.868C169.015 36.724 169.387 36.604 169.831 36.508C170.263 36.412 170.671 36.352 171.043 36.352C171.451 36.352 171.823 36.4 172.159 36.472C172.495 36.556 172.771 36.712 173.011 36.928C173.251 37.144 173.431 37.432 173.551 37.792C173.671 38.152 173.743 38.608 173.743 39.16V43.156H172.891V39.496ZM179.801 42.268C180.041 42.34 180.293 42.376 180.533 42.4C180.773 42.424 180.977 42.436 181.157 42.436C181.649 42.436 182.081 42.376 182.441 42.256C182.801 42.136 183.113 41.956 183.353 41.716C183.593 41.488 183.761 41.212 183.881 40.888C184.001 40.564 184.061 40.192 184.061 39.784C184.061 38.98 183.821 38.344 183.353 37.888C182.873 37.432 182.141 37.192 181.157 37.192C180.941 37.192 180.701 37.216 180.461 37.252C180.221 37.288 179.993 37.324 179.801 37.36V42.268ZM179.801 45.796H178.949V36.688C179.333 36.58 179.717 36.496 180.101 36.436C180.485 36.388 180.821 36.352 181.133 36.352C181.769 36.352 182.333 36.448 182.813 36.628C183.293 36.808 183.701 37.048 184.025 37.36C184.337 37.672 184.577 38.032 184.733 38.452C184.889 38.872 184.973 39.316 184.973 39.784C184.973 40.264 184.889 40.708 184.733 41.128C184.577 41.56 184.337 41.932 184.025 42.244C183.701 42.568 183.293 42.82 182.813 43C182.333 43.192 181.769 43.276 181.133 43.276C180.761 43.276 180.317 43.24 179.801 43.144V45.796ZM192.19 43.276C191.806 43.276 191.434 43.24 191.074 43.168C190.714 43.096 190.402 42.988 190.126 42.82C189.85 42.664 189.622 42.448 189.454 42.172C189.286 41.908 189.202 41.572 189.202 41.176C189.202 40.384 189.502 39.82 190.126 39.472C190.738 39.136 191.554 38.956 192.574 38.956C192.766 38.956 192.982 38.968 193.246 38.992C193.51 39.016 193.726 39.04 193.918 39.064V38.992C193.918 38.344 193.762 37.888 193.462 37.612C193.15 37.336 192.682 37.192 192.058 37.192C191.878 37.192 191.698 37.216 191.506 37.24C191.314 37.276 191.134 37.312 190.942 37.36C190.75 37.408 190.582 37.468 190.414 37.54C190.246 37.612 190.006 37.732 189.706 37.9L189.742 36.94C190.162 36.724 190.582 36.58 190.99 36.484C191.398 36.4 191.77 36.352 192.118 36.352C193.006 36.352 193.666 36.556 194.11 36.964C194.542 37.372 194.77 38.008 194.77 38.884V42.784C194.362 42.952 193.942 43.084 193.51 43.156C193.078 43.24 192.634 43.276 192.19 43.276ZM193.918 39.928C193.798 39.904 193.594 39.88 193.294 39.844C192.994 39.82 192.718 39.796 192.454 39.796C192.142 39.796 191.854 39.82 191.566 39.856C191.278 39.904 191.026 39.964 190.81 40.06C190.594 40.156 190.414 40.3 190.294 40.468C190.174 40.636 190.114 40.864 190.114 41.152C190.114 41.416 190.162 41.62 190.27 41.776C190.366 41.944 190.51 42.076 190.69 42.172C190.858 42.268 191.074 42.34 191.326 42.376C191.578 42.424 191.842 42.436 192.13 42.436C192.454 42.436 192.778 42.412 193.114 42.352C193.438 42.304 193.702 42.232 193.918 42.148V39.928ZM199.973 36.664C200.513 36.568 201.005 36.484 201.461 36.436C201.905 36.388 202.325 36.352 202.721 36.352C203.129 36.352 203.501 36.4 203.849 36.472C204.197 36.556 204.497 36.7 204.749 36.916C205.001 37.132 205.193 37.432 205.325 37.792C205.457 38.152 205.529 38.608 205.529 39.16V43.156H204.677V39.52C204.677 39.04 204.629 38.644 204.533 38.344C204.437 38.044 204.317 37.816 204.149 37.648C203.981 37.48 203.777 37.372 203.537 37.3C203.285 37.228 202.997 37.192 202.673 37.192C202.097 37.192 201.473 37.264 200.825 37.384V43.156H199.973V36.664ZM215.146 43.06C214.906 43.12 214.63 43.168 214.294 43.216C213.958 43.264 213.634 43.276 213.31 43.276C212.89 43.276 212.518 43.24 212.182 43.156C211.846 43.084 211.57 42.928 211.33 42.712C211.09 42.496 210.922 42.208 210.802 41.848C210.682 41.488 210.622 41.02 210.622 40.468V36.484H211.474V40.108C211.474 40.6 211.51 40.996 211.594 41.296C211.666 41.608 211.786 41.836 211.93 41.992C212.074 42.16 212.266 42.268 212.506 42.34C212.746 42.412 213.022 42.436 213.358 42.436C213.622 42.436 213.91 42.424 214.222 42.376C214.534 42.34 214.834 42.28 215.146 42.184V36.484H215.998V43.336C215.998 44.224 215.734 44.86 215.218 45.268C214.69 45.676 213.994 45.868 213.13 45.868C212.938 45.868 212.746 45.868 212.554 45.844C212.362 45.82 212.158 45.796 211.966 45.748C211.774 45.712 211.582 45.664 211.39 45.604C211.198 45.544 211.006 45.46 210.814 45.364L210.658 44.308C210.982 44.488 211.234 44.608 211.402 44.68C211.57 44.752 211.762 44.812 211.954 44.86C212.146 44.908 212.326 44.956 212.518 44.98C212.71 45.016 212.89 45.028 213.07 45.028C213.706 45.028 214.21 44.896 214.582 44.608C214.954 44.332 215.146 43.876 215.146 43.228V43.06ZM229.425 42.304H234.393V43.156H228.525V33.112H229.425V42.304ZM237.567 36.484H238.983V34.072H239.835V36.484H242.595V37.312H239.835V40.564C239.835 40.924 239.859 41.212 239.907 41.428C239.955 41.656 240.039 41.836 240.159 41.956C240.267 42.088 240.423 42.184 240.615 42.244C240.807 42.304 241.047 42.328 241.335 42.328H242.679V43.156H241.419C241.059 43.156 240.735 43.12 240.447 43.048C240.159 42.976 239.895 42.844 239.679 42.664C239.451 42.496 239.283 42.256 239.163 41.968C239.043 41.68 238.983 41.332 238.983 40.9V37.312H237.567V36.484ZM247.308 39.844C247.308 40.66 247.536 41.296 248.016 41.752C248.484 42.208 249.216 42.436 250.212 42.436C250.428 42.436 250.656 42.424 250.896 42.388C251.136 42.352 251.364 42.316 251.568 42.268V37.36C251.316 37.3 251.076 37.252 250.836 37.228C250.596 37.204 250.38 37.192 250.212 37.192C249.708 37.192 249.276 37.264 248.916 37.384C248.556 37.504 248.256 37.684 248.016 37.912C247.776 38.152 247.596 38.428 247.476 38.752C247.356 39.076 247.308 39.436 247.308 39.844ZM251.568 33.112H252.42V42.94C252.024 43.06 251.64 43.144 251.256 43.192C250.872 43.252 250.536 43.276 250.236 43.276C249.588 43.276 249.024 43.192 248.544 43.012C248.064 42.832 247.656 42.592 247.344 42.28C247.02 41.968 246.78 41.608 246.624 41.188C246.468 40.768 246.396 40.324 246.396 39.844C246.396 39.376 246.468 38.932 246.624 38.5C246.78 38.08 247.02 37.708 247.344 37.384C247.656 37.072 248.064 36.82 248.544 36.628C249.024 36.448 249.588 36.352 250.236 36.352C250.596 36.352 251.04 36.4 251.568 36.484V33.112Z" fill="#F8F8F8"/>
<path d="M264.5 11C264.5 5.47715 268.977 1 274.5 1H302.5C308.023 1 312.5 5.47715 312.5 11V39C312.5 44.5228 308.023 49 302.5 49H274.5C268.977 49 264.5 44.5228 264.5 39V11Z" fill="white"/>
<path d="M281.5 36.6667V15.6667C281.5 15.0478 281.746 14.4543 282.183 14.0167C282.621 13.5792 283.214 13.3333 283.833 13.3333H293.167C293.786 13.3333 294.379 13.5792 294.817 14.0167C295.254 14.4543 295.5 15.0478 295.5 15.6667V36.6667H281.5Z" stroke="#225854" stroke-width="2.33333" stroke-linecap="round" stroke-linejoin="round"/>
<path d="M281.5 25H279.167C278.548 25 277.954 25.2458 277.517 25.6834C277.079 26.121 276.833 26.7145 276.833 27.3333V34.3333C276.833 34.9522 277.079 35.5457 277.517 35.9832C277.954 36.4208 278.548 36.6667 279.167 36.6667H281.5" stroke="#225854" stroke-width="2.33333" stroke-linecap="round" stroke-linejoin="round"/>
<path d="M295.5 21.5H297.833C298.452 21.5 299.046 21.7458 299.483 22.1834C299.921 22.621 300.167 23.2145 300.167 23.8333V34.3333C300.167 34.9522 299.921 35.5457 299.483 35.9832C299.046 36.4208 298.452 36.6667 297.833 36.6667H295.5" stroke="#225854" stroke-width="2.33333" stroke-linecap="round" stroke-linejoin="round"/>
<path d="M286.167 18H290.833" stroke="#225854" stroke-width="2.33333" stroke-linecap="round" stroke-linejoin="round"/>
<path d="M286.167 22.6667H290.833" stroke="#225854" stroke-width="2.33333" stroke-linecap="round" stroke-linejoin="round"/>
<path d="M286.167 27.3333H290.833" stroke="#225854" stroke-width="2.33333" stroke-linecap="round" stroke-linejoin="round"/>
<path d="M286.167 32H290.833" stroke="#225854" stroke-width="2.33333" stroke-linecap="round" stroke-linejoin="round"/>
</svg>
