<svg width="237" height="48" viewBox="0 0 237 48" fill="none" xmlns="http://www.w3.org/2000/svg">
<path d="M9.528 23C8.328 23 7.224 22.88 6.216 22.592C5.208 22.328 4.344 21.92 3.624 21.344C2.904 20.792 2.328 20.096 1.92 19.232C1.512 18.392 1.32 17.408 1.32 16.256C1.32 15.296 1.488 14.384 1.872 13.568C2.232 12.752 2.76 12.032 3.48 11.432C4.176 10.832 5.04 10.352 6.048 10.016C7.056 9.68 8.232 9.488 9.528 9.488H10.008V8.288H13.368V23H9.528ZM10.008 19.64V12.848H8.712C8.208 12.848 7.728 12.944 7.248 13.088C6.768 13.232 6.336 13.448 5.952 13.736C5.568 14.024 5.256 14.384 5.016 14.816C4.776 15.248 4.68 15.728 4.68 16.256C4.68 16.832 4.776 17.312 4.992 17.72C5.208 18.152 5.496 18.488 5.856 18.776C6.216 19.064 6.624 19.28 7.104 19.424C7.56 19.568 8.04 19.64 8.544 19.64H10.008ZM11.352 6.512C10.824 6.512 10.392 6.368 10.032 6.08C9.648 5.792 9.48 5.36 9.48 4.784C9.48 4.28 9.648 3.872 10.008 3.56C10.368 3.248 10.824 3.08 11.352 3.08C11.88 3.08 12.336 3.248 12.696 3.56C13.032 3.872 13.224 4.28 13.224 4.784C13.224 5.36 13.032 5.792 12.672 6.08C12.288 6.368 11.856 6.512 11.352 6.512ZM6.144 6.512C5.616 6.512 5.184 6.368 4.824 6.08C4.44 5.792 4.272 5.36 4.272 4.784C4.272 4.28 4.44 3.872 4.8 3.56C5.16 3.248 5.616 3.08 6.144 3.08C6.672 3.08 7.104 3.248 7.464 3.56C7.824 3.872 8.016 4.28 8.016 4.784C8.016 5.36 7.824 5.792 7.464 6.08C7.08 6.368 6.648 6.512 6.144 6.512ZM15.5588 19.64H23.9348V15.968C23.9348 15.488 23.8628 15.08 23.7668 14.72C23.6708 14.36 23.5028 14.048 23.2868 13.76C23.0708 13.496 22.7828 13.28 22.4228 13.112C22.0628 12.944 21.6788 12.848 21.2468 12.848H19.8068V9.488H20.9108C21.9908 9.488 22.9508 9.632 23.7668 9.92C24.5828 10.208 25.2788 10.664 25.9028 11.288C26.4068 11.84 26.7668 12.536 26.9828 13.376C27.1748 14.216 27.2948 15.128 27.2948 16.112V23H15.5588V19.64ZM41.8434 22.088C41.8434 23 41.7234 23.84 41.5314 24.608C41.3394 25.376 41.0034 26.024 40.5234 26.552C40.0434 27.104 39.4194 27.536 38.6274 27.824C37.8354 28.136 36.8514 28.28 35.6754 28.28C35.3394 28.28 35.0514 28.28 34.7874 28.256C34.4994 28.232 34.2354 28.184 33.9714 28.136C33.7074 28.088 33.4434 28.04 33.1554 27.968L32.1714 27.704L31.9314 24.32C32.5794 24.536 33.1794 24.68 33.7554 24.776C34.3074 24.872 34.8594 24.92 35.4354 24.92C35.8914 24.92 36.2994 24.92 36.6594 24.872C36.9954 24.824 37.3074 24.752 37.5474 24.608C37.7874 24.464 38.0034 24.272 38.1474 24.008C38.2914 23.768 38.4114 23.432 38.4594 23H38.0754C36.9234 23 35.8434 22.88 34.8354 22.616C33.8274 22.376 32.9634 21.968 32.2194 21.416C31.4754 20.888 30.8994 20.192 30.4674 19.328C30.0354 18.464 29.8434 17.432 29.8434 16.232C29.8434 15.176 30.0354 14.24 30.4434 13.4C30.8514 12.584 31.4274 11.864 32.1474 11.288C32.8674 10.712 33.7554 10.28 34.7634 9.968C35.7714 9.656 36.8754 9.488 38.0754 9.488H41.8674L41.8434 22.088ZM33.2034 16.232C33.2034 16.808 33.2994 17.288 33.4914 17.72C33.6834 18.152 33.9714 18.488 34.3314 18.776C34.6674 19.064 35.0754 19.28 35.5554 19.424C36.0354 19.568 36.5394 19.64 37.0914 19.64H38.5074V12.848H37.0914C36.5874 12.848 36.1074 12.944 35.6274 13.088C35.1474 13.256 34.7394 13.496 34.3794 13.784C34.0194 14.072 33.7314 14.432 33.5154 14.84C33.2994 15.272 33.2034 15.728 33.2034 16.232ZM44.1525 19.64H52.5285V15.968C52.5285 15.488 52.4565 15.08 52.3605 14.72C52.2645 14.36 52.0965 14.048 51.8805 13.76C51.6645 13.496 51.3765 13.28 51.0165 13.112C50.6565 12.944 50.2725 12.848 49.8405 12.848H48.4005V9.488H49.5045C50.5845 9.488 51.5445 9.632 52.3605 9.92C53.1765 10.208 53.8725 10.664 54.4965 11.288C55.0005 11.84 55.3605 12.536 55.5765 13.376C55.7685 14.216 55.8885 15.128 55.8885 16.112V19.64H58.4805V23H44.1525V19.64ZM58.0312 19.64H67.9913C68.1113 19.112 68.2073 18.536 68.2793 17.912C68.3513 17.288 68.3993 16.736 68.3993 16.208C68.3993 15.728 68.3033 15.2 68.1113 14.672C67.9193 14.144 67.6313 13.688 67.2233 13.304C66.5273 12.704 65.5913 12.392 64.3913 12.392C63.7433 12.392 63.1673 12.488 62.6393 12.632C62.1113 12.776 61.5353 13.064 60.9113 13.448L59.5193 10.52C60.2873 10.088 61.1273 9.728 61.9913 9.44C62.8553 9.176 63.7913 9.032 64.7993 9.032C65.7833 9.032 66.6713 9.2 67.4873 9.512C68.3033 9.848 68.9993 10.304 69.5753 10.88C70.1993 11.528 70.7273 12.32 71.1353 13.256C71.5193 14.192 71.7353 15.272 71.7353 16.472C71.7353 17.024 71.6873 17.552 71.6393 18.08C71.5912 18.608 71.5193 19.136 71.4233 19.64H74.0153V23H58.0312V19.64ZM73.5703 19.64H75.8983C75.8263 19.4 75.7783 19.16 75.7543 18.896C75.7303 18.656 75.7303 18.392 75.7303 18.104C75.7303 17.096 75.8983 16.136 76.2823 15.248C76.6663 14.36 77.1703 13.592 77.8183 12.92C78.4663 12.248 79.2343 11.72 80.0983 11.336C80.9623 10.952 81.8983 10.76 82.9063 10.76C83.9143 10.76 84.8503 10.952 85.7383 11.336C86.6263 11.72 87.3943 12.224 88.0663 12.872C88.7383 13.544 89.2423 14.312 89.6263 15.2C90.0103 16.112 90.2023 17.072 90.2023 18.104C90.2023 18.392 90.1783 18.656 90.1543 18.896C90.1063 19.16 90.0823 19.4 90.0343 19.64H92.7223V23H88.2343C87.5623 23.72 86.7463 24.296 85.8343 24.68C84.9223 25.088 83.9383 25.28 82.9063 25.28C81.8743 25.28 80.9143 25.088 80.0263 24.68C79.1143 24.272 78.3463 23.72 77.6743 23H73.5703V19.64ZM82.9063 21.92C83.4343 21.92 83.9623 21.824 84.4423 21.632C84.9223 21.44 85.3303 21.176 85.6903 20.84C86.0503 20.504 86.3383 20.096 86.5303 19.616C86.7223 19.136 86.8423 18.632 86.8423 18.056C86.8423 17.504 86.7463 16.976 86.5543 16.496C86.3623 16.016 86.0743 15.608 85.7383 15.248C85.3783 14.912 84.9703 14.624 84.4903 14.432C84.0103 14.24 83.4823 14.12 82.9063 14.12C82.3303 14.12 81.8263 14.24 81.3703 14.432C80.8903 14.648 80.5063 14.936 80.1703 15.272C79.8343 15.632 79.5703 16.04 79.3783 16.52C79.1863 17 79.0903 17.528 79.0903 18.056C79.0903 18.608 79.1863 19.112 79.3783 19.592C79.5703 20.072 79.8343 20.48 80.1703 20.816C80.5063 21.152 80.9143 21.44 81.3943 21.632C81.8503 21.824 82.3543 21.92 82.9063 21.92ZM92.25 19.64H94.602V3.536H99.522V6.896H97.962V23H92.25V19.64ZM103.597 3.536H106.957V23H103.597V3.536ZM116.785 19.64H125.161V15.968C125.161 15.488 125.089 15.08 124.993 14.72C124.897 14.36 124.729 14.048 124.513 13.76C124.297 13.496 124.009 13.28 123.649 13.112C123.289 12.944 122.905 12.848 122.473 12.848H121.033V9.488H122.137C123.217 9.488 124.177 9.632 124.993 9.92C125.809 10.208 126.505 10.664 127.129 11.288C127.633 11.84 127.993 12.536 128.209 13.376C128.401 14.216 128.521 15.128 128.521 16.112V19.64H131.113V23H116.785V19.64ZM132.632 5.888C132.632 4.808 132.896 4.04 133.424 3.584C133.952 3.152 134.696 2.912 135.656 2.912H137.096V3.992H135.848C135.368 3.992 135.032 4.112 134.84 4.304C134.648 4.52 134.552 4.808 134.552 5.192V5.84H137.864V7.64H132.632V5.888ZM130.664 19.64H133.64V9.488H137V23H130.664V19.64ZM141.565 3.536H144.925V23H141.565V3.536ZM147.559 19.64H155.935V15.968C155.935 15.488 155.863 15.08 155.767 14.72C155.671 14.36 155.503 14.048 155.287 13.76C155.071 13.496 154.783 13.28 154.423 13.112C154.063 12.944 153.679 12.848 153.247 12.848H151.807V9.488H152.911C153.991 9.488 154.951 9.632 155.767 9.92C156.583 10.208 157.279 10.664 157.903 11.288C158.407 11.84 158.767 12.536 158.983 13.376C159.175 14.216 159.295 15.128 159.295 16.112V19.64H161.887V23H147.559V19.64ZM161.438 19.64H164.054C163.766 19.088 163.526 18.464 163.334 17.792C163.142 17.12 163.046 16.4 163.046 15.632C163.046 14.48 163.262 13.472 163.718 12.608C164.15 11.744 164.726 11.024 165.446 10.448C165.998 9.992 166.646 9.632 167.39 9.392C168.134 9.152 168.95 9.032 169.814 9.032C170.702 9.032 171.542 9.152 172.358 9.392C173.174 9.632 173.99 9.944 174.806 10.352L173.678 13.4C173.15 13.112 172.598 12.872 171.974 12.68C171.35 12.488 170.774 12.368 170.222 12.368C169.118 12.368 168.23 12.656 167.605 13.184C167.174 13.568 166.862 13.976 166.694 14.432C166.502 14.888 166.43 15.368 166.43 15.896C166.43 16.664 166.526 17.36 166.766 17.984C166.982 18.608 167.294 19.16 167.702 19.64H175.31V23H161.438V19.64Z" fill="white"/>
<path d="M12.6175 42.156H11.6575L10.3855 38.988H5.96947L4.69747 42.156H3.73747L7.76947 32.112H8.58547L12.6175 42.156ZM6.31747 38.112H10.0375L8.17747 33.504L6.31747 38.112ZM29.4061 41.304C30.1741 41.304 30.8461 41.208 31.4341 41.016C32.0221 40.824 32.5141 40.536 32.9101 40.176C33.3061 39.816 33.6061 39.372 33.8221 38.856C34.0261 38.352 34.1341 37.776 34.1341 37.128C34.1341 36.492 34.0141 35.916 33.7861 35.4C33.5461 34.896 33.2221 34.452 32.8141 34.092C32.3941 33.732 31.8901 33.456 31.3141 33.264C30.7381 33.072 30.1021 32.964 29.4061 32.964H28.0381V41.304H29.4061ZM27.1501 32.112H29.4181C30.2221 32.112 30.9661 32.22 31.6501 32.436C32.3341 32.652 32.9341 32.964 33.4381 33.396C33.9421 33.828 34.3381 34.344 34.6261 34.968C34.9141 35.592 35.0581 36.312 35.0581 37.128C35.0581 37.944 34.9141 38.676 34.6261 39.3C34.3381 39.924 33.9421 40.452 33.4381 40.872C32.9341 41.304 32.3341 41.616 31.6501 41.832C30.9661 42.048 30.2221 42.156 29.4181 42.156H27.1501V32.112ZM57.2737 42.156H56.3137L55.0417 38.988H50.6257L49.3537 42.156H48.3937L52.4257 32.112H53.2417L57.2737 42.156ZM50.9737 38.112H54.6937L52.8337 33.504L50.9737 38.112ZM71.8063 42.156V32.112H72.6943V42.156H71.8063ZM90.7538 41.304C91.5218 41.304 92.1938 41.208 92.7818 41.016C93.3698 40.824 93.8618 40.536 94.2578 40.176C94.6538 39.816 94.9538 39.372 95.1698 38.856C95.3738 38.352 95.4818 37.776 95.4818 37.128C95.4818 36.492 95.3618 35.916 95.1338 35.4C94.8938 34.896 94.5698 34.452 94.1618 34.092C93.7418 33.732 93.2378 33.456 92.6618 33.264C92.0858 33.072 91.4498 32.964 90.7538 32.964H89.3858V41.304H90.7538ZM88.4978 32.112H90.7658C91.5698 32.112 92.3138 32.22 92.9978 32.436C93.6818 32.652 94.2818 32.964 94.7858 33.396C95.2898 33.828 95.6858 34.344 95.9738 34.968C96.2618 35.592 96.4058 36.312 96.4058 37.128C96.4058 37.944 96.2618 38.676 95.9738 39.3C95.6858 39.924 95.2898 40.452 94.7858 40.872C94.2818 41.304 93.6818 41.616 92.9978 41.832C92.3138 42.048 91.5698 42.156 90.7658 42.156H88.4978V32.112ZM129.238 41.304H134.206V42.156H128.338V32.112H129.238V41.304ZM147.38 35.484H148.796V33.072H149.648V35.484H152.408V36.312H149.648V39.564C149.648 39.924 149.672 40.212 149.72 40.428C149.768 40.656 149.852 40.836 149.972 40.956C150.08 41.088 150.236 41.184 150.428 41.244C150.62 41.304 150.86 41.328 151.148 41.328H152.492V42.156H151.232C150.872 42.156 150.548 42.12 150.26 42.048C149.972 41.976 149.708 41.844 149.492 41.664C149.264 41.496 149.096 41.256 148.976 40.968C148.856 40.68 148.796 40.332 148.796 39.9V36.312H147.38V35.484ZM167.12 38.844C167.12 39.66 167.348 40.296 167.828 40.752C168.296 41.208 169.028 41.436 170.024 41.436C170.24 41.436 170.468 41.424 170.708 41.388C170.948 41.352 171.176 41.316 171.38 41.268V36.36C171.128 36.3 170.888 36.252 170.648 36.228C170.408 36.204 170.192 36.192 170.024 36.192C169.52 36.192 169.088 36.264 168.728 36.384C168.368 36.504 168.068 36.684 167.828 36.912C167.588 37.152 167.408 37.428 167.288 37.752C167.168 38.076 167.12 38.436 167.12 38.844ZM171.38 32.112H172.232V41.94C171.836 42.06 171.452 42.144 171.068 42.192C170.684 42.252 170.348 42.276 170.048 42.276C169.4 42.276 168.836 42.192 168.356 42.012C167.876 41.832 167.468 41.592 167.156 41.28C166.832 40.968 166.592 40.608 166.436 40.188C166.28 39.768 166.208 39.324 166.208 38.844C166.208 38.376 166.28 37.932 166.436 37.5C166.592 37.08 166.832 36.708 167.156 36.384C167.468 36.072 167.876 35.82 168.356 35.628C168.836 35.448 169.4 35.352 170.048 35.352C170.408 35.352 170.852 35.4 171.38 35.484V32.112Z" fill="#F8F8F8"/>
<path d="M189 10C189 4.47715 193.477 0 199 0H227C232.523 0 237 4.47715 237 10V38C237 43.5229 232.523 48 227 48H199C193.477 48 189 43.5228 189 38V10Z" fill="white"/>
<path d="M206 35.6667V14.6667C206 14.0478 206.246 13.4543 206.683 13.0167C207.121 12.5792 207.714 12.3333 208.333 12.3333H217.667C218.286 12.3333 218.879 12.5792 219.317 13.0167C219.754 13.4543 220 14.0478 220 14.6667V35.6667H206Z" stroke="#225854" stroke-width="2.33333" stroke-linecap="round" stroke-linejoin="round"/>
<path d="M206 24H203.667C203.048 24 202.454 24.2458 202.017 24.6834C201.579 25.121 201.333 25.7145 201.333 26.3333V33.3333C201.333 33.9522 201.579 34.5457 202.017 34.9832C202.454 35.4208 203.048 35.6667 203.667 35.6667H206" stroke="#225854" stroke-width="2.33333" stroke-linecap="round" stroke-linejoin="round"/>
<path d="M220 20.5H222.333C222.952 20.5 223.546 20.7458 223.983 21.1834C224.421 21.621 224.667 22.2145 224.667 22.8333V33.3333C224.667 33.9522 224.421 34.5457 223.983 34.9832C223.546 35.4208 222.952 35.6667 222.333 35.6667H220" stroke="#225854" stroke-width="2.33333" stroke-linecap="round" stroke-linejoin="round"/>
<path d="M210.667 17H215.333" stroke="#225854" stroke-width="2.33333" stroke-linecap="round" stroke-linejoin="round"/>
<path d="M210.667 21.6667H215.333" stroke="#225854" stroke-width="2.33333" stroke-linecap="round" stroke-linejoin="round"/>
<path d="M210.667 26.3333H215.333" stroke="#225854" stroke-width="2.33333" stroke-linecap="round" stroke-linejoin="round"/>
<path d="M210.667 31H215.333" stroke="#225854" stroke-width="2.33333" stroke-linecap="round" stroke-linejoin="round"/>
</svg>
