<svg width="313" height="49" viewBox="0 0 313 49" fill="none" xmlns="http://www.w3.org/2000/svg">
<path d="M9.528 24C8.328 24 7.224 23.88 6.216 23.592C5.208 23.328 4.344 22.92 3.624 22.344C2.904 21.792 2.328 21.096 1.92 20.232C1.512 19.392 1.32 18.408 1.32 17.256C1.32 16.296 1.488 15.384 1.872 14.568C2.232 13.752 2.76 13.032 3.48 12.432C4.176 11.832 5.04 11.352 6.048 11.016C7.056 10.68 8.232 10.488 9.528 10.488H10.008V9.288H13.368V24H9.528ZM10.008 20.64V13.848H8.712C8.208 13.848 7.728 13.944 7.248 14.088C6.768 14.232 6.336 14.448 5.952 14.736C5.568 15.024 5.256 15.384 5.016 15.816C4.776 16.248 4.68 16.728 4.68 17.256C4.68 17.832 4.776 18.312 4.992 18.72C5.208 19.152 5.496 19.488 5.856 19.776C6.216 20.064 6.624 20.28 7.104 20.424C7.56 20.568 8.04 20.64 8.544 20.64H10.008ZM11.352 7.512C10.824 7.512 10.392 7.368 10.032 7.08C9.648 6.792 9.48 6.36 9.48 5.784C9.48 5.28 9.648 4.872 10.008 4.56C10.368 4.248 10.824 4.08 11.352 4.08C11.88 4.08 12.336 4.248 12.696 4.56C13.032 4.872 13.224 5.28 13.224 5.784C13.224 6.36 13.032 6.792 12.672 7.08C12.288 7.368 11.856 7.512 11.352 7.512ZM6.144 7.512C5.616 7.512 5.184 7.368 4.824 7.08C4.44 6.792 4.272 6.36 4.272 5.784C4.272 5.28 4.44 4.872 4.8 4.56C5.16 4.248 5.616 4.08 6.144 4.08C6.672 4.08 7.104 4.248 7.464 4.56C7.824 4.872 8.016 5.28 8.016 5.784C8.016 6.36 7.824 6.792 7.464 7.08C7.08 7.368 6.648 7.512 6.144 7.512ZM15.5588 20.64H23.9348V16.968C23.9348 16.488 23.8628 16.08 23.7668 15.72C23.6708 15.36 23.5028 15.048 23.2868 14.76C23.0708 14.496 22.7828 14.28 22.4228 14.112C22.0628 13.944 21.6788 13.848 21.2468 13.848H19.8068V10.488H20.9108C21.9908 10.488 22.9508 10.632 23.7668 10.92C24.5828 11.208 25.2788 11.664 25.9028 12.288C26.4068 12.84 26.7668 13.536 26.9828 14.376C27.1748 15.216 27.2948 16.128 27.2948 17.112V24H15.5588V20.64ZM41.8434 23.088C41.8434 24 41.7234 24.84 41.5314 25.608C41.3394 26.376 41.0034 27.024 40.5234 27.552C40.0434 28.104 39.4194 28.536 38.6274 28.824C37.8354 29.136 36.8514 29.28 35.6754 29.28C35.3394 29.28 35.0514 29.28 34.7874 29.256C34.4994 29.232 34.2354 29.184 33.9714 29.136C33.7074 29.088 33.4434 29.04 33.1554 28.968L32.1714 28.704L31.9314 25.32C32.5794 25.536 33.1794 25.68 33.7554 25.776C34.3074 25.872 34.8594 25.92 35.4354 25.92C35.8914 25.92 36.2994 25.92 36.6594 25.872C36.9954 25.824 37.3074 25.752 37.5474 25.608C37.7874 25.464 38.0034 25.272 38.1474 25.008C38.2914 24.768 38.4114 24.432 38.4594 24H38.0754C36.9234 24 35.8434 23.88 34.8354 23.616C33.8274 23.376 32.9634 22.968 32.2194 22.416C31.4754 21.888 30.8994 21.192 30.4674 20.328C30.0354 19.464 29.8434 18.432 29.8434 17.232C29.8434 16.176 30.0354 15.24 30.4434 14.4C30.8514 13.584 31.4274 12.864 32.1474 12.288C32.8674 11.712 33.7554 11.28 34.7634 10.968C35.7714 10.656 36.8754 10.488 38.0754 10.488H41.8674L41.8434 23.088ZM33.2034 17.232C33.2034 17.808 33.2994 18.288 33.4914 18.72C33.6834 19.152 33.9714 19.488 34.3314 19.776C34.6674 20.064 35.0754 20.28 35.5554 20.424C36.0354 20.568 36.5394 20.64 37.0914 20.64H38.5074V13.848H37.0914C36.5874 13.848 36.1074 13.944 35.6274 14.088C35.1474 14.256 34.7394 14.496 34.3794 14.784C34.0194 15.072 33.7314 15.432 33.5154 15.84C33.2994 16.272 33.2034 16.728 33.2034 17.232ZM44.1525 20.64H52.5285V16.968C52.5285 16.488 52.4565 16.08 52.3605 15.72C52.2645 15.36 52.0965 15.048 51.8805 14.76C51.6645 14.496 51.3765 14.28 51.0165 14.112C50.6565 13.944 50.2725 13.848 49.8405 13.848H48.4005V10.488H49.5045C50.5845 10.488 51.5445 10.632 52.3605 10.92C53.1765 11.208 53.8725 11.664 54.4965 12.288C55.0005 12.84 55.3605 13.536 55.5765 14.376C55.7685 15.216 55.8885 16.128 55.8885 17.112V20.64H58.4805V24H44.1525V20.64ZM58.0312 20.64H67.9913C68.1113 20.112 68.2073 19.536 68.2793 18.912C68.3513 18.288 68.3993 17.736 68.3993 17.208C68.3993 16.728 68.3033 16.2 68.1113 15.672C67.9193 15.144 67.6313 14.688 67.2233 14.304C66.5273 13.704 65.5913 13.392 64.3913 13.392C63.7433 13.392 63.1673 13.488 62.6393 13.632C62.1113 13.776 61.5353 14.064 60.9113 14.448L59.5193 11.52C60.2873 11.088 61.1273 10.728 61.9913 10.44C62.8553 10.176 63.7913 10.032 64.7993 10.032C65.7833 10.032 66.6713 10.2 67.4873 10.512C68.3033 10.848 68.9993 11.304 69.5753 11.88C70.1993 12.528 70.7273 13.32 71.1353 14.256C71.5193 15.192 71.7353 16.272 71.7353 17.472C71.7353 18.024 71.6873 18.552 71.6393 19.08C71.5912 19.608 71.5193 20.136 71.4233 20.64H74.0153V24H58.0312V20.64ZM73.5703 20.64H75.8983C75.8263 20.4 75.7783 20.16 75.7543 19.896C75.7303 19.656 75.7303 19.392 75.7303 19.104C75.7303 18.096 75.8983 17.136 76.2823 16.248C76.6663 15.36 77.1703 14.592 77.8183 13.92C78.4663 13.248 79.2343 12.72 80.0983 12.336C80.9623 11.952 81.8983 11.76 82.9063 11.76C83.9143 11.76 84.8503 11.952 85.7383 12.336C86.6263 12.72 87.3943 13.224 88.0663 13.872C88.7383 14.544 89.2423 15.312 89.6263 16.2C90.0103 17.112 90.2023 18.072 90.2023 19.104C90.2023 19.392 90.1783 19.656 90.1543 19.896C90.1063 20.16 90.0823 20.4 90.0343 20.64H92.7223V24H88.2343C87.5623 24.72 86.7463 25.296 85.8343 25.68C84.9223 26.088 83.9383 26.28 82.9063 26.28C81.8743 26.28 80.9143 26.088 80.0263 25.68C79.1143 25.272 78.3463 24.72 77.6743 24H73.5703V20.64ZM82.9063 22.92C83.4343 22.92 83.9623 22.824 84.4423 22.632C84.9223 22.44 85.3303 22.176 85.6903 21.84C86.0503 21.504 86.3383 21.096 86.5303 20.616C86.7223 20.136 86.8423 19.632 86.8423 19.056C86.8423 18.504 86.7463 17.976 86.5543 17.496C86.3623 17.016 86.0743 16.608 85.7383 16.248C85.3783 15.912 84.9703 15.624 84.4903 15.432C84.0103 15.24 83.4823 15.12 82.9063 15.12C82.3303 15.12 81.8263 15.24 81.3703 15.432C80.8903 15.648 80.5063 15.936 80.1703 16.272C79.8343 16.632 79.5703 17.04 79.3783 17.52C79.1863 18 79.0903 18.528 79.0903 19.056C79.0903 19.608 79.1863 20.112 79.3783 20.592C79.5703 21.072 79.8343 21.48 80.1703 21.816C80.5063 22.152 80.9143 22.44 81.3943 22.632C81.8503 22.824 82.3543 22.92 82.9063 22.92ZM92.25 20.64H94.602V4.536H99.522V7.896H97.962V24H92.25V20.64ZM103.597 4.536H106.957V24H103.597V4.536ZM116.785 20.64H125.161V16.968C125.161 16.488 125.089 16.08 124.993 15.72C124.897 15.36 124.729 15.048 124.513 14.76C124.297 14.496 124.009 14.28 123.649 14.112C123.289 13.944 122.905 13.848 122.473 13.848H121.033V10.488H122.137C123.217 10.488 124.177 10.632 124.993 10.92C125.809 11.208 126.505 11.664 127.129 12.288C127.633 12.84 127.993 13.536 128.209 14.376C128.401 15.216 128.521 16.128 128.521 17.112V20.64H131.113V24H116.785V20.64ZM132.632 6.888C132.632 5.808 132.896 5.04 133.424 4.584C133.952 4.152 134.696 3.912 135.656 3.912H137.096V4.992H135.848C135.368 4.992 135.032 5.112 134.84 5.304C134.648 5.52 134.552 5.808 134.552 6.192V6.84H137.864V8.64H132.632V6.888ZM130.664 20.64H133.64V10.488H137V24H130.664V20.64ZM141.565 4.536H144.925V24H141.565V4.536ZM147.559 20.64H155.935V16.968C155.935 16.488 155.863 16.08 155.767 15.72C155.671 15.36 155.503 15.048 155.287 14.76C155.071 14.496 154.783 14.28 154.423 14.112C154.063 13.944 153.679 13.848 153.247 13.848H151.807V10.488H152.911C153.991 10.488 154.951 10.632 155.767 10.92C156.583 11.208 157.279 11.664 157.903 12.288C158.407 12.84 158.767 13.536 158.983 14.376C159.175 15.216 159.295 16.128 159.295 17.112V20.64H161.887V24H147.559V20.64ZM161.438 20.64H164.054C163.766 20.088 163.526 19.464 163.334 18.792C163.142 18.12 163.046 17.4 163.046 16.632C163.046 15.48 163.262 14.472 163.718 13.608C164.15 12.744 164.726 12.024 165.446 11.448C165.998 10.992 166.646 10.632 167.39 10.392C168.134 10.152 168.95 10.032 169.814 10.032C170.702 10.032 171.542 10.152 172.358 10.392C173.174 10.632 173.99 10.944 174.806 11.352L173.678 14.4C173.15 14.112 172.598 13.872 171.974 13.68C171.35 13.488 170.774 13.368 170.222 13.368C169.118 13.368 168.23 13.656 167.605 14.184C167.174 14.568 166.862 14.976 166.694 15.432C166.502 15.888 166.43 16.368 166.43 16.896C166.43 17.664 166.526 18.36 166.766 18.984C166.982 19.608 167.294 20.16 167.702 20.64H175.31V24H161.438V20.64ZM198.998 20.64V24H192.95C191.75 24 190.646 23.88 189.638 23.592C188.63 23.328 187.766 22.92 187.046 22.344C186.326 21.792 185.75 21.096 185.342 20.232C184.934 19.392 184.742 18.408 184.742 17.256C184.742 16.296 184.91 15.384 185.294 14.568C185.654 13.752 186.182 13.032 186.902 12.432C187.598 11.832 188.462 11.352 189.47 11.016C190.478 10.68 191.654 10.488 192.95 10.488H193.43V9.288H196.79V20.64H198.998ZM193.43 20.64V13.848H192.134C191.63 13.848 191.15 13.944 190.67 14.088C190.19 14.232 189.758 14.448 189.374 14.736C188.99 15.024 188.678 15.384 188.438 15.816C188.198 16.248 188.102 16.728 188.102 17.256C188.102 17.832 188.198 18.312 188.414 18.72C188.63 19.152 188.918 19.488 189.278 19.776C189.638 20.064 190.046 20.28 190.526 20.424C190.982 20.568 191.462 20.64 191.966 20.64H193.43ZM194.774 7.512C194.246 7.512 193.814 7.368 193.454 7.08C193.07 6.792 192.902 6.36 192.902 5.784C192.902 5.28 193.07 4.872 193.43 4.56C193.79 4.248 194.246 4.08 194.774 4.08C195.302 4.08 195.758 4.248 196.118 4.56C196.454 4.872 196.646 5.28 196.646 5.784C196.646 6.36 196.454 6.792 196.094 7.08C195.71 7.368 195.278 7.512 194.774 7.512ZM189.566 7.512C189.038 7.512 188.606 7.368 188.246 7.08C187.862 6.792 187.694 6.36 187.694 5.784C187.694 5.28 187.862 4.872 188.222 4.56C188.582 4.248 189.038 4.08 189.566 4.08C190.094 4.08 190.526 4.248 190.886 4.56C191.246 4.872 191.438 5.28 191.438 5.784C191.438 6.36 191.246 6.792 190.886 7.08C190.502 7.368 190.07 7.512 189.566 7.512ZM198.539 20.64H213.491V18.072C213.491 17.592 213.419 17.184 213.323 16.824C213.227 16.464 213.059 16.152 212.843 15.864C212.627 15.6 212.339 15.384 211.979 15.192C211.619 15.024 211.235 14.928 210.803 14.928H200.771C200.459 14.544 200.195 14.064 199.979 13.512C199.763 12.96 199.643 12.312 199.619 11.592L203.507 4.536H207.107L203.387 11.592H210.467C211.547 11.592 212.507 11.736 213.323 12.024C214.139 12.312 214.835 12.768 215.459 13.392C215.963 13.944 216.323 14.64 216.539 15.48C216.731 16.32 216.851 17.232 216.851 18.216V24H198.539V20.64ZM220.797 29.28C220.461 29.28 220.149 29.28 219.861 29.232C219.549 29.184 219.285 29.136 219.093 29.064L218.853 25.704C219.165 25.8 219.453 25.848 219.693 25.872C219.933 25.92 220.173 25.92 220.437 25.92C221.109 25.92 221.565 25.752 221.829 25.368C222.093 25.008 222.237 24.408 222.237 23.568V10.488H225.597V20.64H228.189V24H225.573C225.477 25.872 225.045 27.216 224.301 28.032C223.533 28.872 222.381 29.28 220.797 29.28ZM227.719 20.64H232.951V11.688H236.311V20.64H238.759C239.095 20.64 239.455 20.616 239.839 20.52C240.223 20.424 240.559 20.28 240.871 20.04C241.183 19.8 241.447 19.488 241.639 19.104C241.831 18.72 241.927 18.24 241.927 17.64V11.688H245.287V17.496C245.287 18.648 245.551 19.512 246.103 20.064C246.655 20.616 247.399 20.88 248.311 20.88C249.271 20.88 249.991 20.616 250.471 20.064C250.951 19.536 251.191 18.792 251.191 17.856V8.808H254.527V17.424C254.527 19.752 253.999 21.48 252.991 22.584C251.959 23.688 250.399 24.24 248.311 24.24C247.831 24.24 247.375 24.216 246.943 24.144C246.487 24.072 246.055 23.952 245.647 23.76C245.215 23.592 244.831 23.352 244.471 23.064C244.111 22.776 243.799 22.392 243.535 21.936C242.911 22.584 242.191 23.088 241.375 23.448C240.535 23.832 239.671 24 238.759 24H227.719V20.64ZM246.151 8.304C245.671 8.304 245.239 8.184 244.879 7.896C244.519 7.608 244.351 7.2 244.351 6.624C244.351 6.144 244.519 5.736 244.855 5.424C245.191 5.136 245.623 4.968 246.151 4.968C246.679 4.968 247.111 5.136 247.447 5.424C247.783 5.736 247.975 6.144 247.975 6.624C247.975 7.2 247.783 7.608 247.423 7.896C247.063 8.184 246.631 8.304 246.151 8.304ZM241.063 8.304C240.583 8.304 240.151 8.184 239.791 7.896C239.431 7.608 239.263 7.2 239.263 6.624C239.263 6.144 239.431 5.736 239.767 5.424C240.103 5.136 240.535 4.968 241.063 4.968C241.567 4.968 241.999 5.136 242.359 5.424C242.695 5.736 242.887 6.144 242.887 6.624C242.887 7.2 242.695 7.608 242.335 7.896C241.951 8.184 241.543 8.304 241.063 8.304ZM243.607 4.488C243.175 4.488 242.815 4.368 242.479 4.128C242.143 3.888 241.999 3.504 241.999 3.024C241.999 2.592 242.143 2.256 242.455 1.968C242.743 1.704 243.127 1.56 243.607 1.56C244.063 1.56 244.447 1.704 244.759 1.968C245.047 2.256 245.215 2.592 245.215 3.024C245.215 3.504 245.047 3.888 244.735 4.128C244.399 4.368 244.039 4.488 243.607 4.488Z" fill="white"/>
<path d="M90.4363 44H89.3283L92.5328 35.2727H93.6238L96.8283 44H95.7203L93.1124 36.6534H93.0442L90.4363 44ZM90.8453 40.5909H95.3113V41.5284H90.8453V40.5909ZM103.523 44.1364C102.977 44.1364 102.496 43.9986 102.078 43.723C101.661 43.4446 101.334 43.0526 101.098 42.5469C100.862 42.0384 100.744 41.4375 100.744 40.7443C100.744 40.0568 100.862 39.4602 101.098 38.9545C101.334 38.4489 101.662 38.0582 102.083 37.7827C102.503 37.5071 102.989 37.3693 103.54 37.3693C103.966 37.3693 104.303 37.4403 104.55 37.5824C104.8 37.7216 104.99 37.8807 105.121 38.0597C105.254 38.2358 105.358 38.3807 105.432 38.4943H105.517V35.2727H106.523V44H105.551V42.9943H105.432C105.358 43.1136 105.253 43.2642 105.117 43.446C104.98 43.625 104.786 43.7855 104.533 43.9276C104.28 44.0668 103.943 44.1364 103.523 44.1364ZM103.659 43.233C104.063 43.233 104.404 43.1278 104.682 42.9176C104.96 42.7045 105.172 42.4105 105.317 42.0355C105.462 41.6577 105.534 41.2216 105.534 40.7273C105.534 40.2386 105.463 39.8111 105.321 39.4446C105.179 39.0753 104.969 38.7884 104.691 38.5838C104.412 38.3764 104.068 38.2727 103.659 38.2727C103.233 38.2727 102.878 38.3821 102.594 38.6009C102.313 38.8168 102.101 39.1108 101.959 39.483C101.82 39.8523 101.75 40.267 101.75 40.7273C101.75 41.1932 101.821 41.6165 101.963 41.9972C102.108 42.375 102.321 42.6761 102.602 42.9006C102.887 43.1222 103.239 43.233 103.659 43.233ZM113.431 44.1534C113.016 44.1534 112.639 44.0753 112.301 43.919C111.963 43.7599 111.695 43.5312 111.496 43.233C111.297 42.9318 111.198 42.5682 111.198 42.142C111.198 41.767 111.271 41.4631 111.419 41.2301C111.567 40.9943 111.764 40.8097 112.012 40.6761C112.259 40.5426 112.531 40.4432 112.83 40.3778C113.131 40.3097 113.433 40.2557 113.737 40.2159C114.135 40.1648 114.458 40.1264 114.705 40.1009C114.955 40.0724 115.137 40.0256 115.25 39.9602C115.367 39.8949 115.425 39.7812 115.425 39.6193V39.5852C115.425 39.1648 115.31 38.8381 115.08 38.6051C114.852 38.3722 114.507 38.2557 114.044 38.2557C113.564 38.2557 113.188 38.3608 112.915 38.571C112.642 38.7812 112.45 39.0057 112.34 39.2443L111.385 38.9034C111.556 38.5057 111.783 38.196 112.067 37.9744C112.354 37.75 112.666 37.5937 113.004 37.5057C113.345 37.4148 113.681 37.3693 114.01 37.3693C114.22 37.3693 114.462 37.3949 114.735 37.446C115.01 37.4943 115.276 37.5952 115.531 37.7486C115.79 37.902 116.004 38.1335 116.175 38.4432C116.345 38.7528 116.431 39.1676 116.431 39.6875V44H115.425V43.1136H115.374C115.306 43.2557 115.192 43.4077 115.033 43.5696C114.874 43.7315 114.662 43.8693 114.398 43.983C114.134 44.0966 113.811 44.1534 113.431 44.1534ZM113.584 43.25C113.982 43.25 114.317 43.1719 114.59 43.0156C114.865 42.8594 115.073 42.6577 115.212 42.4105C115.354 42.1634 115.425 41.9034 115.425 41.6307V40.7102C115.382 40.7614 115.289 40.8082 115.144 40.8509C115.002 40.8906 114.837 40.9261 114.649 40.9574C114.465 40.9858 114.284 41.0114 114.108 41.0341C113.935 41.054 113.794 41.071 113.686 41.0852C113.425 41.1193 113.181 41.1747 112.953 41.2514C112.729 41.3253 112.547 41.4375 112.408 41.5881C112.271 41.7358 112.203 41.9375 112.203 42.1932C112.203 42.5426 112.333 42.8068 112.591 42.9858C112.852 43.1619 113.183 43.25 113.584 43.25ZM121.266 44V37.4545H122.272V44H121.266ZM121.778 36.3636C121.581 36.3636 121.412 36.2969 121.27 36.1634C121.131 36.0298 121.062 35.8693 121.062 35.6818C121.062 35.4943 121.131 35.3338 121.27 35.2003C121.412 35.0668 121.581 35 121.778 35C121.974 35 122.141 35.0668 122.28 35.2003C122.422 35.3338 122.493 35.4943 122.493 35.6818C122.493 35.8693 122.422 36.0298 122.28 36.1634C122.141 36.2969 121.974 36.3636 121.778 36.3636ZM129.585 44.1364C129.04 44.1364 128.558 43.9986 128.141 43.723C127.723 43.4446 127.396 43.0526 127.161 42.5469C126.925 42.0384 126.807 41.4375 126.807 40.7443C126.807 40.0568 126.925 39.4602 127.161 38.9545C127.396 38.4489 127.725 38.0582 128.145 37.7827C128.566 37.5071 129.051 37.3693 129.602 37.3693C130.029 37.3693 130.365 37.4403 130.612 37.5824C130.862 37.7216 131.053 37.8807 131.183 38.0597C131.317 38.2358 131.421 38.3807 131.494 38.4943H131.58V35.2727H132.585V44H131.614V42.9943H131.494C131.421 43.1136 131.316 43.2642 131.179 43.446C131.043 43.625 130.848 43.7855 130.595 43.9276C130.343 44.0668 130.006 44.1364 129.585 44.1364ZM129.722 43.233C130.125 43.233 130.466 43.1278 130.744 42.9176C131.023 42.7045 131.235 42.4105 131.379 42.0355C131.524 41.6577 131.597 41.2216 131.597 40.7273C131.597 40.2386 131.526 39.8111 131.384 39.4446C131.242 39.0753 131.031 38.7884 130.753 38.5838C130.475 38.3764 130.131 38.2727 129.722 38.2727C129.296 38.2727 128.941 38.3821 128.656 38.6009C128.375 38.8168 128.164 39.1108 128.021 39.483C127.882 39.8523 127.813 40.267 127.813 40.7273C127.813 41.1932 127.884 41.6165 128.026 41.9972C128.171 42.375 128.384 42.6761 128.665 42.9006C128.949 43.1222 129.301 43.233 129.722 43.233ZM151.101 38H150.044C149.982 37.696 149.872 37.429 149.716 37.1989C149.563 36.9688 149.375 36.7756 149.154 36.6193C148.935 36.4602 148.692 36.3409 148.425 36.2614C148.158 36.1818 147.879 36.142 147.59 36.142C147.061 36.142 146.583 36.2756 146.154 36.5426C145.727 36.8097 145.388 37.2031 145.135 37.723C144.885 38.2429 144.76 38.8807 144.76 39.6364C144.76 40.392 144.885 41.0298 145.135 41.5497C145.388 42.0696 145.727 42.4631 146.154 42.7301C146.583 42.9972 147.061 43.1307 147.59 43.1307C147.879 43.1307 148.158 43.0909 148.425 43.0114C148.692 42.9318 148.935 42.8139 149.154 42.6577C149.375 42.4986 149.563 42.304 149.716 42.0739C149.872 41.8409 149.982 41.5739 150.044 41.2727H151.101C151.021 41.7187 150.877 42.1179 150.666 42.4702C150.456 42.8224 150.195 43.1222 149.882 43.3693C149.57 43.6136 149.219 43.7997 148.83 43.9276C148.443 44.0554 148.03 44.1193 147.59 44.1193C146.845 44.1193 146.183 43.9375 145.604 43.5739C145.024 43.2102 144.568 42.6932 144.236 42.0227C143.904 41.3523 143.737 40.5568 143.737 39.6364C143.737 38.7159 143.904 37.9205 144.236 37.25C144.568 36.5795 145.024 36.0625 145.604 35.6989C146.183 35.3352 146.845 35.1534 147.59 35.1534C148.03 35.1534 148.443 35.2173 148.83 35.3452C149.219 35.473 149.57 35.6605 149.882 35.9077C150.195 36.152 150.456 36.4503 150.666 36.8026C150.877 37.152 151.021 37.5511 151.101 38ZM158.331 44.1364C157.741 44.1364 157.222 43.9957 156.776 43.7145C156.333 43.4332 155.986 43.0398 155.736 42.5341C155.489 42.0284 155.366 41.4375 155.366 40.7614C155.366 40.0795 155.489 39.4844 155.736 38.9759C155.986 38.4673 156.333 38.0724 156.776 37.7912C157.222 37.5099 157.741 37.3693 158.331 37.3693C158.922 37.3693 159.439 37.5099 159.883 37.7912C160.329 38.0724 160.675 38.4673 160.922 38.9759C161.172 39.4844 161.297 40.0795 161.297 40.7614C161.297 41.4375 161.172 42.0284 160.922 42.5341C160.675 43.0398 160.329 43.4332 159.883 43.7145C159.439 43.9957 158.922 44.1364 158.331 44.1364ZM158.331 43.233C158.78 43.233 159.15 43.1179 159.439 42.8878C159.729 42.6577 159.944 42.3551 160.083 41.9801C160.222 41.6051 160.292 41.1989 160.292 40.7614C160.292 40.3239 160.222 39.9162 160.083 39.5384C159.944 39.1605 159.729 38.8551 159.439 38.6222C159.15 38.3892 158.78 38.2727 158.331 38.2727C157.883 38.2727 157.513 38.3892 157.224 38.6222C156.934 38.8551 156.719 39.1605 156.58 39.5384C156.441 39.9162 156.371 40.3239 156.371 40.7614C156.371 41.1989 156.441 41.6051 156.58 41.9801C156.719 42.3551 156.934 42.6577 157.224 42.8878C157.513 43.1179 157.883 43.233 158.331 43.233ZM165.833 44V37.4545H166.804V38.4773H166.889C167.026 38.1278 167.246 37.8565 167.55 37.6634C167.854 37.4673 168.219 37.3693 168.645 37.3693C169.077 37.3693 169.436 37.4673 169.723 37.6634C170.013 37.8565 170.239 38.1278 170.401 38.4773H170.469C170.637 38.1392 170.888 37.8707 171.223 37.6719C171.558 37.4702 171.96 37.3693 172.429 37.3693C173.014 37.3693 173.493 37.5526 173.865 37.919C174.237 38.2827 174.423 38.8494 174.423 39.6193V44H173.418V39.6193C173.418 39.1364 173.286 38.7912 173.021 38.5838C172.757 38.3764 172.446 38.2727 172.088 38.2727C171.628 38.2727 171.271 38.4119 171.019 38.6903C170.766 38.9659 170.639 39.3153 170.639 39.7386V44H169.617V39.517C169.617 39.1449 169.496 38.8452 169.254 38.6179C169.013 38.3878 168.702 38.2727 168.321 38.2727C168.06 38.2727 167.816 38.3423 167.588 38.4815C167.364 38.6207 167.182 38.8139 167.043 39.0611C166.906 39.3054 166.838 39.5881 166.838 39.9091V44H165.833ZM179.262 46.4545V37.4545H180.234V38.4943H180.353C180.427 38.3807 180.529 38.2358 180.66 38.0597C180.794 37.8807 180.984 37.7216 181.231 37.5824C181.481 37.4403 181.819 37.3693 182.245 37.3693C182.796 37.3693 183.282 37.5071 183.703 37.7827C184.123 38.0582 184.451 38.4489 184.687 38.9545C184.923 39.4602 185.041 40.0568 185.041 40.7443C185.041 41.4375 184.923 42.0384 184.687 42.5469C184.451 43.0526 184.124 43.4446 183.707 43.723C183.289 43.9986 182.808 44.1364 182.262 44.1364C181.842 44.1364 181.505 44.0668 181.252 43.9276C180.999 43.7855 180.805 43.625 180.669 43.446C180.532 43.2642 180.427 43.1136 180.353 42.9943H180.268V46.4545H179.262ZM180.251 40.7273C180.251 41.2216 180.323 41.6577 180.468 42.0355C180.613 42.4105 180.825 42.7045 181.103 42.9176C181.382 43.1278 181.722 43.233 182.126 43.233C182.546 43.233 182.897 43.1222 183.178 42.9006C183.463 42.6761 183.676 42.375 183.818 41.9972C183.963 41.6165 184.035 41.1932 184.035 40.7273C184.035 40.267 183.964 39.8523 183.822 39.483C183.683 39.1108 183.471 38.8168 183.187 38.6009C182.906 38.3821 182.552 38.2727 182.126 38.2727C181.717 38.2727 181.373 38.3764 181.095 38.5838C180.816 38.7884 180.606 39.0753 180.464 39.4446C180.322 39.8111 180.251 40.2386 180.251 40.7273ZM191.501 44.1534C191.086 44.1534 190.71 44.0753 190.372 43.919C190.034 43.7599 189.765 43.5312 189.566 43.233C189.367 42.9318 189.268 42.5682 189.268 42.142C189.268 41.767 189.342 41.4631 189.49 41.2301C189.637 40.9943 189.835 40.8097 190.082 40.6761C190.329 40.5426 190.602 40.4432 190.9 40.3778C191.201 40.3097 191.504 40.2557 191.808 40.2159C192.205 40.1648 192.528 40.1264 192.775 40.1009C193.025 40.0724 193.207 40.0256 193.32 39.9602C193.437 39.8949 193.495 39.7812 193.495 39.6193V39.5852C193.495 39.1648 193.38 38.8381 193.15 38.6051C192.923 38.3722 192.578 38.2557 192.115 38.2557C191.634 38.2557 191.258 38.3608 190.985 38.571C190.713 38.7812 190.521 39.0057 190.41 39.2443L189.455 38.9034C189.626 38.5057 189.853 38.196 190.137 37.9744C190.424 37.75 190.737 37.5937 191.075 37.5057C191.416 37.4148 191.751 37.3693 192.08 37.3693C192.291 37.3693 192.532 37.3949 192.805 37.446C193.08 37.4943 193.346 37.5952 193.602 37.7486C193.86 37.902 194.075 38.1335 194.245 38.4432C194.416 38.7528 194.501 39.1676 194.501 39.6875V44H193.495V43.1136H193.444C193.376 43.2557 193.262 43.4077 193.103 43.5696C192.944 43.7315 192.732 43.8693 192.468 43.983C192.204 44.0966 191.882 44.1534 191.501 44.1534ZM191.654 43.25C192.052 43.25 192.387 43.1719 192.66 43.0156C192.936 42.8594 193.143 42.6577 193.282 42.4105C193.424 42.1634 193.495 41.9034 193.495 41.6307V40.7102C193.453 40.7614 193.359 40.8082 193.214 40.8509C193.072 40.8906 192.907 40.9261 192.72 40.9574C192.535 40.9858 192.355 41.0114 192.178 41.0341C192.005 41.054 191.865 41.071 191.757 41.0852C191.495 41.1193 191.251 41.1747 191.024 41.2514C190.799 41.3253 190.617 41.4375 190.478 41.5881C190.342 41.7358 190.274 41.9375 190.274 42.1932C190.274 42.5426 190.403 42.8068 190.661 42.9858C190.923 43.1619 191.254 43.25 191.654 43.25ZM200.342 40.0625V44H199.336V37.4545H200.308V38.4773H200.393C200.547 38.1449 200.78 37.8778 201.092 37.6761C201.405 37.4716 201.808 37.3693 202.302 37.3693C202.746 37.3693 203.133 37.4602 203.466 37.642C203.798 37.821 204.057 38.0938 204.241 38.4602C204.426 38.8239 204.518 39.2841 204.518 39.8409V44H203.513V39.9091C203.513 39.3949 203.379 38.9943 203.112 38.7074C202.845 38.4176 202.479 38.2727 202.013 38.2727C201.692 38.2727 201.405 38.3423 201.152 38.4815C200.902 38.6207 200.704 38.8239 200.559 39.0909C200.415 39.358 200.342 39.6818 200.342 40.0625ZM209.769 46.4545C209.599 46.4545 209.447 46.4403 209.313 46.4119C209.18 46.3864 209.088 46.3608 209.036 46.3352L209.292 45.4489C209.536 45.5114 209.752 45.5341 209.94 45.517C210.127 45.5 210.294 45.4162 210.438 45.2656C210.586 45.1179 210.721 44.8778 210.843 44.5455L211.031 44.0341L208.61 37.4545H209.701L211.508 42.6705H211.576L213.383 37.4545H214.474L211.695 44.9545C211.57 45.2926 211.416 45.5724 211.231 45.794C211.046 46.0185 210.832 46.1847 210.588 46.2926C210.346 46.4006 210.073 46.4545 209.769 46.4545ZM225.313 44V35.2727H226.369V43.0625H230.426V44H225.313ZM237.503 37.4545V38.3068H234.111V37.4545H237.503ZM235.1 35.8864H236.106V42.125C236.106 42.4091 236.147 42.6222 236.229 42.7642C236.314 42.9034 236.422 42.9972 236.553 43.0455C236.687 43.0909 236.827 43.1136 236.975 43.1136C237.086 43.1136 237.177 43.108 237.248 43.0966C237.319 43.0824 237.376 43.071 237.418 43.0625L237.623 43.9659C237.555 43.9915 237.459 44.017 237.337 44.0426C237.215 44.071 237.06 44.0852 236.873 44.0852C236.589 44.0852 236.31 44.0241 236.037 43.902C235.768 43.7798 235.543 43.5938 235.364 43.3438C235.188 43.0938 235.1 42.7784 235.1 42.3977V35.8864ZM244.417 44.1364C243.872 44.1364 243.39 43.9986 242.973 43.723C242.555 43.4446 242.229 43.0526 241.993 42.5469C241.757 42.0384 241.639 41.4375 241.639 40.7443C241.639 40.0568 241.757 39.4602 241.993 38.9545C242.229 38.4489 242.557 38.0582 242.977 37.7827C243.398 37.5071 243.883 37.3693 244.434 37.3693C244.861 37.3693 245.197 37.4403 245.444 37.5824C245.694 37.7216 245.885 37.8807 246.015 38.0597C246.149 38.2358 246.253 38.3807 246.327 38.4943H246.412V35.2727H247.417V44H246.446V42.9943H246.327C246.253 43.1136 246.148 43.2642 246.011 43.446C245.875 43.625 245.68 43.7855 245.427 43.9276C245.175 44.0668 244.838 44.1364 244.417 44.1364ZM244.554 43.233C244.957 43.233 245.298 43.1278 245.577 42.9176C245.855 42.7045 246.067 42.4105 246.211 42.0355C246.356 41.6577 246.429 41.2216 246.429 40.7273C246.429 40.2386 246.358 39.8111 246.216 39.4446C246.074 39.0753 245.863 38.7884 245.585 38.5838C245.307 38.3764 244.963 38.2727 244.554 38.2727C244.128 38.2727 243.773 38.3821 243.488 38.6009C243.207 38.8168 242.996 39.1108 242.854 39.483C242.714 39.8523 242.645 40.267 242.645 40.7273C242.645 41.1932 242.716 41.6165 242.858 41.9972C243.003 42.375 243.216 42.6761 243.497 42.9006C243.781 43.1222 244.133 43.233 244.554 43.233Z" fill="white" fill-opacity="0.9"/>
<path d="M264.5 11C264.5 5.47715 268.977 1 274.5 1H302.5C308.023 1 312.5 5.47715 312.5 11V39C312.5 44.5229 308.023 49 302.5 49H274.5C268.977 49 264.5 44.5228 264.5 39V11Z" fill="white"/>
<path d="M281.5 36.6667V15.6667C281.5 15.0478 281.746 14.4543 282.183 14.0167C282.621 13.5792 283.214 13.3333 283.833 13.3333H293.167C293.786 13.3333 294.379 13.5792 294.817 14.0167C295.254 14.4543 295.5 15.0478 295.5 15.6667V36.6667H281.5Z" stroke="#225854" stroke-width="2.33333" stroke-linecap="round" stroke-linejoin="round"/>
<path d="M281.5 25H279.167C278.548 25 277.954 25.2458 277.517 25.6834C277.079 26.121 276.833 26.7145 276.833 27.3333V34.3333C276.833 34.9522 277.079 35.5457 277.517 35.9832C277.954 36.4208 278.548 36.6667 279.167 36.6667H281.5" stroke="#225854" stroke-width="2.33333" stroke-linecap="round" stroke-linejoin="round"/>
<path d="M295.5 21.5H297.833C298.452 21.5 299.046 21.7458 299.483 22.1834C299.921 22.621 300.167 23.2145 300.167 23.8333V34.3333C300.167 34.9522 299.921 35.5457 299.483 35.9832C299.046 36.4208 298.452 36.6667 297.833 36.6667H295.5" stroke="#225854" stroke-width="2.33333" stroke-linecap="round" stroke-linejoin="round"/>
<path d="M286.167 18H290.833" stroke="#225854" stroke-width="2.33333" stroke-linecap="round" stroke-linejoin="round"/>
<path d="M286.167 22.6667H290.833" stroke="#225854" stroke-width="2.33333" stroke-linecap="round" stroke-linejoin="round"/>
<path d="M286.167 27.3333H290.833" stroke="#225854" stroke-width="2.33333" stroke-linecap="round" stroke-linejoin="round"/>
<path d="M286.167 32H290.833" stroke="#225854" stroke-width="2.33333" stroke-linecap="round" stroke-linejoin="round"/>
</svg>
