<svg width="237" height="52" viewBox="0 0 237 52" fill="none" xmlns="http://www.w3.org/2000/svg">
<path d="M10.3014 22.5C9.10144 22.5 7.99744 22.38 6.98944 22.092C5.98144 21.828 5.11744 21.42 4.39744 20.844C3.67744 20.292 3.10144 19.596 2.69344 18.732C2.28544 17.892 2.09344 16.908 2.09344 15.756C2.09344 14.796 2.26144 13.884 2.64544 13.068C3.00544 12.252 3.53344 11.532 4.25344 10.932C4.94944 10.332 5.81344 9.852 6.82144 9.516C7.82944 9.18 9.00544 8.988 10.3014 8.988H10.7814V7.788H14.1414V22.5H10.3014ZM10.7814 19.14V12.348H9.48544C8.98144 12.348 8.50144 12.444 8.02144 12.588C7.54144 12.732 7.10944 12.948 6.72544 13.236C6.34144 13.524 6.02944 13.884 5.78944 14.316C5.54944 14.748 5.45344 15.228 5.45344 15.756C5.45344 16.332 5.54944 16.812 5.76544 17.22C5.98144 17.652 6.26944 17.988 6.62944 18.276C6.98944 18.564 7.39744 18.78 7.87744 18.924C8.33344 19.068 8.81344 19.14 9.31744 19.14H10.7814ZM12.1254 6.012C11.5974 6.012 11.1654 5.868 10.8054 5.58C10.4214 5.292 10.2534 4.86 10.2534 4.284C10.2534 3.78 10.4214 3.372 10.7814 3.06C11.1414 2.748 11.5974 2.58 12.1254 2.58C12.6534 2.58 13.1094 2.748 13.4694 3.06C13.8054 3.372 13.9974 3.78 13.9974 4.284C13.9974 4.86 13.8054 5.292 13.4454 5.58C13.0614 5.868 12.6294 6.012 12.1254 6.012ZM6.91744 6.012C6.38944 6.012 5.95744 5.868 5.59744 5.58C5.21344 5.292 5.04544 4.86 5.04544 4.284C5.04544 3.78 5.21344 3.372 5.57344 3.06C5.93344 2.748 6.38944 2.58 6.91744 2.58C7.44544 2.58 7.87744 2.748 8.23744 3.06C8.59744 3.372 8.78944 3.78 8.78944 4.284C8.78944 4.86 8.59744 5.292 8.23744 5.58C7.85344 5.868 7.42144 6.012 6.91744 6.012ZM16.3322 19.14H24.7082V15.468C24.7082 14.988 24.6362 14.58 24.5402 14.22C24.4442 13.86 24.2762 13.548 24.0602 13.26C23.8442 12.996 23.5562 12.78 23.1962 12.612C22.8362 12.444 22.4522 12.348 22.0202 12.348H20.5802V8.988H21.6842C22.7642 8.988 23.7242 9.132 24.5402 9.42C25.3562 9.708 26.0522 10.164 26.6762 10.788C27.1802 11.34 27.5402 12.036 27.7562 12.876C27.9482 13.716 28.0682 14.628 28.0682 15.612V22.5H16.3322V19.14ZM42.6169 21.588C42.6169 22.5 42.4969 23.34 42.3049 24.108C42.1129 24.876 41.7769 25.524 41.2969 26.052C40.8169 26.604 40.1929 27.036 39.4009 27.324C38.6089 27.636 37.6249 27.78 36.4489 27.78C36.1129 27.78 35.8249 27.78 35.5609 27.756C35.2729 27.732 35.0089 27.684 34.7449 27.636C34.4809 27.588 34.2169 27.54 33.9289 27.468L32.9449 27.204L32.7049 23.82C33.3529 24.036 33.9529 24.18 34.5289 24.276C35.0809 24.372 35.6329 24.42 36.2089 24.42C36.6649 24.42 37.0729 24.42 37.4329 24.372C37.7689 24.324 38.0809 24.252 38.3209 24.108C38.5609 23.964 38.7769 23.772 38.9209 23.508C39.0649 23.268 39.1849 22.932 39.2329 22.5H38.8489C37.6969 22.5 36.6169 22.38 35.6089 22.116C34.6009 21.876 33.7369 21.468 32.9929 20.916C32.2489 20.388 31.6729 19.692 31.2409 18.828C30.8089 17.964 30.6169 16.932 30.6169 15.732C30.6169 14.676 30.8089 13.74 31.2169 12.9C31.6249 12.084 32.2009 11.364 32.9209 10.788C33.6409 10.212 34.5289 9.78 35.5369 9.468C36.5449 9.156 37.6489 8.988 38.8489 8.988H42.6409L42.6169 21.588ZM33.9769 15.732C33.9769 16.308 34.0729 16.788 34.2649 17.22C34.4569 17.652 34.7449 17.988 35.1049 18.276C35.4409 18.564 35.8489 18.78 36.3289 18.924C36.8089 19.068 37.3129 19.14 37.8649 19.14H39.2809V12.348H37.8649C37.3609 12.348 36.8809 12.444 36.4009 12.588C35.9209 12.756 35.5129 12.996 35.1529 13.284C34.7929 13.572 34.5049 13.932 34.2889 14.34C34.0729 14.772 33.9769 15.228 33.9769 15.732ZM44.9259 19.14H53.3019V15.468C53.3019 14.988 53.2299 14.58 53.1339 14.22C53.0379 13.86 52.8699 13.548 52.6539 13.26C52.4379 12.996 52.1499 12.78 51.7899 12.612C51.4299 12.444 51.0459 12.348 50.6139 12.348H49.1739V8.988H50.2779C51.3579 8.988 52.3179 9.132 53.1339 9.42C53.9499 9.708 54.6459 10.164 55.2699 10.788C55.7739 11.34 56.1339 12.036 56.3499 12.876C56.5419 13.716 56.6619 14.628 56.6619 15.612V19.14H59.2539V22.5H44.9259V19.14ZM58.8047 19.14H68.7647C68.8847 18.612 68.9807 18.036 69.0527 17.412C69.1247 16.788 69.1727 16.236 69.1727 15.708C69.1727 15.228 69.0767 14.7 68.8847 14.172C68.6927 13.644 68.4047 13.188 67.9967 12.804C67.3007 12.204 66.3647 11.892 65.1647 11.892C64.5167 11.892 63.9407 11.988 63.4127 12.132C62.8847 12.276 62.3087 12.564 61.6847 12.948L60.2927 10.02C61.0607 9.588 61.9007 9.228 62.7647 8.94C63.6287 8.676 64.5647 8.532 65.5727 8.532C66.5567 8.532 67.4447 8.7 68.2607 9.012C69.0767 9.348 69.7727 9.804 70.3487 10.38C70.9727 11.028 71.5007 11.82 71.9087 12.756C72.2927 13.692 72.5087 14.772 72.5087 15.972C72.5087 16.524 72.4607 17.052 72.4127 17.58C72.3647 18.108 72.2927 18.636 72.1967 19.14H74.7887V22.5H58.8047V19.14ZM74.3438 19.14H76.6718C76.5998 18.9 76.5518 18.66 76.5278 18.396C76.5038 18.156 76.5038 17.892 76.5038 17.604C76.5038 16.596 76.6718 15.636 77.0558 14.748C77.4398 13.86 77.9438 13.092 78.5918 12.42C79.2398 11.748 80.0078 11.22 80.8718 10.836C81.7358 10.452 82.6718 10.26 83.6798 10.26C84.6878 10.26 85.6238 10.452 86.5118 10.836C87.3998 11.22 88.1678 11.724 88.8398 12.372C89.5118 13.044 90.0158 13.812 90.3998 14.7C90.7838 15.612 90.9758 16.572 90.9758 17.604C90.9758 17.892 90.9518 18.156 90.9278 18.396C90.8798 18.66 90.8558 18.9 90.8078 19.14H93.4958V22.5H89.0078C88.3358 23.22 87.5198 23.796 86.6078 24.18C85.6958 24.588 84.7118 24.78 83.6798 24.78C82.6478 24.78 81.6878 24.588 80.7998 24.18C79.8878 23.772 79.1198 23.22 78.4478 22.5H74.3438V19.14ZM83.6798 21.42C84.2078 21.42 84.7358 21.324 85.2158 21.132C85.6958 20.94 86.1038 20.676 86.4637 20.34C86.8238 20.004 87.1118 19.596 87.3038 19.116C87.4958 18.636 87.6158 18.132 87.6158 17.556C87.6158 17.004 87.5198 16.476 87.3278 15.996C87.1358 15.516 86.8478 15.108 86.5118 14.748C86.1518 14.412 85.7438 14.124 85.2638 13.932C84.7838 13.74 84.2558 13.62 83.6798 13.62C83.1038 13.62 82.5998 13.74 82.1438 13.932C81.6638 14.148 81.2798 14.436 80.9438 14.772C80.6078 15.132 80.3438 15.54 80.1518 16.02C79.9598 16.5 79.8638 17.028 79.8638 17.556C79.8638 18.108 79.9598 18.612 80.1518 19.092C80.3438 19.572 80.6078 19.98 80.9438 20.316C81.2798 20.652 81.6878 20.94 82.1678 21.132C82.6238 21.324 83.1278 21.42 83.6798 21.42ZM93.0234 19.14H95.3754V3.036H100.295V6.396H98.7354V22.5H93.0234V19.14ZM104.37 3.036H107.73V22.5H104.37V3.036ZM117.559 19.14H125.935V15.468C125.935 14.988 125.863 14.58 125.767 14.22C125.671 13.86 125.503 13.548 125.287 13.26C125.071 12.996 124.783 12.78 124.423 12.612C124.063 12.444 123.679 12.348 123.247 12.348H121.807V8.988H122.911C123.991 8.988 124.951 9.132 125.767 9.42C126.583 9.708 127.279 10.164 127.903 10.788C128.407 11.34 128.767 12.036 128.983 12.876C129.175 13.716 129.295 14.628 129.295 15.612V19.14H131.887V22.5H117.559V19.14ZM133.406 5.388C133.406 4.308 133.67 3.54 134.198 3.084C134.726 2.652 135.47 2.412 136.43 2.412H137.87V3.492H136.622C136.142 3.492 135.806 3.612 135.614 3.804C135.422 4.02 135.326 4.308 135.326 4.692V5.34H138.638V7.14H133.406V5.388ZM131.438 19.14H134.414V8.988H137.773V22.5H131.438V19.14ZM142.339 3.036H145.699V22.5H142.339V3.036ZM148.332 19.14H156.708V15.468C156.708 14.988 156.636 14.58 156.54 14.22C156.444 13.86 156.276 13.548 156.06 13.26C155.844 12.996 155.556 12.78 155.196 12.612C154.836 12.444 154.452 12.348 154.02 12.348H152.58V8.988H153.684C154.764 8.988 155.724 9.132 156.54 9.42C157.356 9.708 158.052 10.164 158.676 10.788C159.18 11.34 159.54 12.036 159.756 12.876C159.948 13.716 160.068 14.628 160.068 15.612V19.14H162.66V22.5H148.332V19.14ZM162.211 19.14H164.827C164.539 18.588 164.299 17.964 164.107 17.292C163.915 16.62 163.819 15.9 163.819 15.132C163.819 13.98 164.035 12.972 164.491 12.108C164.923 11.244 165.499 10.524 166.219 9.948C166.771 9.492 167.419 9.132 168.163 8.892C168.907 8.652 169.723 8.532 170.587 8.532C171.475 8.532 172.315 8.652 173.131 8.892C173.947 9.132 174.763 9.444 175.579 9.852L174.451 12.9C173.923 12.612 173.371 12.372 172.747 12.18C172.123 11.988 171.547 11.868 170.995 11.868C169.891 11.868 169.003 12.156 168.379 12.684C167.947 13.068 167.635 13.476 167.467 13.932C167.275 14.388 167.203 14.868 167.203 15.396C167.203 16.164 167.299 16.86 167.539 17.484C167.755 18.108 168.067 18.66 168.475 19.14H176.083V22.5H162.211V19.14Z" fill="white"/>
<path d="M37.6839 48.682H36.5639L35.0799 44.986H29.9279L28.4439 48.682H27.3239L32.0279 36.964H32.9799L37.6839 48.682ZM30.3339 43.964H34.6739L32.5039 38.588L30.3339 43.964ZM42.104 47.688C43 47.688 43.784 47.576 44.47 47.352C45.156 47.128 45.73 46.792 46.192 46.372C46.654 45.952 47.004 45.434 47.256 44.832C47.494 44.244 47.62 43.572 47.62 42.816C47.62 42.074 47.48 41.402 47.214 40.8C46.934 40.212 46.556 39.694 46.08 39.274C45.59 38.854 45.002 38.532 44.33 38.308C43.658 38.084 42.916 37.958 42.104 37.958H40.508V47.688H42.104ZM39.472 36.964H42.118C43.056 36.964 43.924 37.09 44.722 37.342C45.52 37.594 46.22 37.958 46.808 38.462C47.396 38.966 47.858 39.568 48.194 40.296C48.53 41.024 48.698 41.864 48.698 42.816C48.698 43.768 48.53 44.622 48.194 45.35C47.858 46.078 47.396 46.694 46.808 47.184C46.22 47.688 45.52 48.052 44.722 48.304C43.924 48.556 43.056 48.682 42.118 48.682H39.472V36.964ZM59.4495 48.682H58.3295L56.8455 44.986H51.6935L50.2095 48.682H49.0895L53.7935 36.964H54.7455L59.4495 48.682ZM52.0995 43.964H56.4395L54.2695 38.588L52.0995 43.964ZM61.2376 48.682V36.964H62.2736V48.682H61.2376ZM68.1763 47.688C69.0723 47.688 69.8563 47.576 70.5423 47.352C71.2283 47.128 71.8023 46.792 72.2643 46.372C72.7263 45.952 73.0763 45.434 73.3283 44.832C73.5663 44.244 73.6923 43.572 73.6923 42.816C73.6923 42.074 73.5523 41.402 73.2863 40.8C73.0063 40.212 72.6283 39.694 72.1523 39.274C71.6623 38.854 71.0743 38.532 70.4023 38.308C69.7303 38.084 68.9883 37.958 68.1763 37.958H66.5803V47.688H68.1763ZM65.5443 36.964H68.1903C69.1283 36.964 69.9963 37.09 70.7943 37.342C71.5923 37.594 72.2923 37.958 72.8803 38.462C73.4683 38.966 73.9303 39.568 74.2663 40.296C74.6023 41.024 74.7703 41.864 74.7703 42.816C74.7703 43.768 74.6023 44.622 74.2663 45.35C73.9303 46.078 73.4683 46.694 72.8803 47.184C72.2923 47.688 71.5923 48.052 70.7943 48.304C69.9963 48.556 69.1283 48.682 68.1903 48.682H65.5443V36.964ZM82.7407 47.688H88.5367V48.682H81.6907V36.964H82.7407V47.688ZM88.74 40.898H90.392V38.084H91.386V40.898H94.606V41.864H91.386V45.658C91.386 46.078 91.414 46.414 91.47 46.666C91.526 46.932 91.624 47.142 91.764 47.282C91.89 47.436 92.072 47.548 92.296 47.618C92.52 47.688 92.8 47.716 93.136 47.716H94.704V48.682H93.234C92.814 48.682 92.436 48.64 92.1 48.556C91.764 48.472 91.456 48.318 91.204 48.108C90.938 47.912 90.742 47.632 90.602 47.296C90.462 46.96 90.392 46.554 90.392 46.05V41.864H88.74V40.898ZM96.6038 44.818C96.6038 45.77 96.8698 46.512 97.4298 47.044C97.9758 47.576 98.8298 47.842 99.9918 47.842C100.244 47.842 100.51 47.828 100.79 47.786C101.07 47.744 101.336 47.702 101.574 47.646V41.92C101.28 41.85 101 41.794 100.72 41.766C100.44 41.738 100.188 41.724 99.9918 41.724C99.4038 41.724 98.8998 41.808 98.4798 41.948C98.0598 42.088 97.7098 42.298 97.4298 42.564C97.1498 42.844 96.9398 43.166 96.7998 43.544C96.6598 43.922 96.6038 44.342 96.6038 44.818ZM101.574 36.964H102.568V48.43C102.106 48.57 101.658 48.668 101.21 48.724C100.762 48.794 100.37 48.822 100.02 48.822C99.2638 48.822 98.6058 48.724 98.0458 48.514C97.4858 48.304 97.0098 48.024 96.6458 47.66C96.2678 47.296 95.9878 46.876 95.8058 46.386C95.6238 45.896 95.5398 45.378 95.5398 44.818C95.5398 44.272 95.6238 43.754 95.8058 43.25C95.9878 42.76 96.2678 42.326 96.6458 41.948C97.0098 41.584 97.4858 41.29 98.0458 41.066C98.6058 40.856 99.2638 40.744 100.02 40.744C100.44 40.744 100.958 40.8 101.574 40.898V36.964ZM115.125 37.79C114.467 37.79 113.851 37.902 113.263 38.126C112.675 38.35 112.171 38.686 111.723 39.106C111.275 39.54 110.925 40.072 110.673 40.688C110.407 41.304 110.281 42.018 110.281 42.816C110.281 43.628 110.407 44.342 110.673 44.958C110.925 45.574 111.275 46.106 111.723 46.526C112.171 46.96 112.675 47.282 113.263 47.506C113.851 47.73 114.467 47.842 115.125 47.842C115.769 47.842 116.357 47.772 116.917 47.618C117.463 47.464 118.009 47.226 118.541 46.904L119.003 47.786C118.401 48.15 117.785 48.416 117.155 48.584C116.511 48.752 115.839 48.822 115.125 48.822C114.201 48.822 113.375 48.668 112.647 48.36C111.919 48.052 111.289 47.618 110.785 47.072C110.281 46.54 109.889 45.896 109.609 45.168C109.329 44.44 109.203 43.656 109.203 42.816C109.203 41.99 109.329 41.206 109.609 40.478C109.889 39.75 110.281 39.106 110.785 38.56C111.289 38.028 111.919 37.594 112.647 37.286C113.375 36.978 114.201 36.81 115.125 36.81C115.839 36.81 116.511 36.894 117.155 37.062C117.785 37.23 118.401 37.482 119.003 37.846L118.541 38.728C118.009 38.42 117.463 38.182 116.917 38.028C116.357 37.874 115.769 37.79 115.125 37.79ZM123.66 48.822C123.1 48.822 122.568 48.724 122.092 48.514C121.616 48.304 121.196 48.01 120.846 47.646C120.482 47.282 120.202 46.848 120.006 46.358C119.81 45.882 119.712 45.35 119.712 44.79C119.712 44.23 119.81 43.712 120.006 43.222C120.202 42.746 120.482 42.312 120.846 41.948C121.196 41.584 121.616 41.29 122.092 41.066C122.568 40.856 123.1 40.744 123.66 40.744C124.22 40.744 124.738 40.856 125.214 41.066C125.69 41.29 126.11 41.584 126.474 41.948C126.824 42.312 127.104 42.746 127.3 43.222C127.496 43.712 127.608 44.23 127.608 44.79C127.608 45.35 127.496 45.882 127.3 46.358C127.104 46.848 126.824 47.282 126.474 47.646C126.11 48.01 125.69 48.304 125.214 48.514C124.738 48.724 124.22 48.822 123.66 48.822ZM123.66 47.842C124.08 47.842 124.472 47.772 124.836 47.604C125.186 47.436 125.494 47.226 125.746 46.946C125.998 46.666 126.194 46.344 126.334 45.98C126.474 45.616 126.544 45.21 126.544 44.79C126.544 44.37 126.474 43.978 126.334 43.6C126.194 43.236 125.998 42.914 125.746 42.634C125.494 42.354 125.186 42.144 124.836 41.976C124.472 41.808 124.08 41.724 123.66 41.724C123.226 41.724 122.834 41.808 122.484 41.976C122.12 42.144 121.826 42.354 121.574 42.634C121.322 42.914 121.126 43.236 120.986 43.6C120.846 43.978 120.776 44.37 120.776 44.79C120.776 45.21 120.846 45.616 120.986 45.98C121.126 46.344 121.322 46.666 121.574 46.946C121.826 47.226 122.12 47.436 122.484 47.604C122.834 47.772 123.226 47.842 123.66 47.842ZM139.353 44.412C139.353 43.852 139.297 43.39 139.213 43.04C139.115 42.69 138.975 42.424 138.807 42.228C138.639 42.046 138.415 41.92 138.135 41.836C137.855 41.766 137.519 41.724 137.141 41.724C136.987 41.724 136.819 41.738 136.637 41.766C136.441 41.794 136.259 41.822 136.063 41.864C135.867 41.92 135.685 41.976 135.489 42.046C135.293 42.116 135.167 42.158 135.111 42.186C135.167 42.34 135.237 42.578 135.307 42.9C135.377 43.222 135.419 43.6 135.419 44.02V48.682H134.425V44.412C134.425 43.852 134.369 43.39 134.285 43.04C134.187 42.704 134.047 42.438 133.865 42.242C133.683 42.046 133.459 41.92 133.179 41.836C132.899 41.766 132.563 41.724 132.171 41.724C131.835 41.724 131.527 41.752 131.247 41.794C130.967 41.85 130.687 41.906 130.407 41.962V48.682H129.413V41.15L131.009 40.856C131.415 40.786 131.821 40.744 132.241 40.744C132.717 40.744 133.151 40.8 133.543 40.884C133.935 40.982 134.243 41.136 134.467 41.346C134.831 41.178 135.265 41.038 135.783 40.926C136.287 40.814 136.763 40.744 137.197 40.744C137.673 40.744 138.107 40.8 138.499 40.884C138.891 40.982 139.213 41.164 139.493 41.416C139.773 41.668 139.983 42.004 140.123 42.424C140.263 42.844 140.347 43.376 140.347 44.02V48.682H139.353V44.412ZM143.915 47.646C144.195 47.73 144.489 47.772 144.769 47.8C145.049 47.828 145.287 47.842 145.497 47.842C146.071 47.842 146.575 47.772 146.995 47.632C147.415 47.492 147.779 47.282 148.059 47.002C148.339 46.736 148.535 46.414 148.675 46.036C148.815 45.658 148.885 45.224 148.885 44.748C148.885 43.81 148.605 43.068 148.059 42.536C147.499 42.004 146.645 41.724 145.497 41.724C145.245 41.724 144.965 41.752 144.685 41.794C144.405 41.836 144.139 41.878 143.915 41.92V47.646ZM143.915 51.762H142.921V41.136C143.369 41.01 143.817 40.912 144.265 40.842C144.713 40.786 145.105 40.744 145.469 40.744C146.211 40.744 146.869 40.856 147.429 41.066C147.989 41.276 148.465 41.556 148.843 41.92C149.207 42.284 149.487 42.704 149.669 43.194C149.851 43.684 149.949 44.202 149.949 44.748C149.949 45.308 149.851 45.826 149.669 46.316C149.487 46.82 149.207 47.254 148.843 47.618C148.465 47.996 147.989 48.29 147.429 48.5C146.869 48.724 146.211 48.822 145.469 48.822C145.035 48.822 144.517 48.78 143.915 48.668V51.762ZM154.868 48.822C154.42 48.822 153.986 48.78 153.566 48.696C153.146 48.612 152.782 48.486 152.46 48.29C152.138 48.108 151.872 47.856 151.676 47.534C151.48 47.226 151.382 46.834 151.382 46.372C151.382 45.448 151.732 44.79 152.46 44.384C153.174 43.992 154.126 43.782 155.316 43.782C155.54 43.782 155.792 43.796 156.1 43.824C156.408 43.852 156.66 43.88 156.884 43.908V43.824C156.884 43.068 156.702 42.536 156.352 42.214C155.988 41.892 155.442 41.724 154.714 41.724C154.504 41.724 154.294 41.752 154.07 41.78C153.846 41.822 153.636 41.864 153.412 41.92C153.188 41.976 152.992 42.046 152.796 42.13C152.6 42.214 152.32 42.354 151.97 42.55L152.012 41.43C152.502 41.178 152.992 41.01 153.468 40.898C153.944 40.8 154.378 40.744 154.784 40.744C155.82 40.744 156.59 40.982 157.108 41.458C157.612 41.934 157.878 42.676 157.878 43.698V48.248C157.402 48.444 156.912 48.598 156.408 48.682C155.904 48.78 155.386 48.822 154.868 48.822ZM156.884 44.916C156.744 44.888 156.506 44.86 156.156 44.818C155.806 44.79 155.484 44.762 155.176 44.762C154.812 44.762 154.476 44.79 154.14 44.832C153.804 44.888 153.51 44.958 153.258 45.07C153.006 45.182 152.796 45.35 152.656 45.546C152.516 45.742 152.446 46.008 152.446 46.344C152.446 46.652 152.502 46.89 152.628 47.072C152.74 47.268 152.908 47.422 153.118 47.534C153.314 47.646 153.566 47.73 153.86 47.772C154.154 47.828 154.462 47.842 154.798 47.842C155.176 47.842 155.554 47.814 155.946 47.744C156.324 47.688 156.632 47.604 156.884 47.506V44.916ZM160.448 41.108C161.078 40.996 161.652 40.898 162.184 40.842C162.702 40.786 163.192 40.744 163.654 40.744C164.13 40.744 164.564 40.8 164.97 40.884C165.376 40.982 165.726 41.15 166.02 41.402C166.314 41.654 166.538 42.004 166.692 42.424C166.846 42.844 166.93 43.376 166.93 44.02V48.682H165.936V44.44C165.936 43.88 165.88 43.418 165.768 43.068C165.656 42.718 165.516 42.452 165.32 42.256C165.124 42.06 164.886 41.934 164.606 41.85C164.312 41.766 163.976 41.724 163.598 41.724C162.926 41.724 162.198 41.808 161.442 41.948V48.682H160.448V41.108ZM174.65 48.57C174.37 48.64 174.048 48.696 173.656 48.752C173.264 48.808 172.886 48.822 172.508 48.822C172.018 48.822 171.584 48.78 171.192 48.682C170.8 48.598 170.478 48.416 170.198 48.164C169.918 47.912 169.722 47.576 169.582 47.156C169.442 46.736 169.372 46.19 169.372 45.546V40.898H170.366V45.126C170.366 45.7 170.408 46.162 170.506 46.512C170.59 46.876 170.73 47.142 170.898 47.324C171.066 47.52 171.29 47.646 171.57 47.73C171.85 47.814 172.172 47.842 172.564 47.842C172.872 47.842 173.208 47.828 173.572 47.772C173.936 47.73 174.286 47.66 174.65 47.548V40.898H175.644V48.892C175.644 49.928 175.336 50.67 174.734 51.146C174.118 51.622 173.306 51.846 172.298 51.846C172.074 51.846 171.85 51.846 171.626 51.818C171.402 51.79 171.164 51.762 170.94 51.706C170.716 51.664 170.492 51.608 170.268 51.538C170.044 51.468 169.82 51.37 169.596 51.258L169.414 50.026C169.792 50.236 170.086 50.376 170.282 50.46C170.478 50.544 170.702 50.614 170.926 50.67C171.15 50.726 171.36 50.782 171.584 50.81C171.808 50.852 172.018 50.866 172.228 50.866C172.97 50.866 173.558 50.712 173.992 50.376C174.426 50.054 174.65 49.522 174.65 48.766V48.57Z" fill="white" fill-opacity="0.7"/>
<path d="M189 12C189 6.47715 193.477 2 199 2H227C232.523 2 237 6.47715 237 12V40C237 45.5229 232.523 50 227 50H199C193.477 50 189 45.5228 189 40V12Z" fill="white" fill-opacity="0.1"/>
<path d="M206 37.6663V16.6663C206 16.0475 206.246 15.454 206.683 15.0164C207.121 14.5788 207.714 14.333 208.333 14.333H217.667C218.286 14.333 218.879 14.5788 219.317 15.0164C219.754 15.454 220 16.0475 220 16.6663V37.6663H206Z" stroke="white" stroke-width="2.33333" stroke-linecap="round" stroke-linejoin="round"/>
<path d="M206 26H203.667C203.048 26 202.454 26.2458 202.017 26.6834C201.579 27.121 201.333 27.7145 201.333 28.3333V35.3333C201.333 35.9522 201.579 36.5457 202.017 36.9832C202.454 37.4208 203.048 37.6667 203.667 37.6667H206" stroke="white" stroke-width="2.33333" stroke-linecap="round" stroke-linejoin="round"/>
<path d="M220 22.5H222.333C222.952 22.5 223.546 22.7458 223.983 23.1834C224.421 23.621 224.667 24.2145 224.667 24.8333V35.3333C224.667 35.9522 224.421 36.5457 223.983 36.9832C223.546 37.4208 222.952 37.6667 222.333 37.6667H220" stroke="white" stroke-width="2.33333" stroke-linecap="round" stroke-linejoin="round"/>
<path d="M210.667 19H215.333" stroke="white" stroke-width="2.33333" stroke-linecap="round" stroke-linejoin="round"/>
<path d="M210.667 23.667H215.333" stroke="white" stroke-width="2.33333" stroke-linecap="round" stroke-linejoin="round"/>
<path d="M210.667 28.333H215.333" stroke="white" stroke-width="2.33333" stroke-linecap="round" stroke-linejoin="round"/>
<path d="M210.667 33H215.333" stroke="white" stroke-width="2.33333" stroke-linecap="round" stroke-linejoin="round"/>
</svg>
