<svg width="307" height="324" viewBox="0 0 307 324" fill="none" xmlns="http://www.w3.org/2000/svg">
<path d="M53.1674 277.8H46.8254L43.9274 269.778H29.8154L26.9594 277.8H20.6174L33.2174 243.738H40.5674L53.1674 277.8ZM31.8314 264.108H41.9114L36.8714 249.954L31.8314 264.108ZM97.7179 272.172C99.7759 272.172 101.624 272.004 103.304 271.584C104.984 271.164 106.412 270.492 107.588 269.568C108.764 268.644 109.646 267.468 110.276 265.998C110.906 264.528 111.242 262.722 111.242 260.58C111.242 258.606 110.906 256.926 110.276 255.498C109.604 254.07 108.722 252.936 107.546 252.012C106.37 251.088 104.984 250.416 103.346 249.996C101.708 249.576 99.9019 249.366 97.9279 249.366H94.9039V272.172H97.7179ZM88.8559 243.738H97.8439C100.658 243.738 103.262 244.116 105.698 244.83C108.134 245.544 110.234 246.594 111.998 247.98C113.762 249.408 115.106 251.172 116.114 253.272C117.122 255.372 117.626 257.808 117.626 260.58C117.626 263.352 117.122 265.788 116.156 267.93C115.19 270.072 113.846 271.878 112.124 273.348C110.402 274.818 108.344 275.91 105.95 276.666C103.556 277.422 100.952 277.8 98.0959 277.8H88.8559V243.738ZM183.561 277.8H177.219L174.321 269.778H160.209L157.353 277.8H151.011L163.611 243.738H170.961L183.561 277.8ZM162.225 264.108H172.305L167.265 249.954L162.225 264.108ZM219.249 277.8V243.738H225.298V277.8H219.249ZM273.621 272.172C275.679 272.172 277.527 272.004 279.207 271.584C280.887 271.164 282.315 270.492 283.491 269.568C284.667 268.644 285.549 267.468 286.179 265.998C286.809 264.528 287.145 262.722 287.145 260.58C287.145 258.606 286.809 256.926 286.179 255.498C285.507 254.07 284.625 252.936 283.449 252.012C282.273 251.088 280.887 250.416 279.249 249.996C277.611 249.576 275.805 249.366 273.831 249.366H270.807V272.172H273.621ZM264.759 243.738H273.747C276.561 243.738 279.165 244.116 281.601 244.83C284.037 245.544 286.137 246.594 287.901 247.98C289.665 249.408 291.009 251.172 292.017 253.272C293.025 255.372 293.529 257.808 293.529 260.58C293.529 263.352 293.025 265.788 292.059 267.93C291.093 270.072 289.749 271.878 288.027 273.348C286.305 274.818 284.247 275.91 281.853 276.666C279.459 277.422 276.855 277.8 273.999 277.8H264.759V243.738Z" fill="white"/>
<path d="M42.9202 165.348V171.553H53.1805C55.2487 171.553 57.3438 171.904 59.4551 172.6C61.5557 173.302 63.2522 174.247 64.5233 175.441C65.7998 176.629 66.7154 177.957 67.2702 179.41C67.8303 180.868 68.105 182.644 68.105 184.739V207.716H21.7911V213.91H92.5788V207.716H76.5825V183.692C76.5825 181.483 76.1462 179.28 75.2683 177.098C74.3958 174.917 72.9631 172.978 70.9703 171.293C68.5035 169.312 65.8213 167.827 62.9129 166.838C60.0099 165.845 56.5252 165.348 52.4695 165.348H42.9202Z" fill="white"/>
<path d="M108.101 137.84C103.324 137.84 99.7586 138.856 97.4157 140.897C95.0674 142.938 93.8879 145.789 93.8879 149.456V156.703H120.155V150.503H102.489V148.144C102.489 146.745 102.926 145.714 103.803 145.044C104.676 144.374 106.389 144.04 108.936 144.04H116.337V137.84H108.101ZM102.128 165.348V207.716H87.0854V213.91H110.606V165.348H102.128Z" fill="white"/>
<path d="M176.385 165.348V171.553H186.656C188.718 171.553 190.814 171.904 192.92 172.6C195.025 173.302 196.722 174.247 197.993 175.441C199.264 176.629 200.185 177.957 200.74 179.41C201.3 180.868 201.575 182.644 201.575 184.739V207.716H155.255V213.91H226.049V207.716H210.052V183.692C210.052 181.483 209.616 179.28 208.738 177.098C207.866 174.917 206.433 172.978 204.44 171.293C201.973 169.312 199.286 167.827 196.383 166.838C193.48 165.845 190 165.348 185.939 165.348H176.385Z" fill="white"/>
<path d="M250.706 166.752C247.249 167.681 244.238 168.934 241.69 170.505C238.27 172.6 235.426 175.208 233.153 178.319C230.886 181.435 229.755 185.123 229.755 189.367C229.755 191.295 230.008 193.185 230.536 195.043C231.048 196.916 231.721 198.682 232.561 200.378C233.396 202.063 234.328 203.661 235.367 205.178L237.274 207.716H220.556V213.91H289.803V207.716H246.468L243.721 204.304C242.767 203.083 241.889 201.668 241.098 200.065C240.301 198.472 239.644 196.695 239.127 194.746C238.604 192.791 238.351 190.566 238.351 188.06C238.351 183.114 241.211 178.853 246.947 175.306C248.854 174.204 251.164 173.302 253.868 172.6C256.572 171.904 259.76 171.553 263.417 171.553C266.449 171.553 269.649 171.947 273.037 172.73C276.414 173.518 279.936 174.928 283.593 176.969L286.582 171.029C283.873 169.808 281.627 168.874 279.834 168.232C278.045 167.594 276.214 167.049 274.345 166.617C272.471 166.18 270.478 165.861 268.378 165.656C266.261 165.451 263.934 165.348 261.392 165.348C257.73 165.348 254.164 165.818 250.706 166.752Z" fill="white"/>
<path d="M134.364 213.91H142.836V108.643H134.364V213.91Z" fill="white"/>
<path d="M134.364 82.701L171.064 103.864L175.679 97.5024L134.364 73.5426V82.701Z" fill="white"/>
<path d="M165.149 97.5023V136.571L175.679 126.187V97.5023H165.149Z" fill="white"/>
<path d="M155.255 41.4289V76.4911L165.78 82.9657V41.4289H155.255Z" fill="white"/>
<path d="M155.255 41.2235L191.955 62.3807L196.566 56.0195L155.255 32.0651V41.2235Z" fill="white"/>
<path d="M186.662 56.0143V129.692L197.186 116.3V56.0143H186.662Z" fill="white"/>
<path d="M134.364 115.463H142.836V80.0226H134.364V115.463Z" fill="white"/>
</svg>
